SplineFontDB: 3.0
FontName: Antonio-Light
FullName: Antonio Light
FamilyName: Antonio
Weight: Light
Copyright: Copyright (c) 2011-12, vernon adams (vern@newtypography.co.uk), with Reserved Font Names 'Antonio'
Version: 1
ItalicAngle: 0
UnderlinePosition: 0
UnderlineWidth: 0
Ascent: 1638
Descent: 410
UFOAscent: 1782
UFODescent: -647
LayerCount: 2
Layer: 0 0 "Back"  1
Layer: 1 0 "Fore"  0
OS2Version: 0
OS2_WeightWidthSlopeOnly: 0
OS2_UseTypoMetrics: 0
CreationTime: 1375456473
ModificationTime: 1375456588
PfmFamily: 0
TTFWeight: 300
TTFWidth: 1
LineGap: 0
VLineGap: 0
OS2TypoAscent: 2342
OS2TypoAOffset: 0
OS2TypoDescent: -612
OS2TypoDOffset: 0
OS2TypoLinegap: 0
OS2WinAscent: 2342
OS2WinAOffset: 0
OS2WinDescent: 612
OS2WinDOffset: 0
HheadAscent: 0
HheadAOffset: 1
HheadDescent: 0
HheadDOffset: 1
OS2Vendor: 'newt'
Lookup: 258 0 0 "'kern' Horizontal Kerning in Latin lookup 0"  {"kernHorizontalKerninginLatinloo kerning class 1" [307,0,0] } ['kern' ('DFLT' <'dflt' > 'latn' <'dflt' > ) ]
Lookup: 260 0 0 "markMarkPositioninglookup2"  {"markMarkPositioninglookup2 subtable"  } ['mark' ('latn' <'dflt' > 'grek' <'dflt' > 'cyrl' <'dflt' > 'DFLT' <'dflt' > ) ]
MarkAttachClasses: 1
DEI: 91125
KernClass2: 16 27 "kernHorizontalKerninginLatinloo kerning class 1" 
 89 A Aacute Abreve Acircumflex Adieresis Agrave Amacron Aogonek Aring Atilde uni0200 uni0202
 9 B uni1E02
 47 C Cacute Ccaron Ccedilla Ccircumflex Cdotaccent
 16 D Dcaron uni1E0A
 9 F uni1E1E
 52 G Gbreve Gcircumflex Gcommaaccent Gdotaccent uni01F4
 13 J Jcircumflex
 14 K Kcommaaccent
 28 L Lacute Lcaron Lcommaaccent
 9 P uni1E56
 1 V
 37 W Wacute Wcircumflex Wdieresis Wgrave
 37 Y Yacute Ycircumflex Ydieresis Ygrave
 89 o oacute obreve ocircumflex odieresis ograve ohungarumlaut omacron otilde uni020D uni020F
 44 r racute rcaron rcommaaccent uni0211 uni0213
 89 A Aacute Abreve Acircumflex Adieresis Agrave Amacron Aogonek Aring Atilde uni0200 uni0202
 47 C Cacute Ccaron Ccedilla Ccircumflex Cdotaccent

StartChar: .notdef
Encoding: 65536 -1 0
Width: 1152
VWidth: 0
Flags: W
PickledData: "(dp1
S'com.fontlab.hintData'
p2
(dp3
S'vhints'
p4
((dp5
S'position'
p6
I166
sS'width'
p7
I82
s(dp8
g6
I388
sg7
I82
s(dp9
g6
I691
sg7
I76
s(dp10
g6
I700
sg7
I67
s(dp11
g6
I904
sg7
I82
stp12
sS'hhints'
p13
((dp14
g6
I0
sg7
I72
s(dp15
g6
I240
sg7
I15
s(dp16
g6
I1486
sg7
I14
s(dp17
g6
I1688
sg7
I72
stp18
ss."
HStem: 0 72<248 248 248 904> 240 15 1486 14 1688 72<248 904 904 904>
VStem: 166 82<0 1688 72 1688 72 1760> 388 82 691 76 700 67 904 82<72 1688 72 72>
LayerCount: 2
Fore
SplineSet
248 72 m 1
 248 1688 l 1
 904 1688 l 1
 904 72 l 1
 248 72 l 1
166 0 m 1
 986 0 l 1
 986 1760 l 1
 166 1760 l 1
 166 0 l 1
EndSplineSet
Refer: 66 78 N 0.58223 0 0 0.716243 291 240 2
EndChar

StartChar: A
Encoding: 65 65 1
Width: 817
VWidth: 0
GlyphClass: 2
Flags: W
PickledData: "(dp1
S'com.fontlab.hintData'
p2
(dp3
S'hhints'
p4
((dp5
S'position'
p6
I0
sS'width'
p7
I21
s(dp8
g6
I362
sg7
I111
s(dp9
g6
I1740
sg7
I20
stp10
ss."
HStem: 0 21<35 176 176 176 639 783 783 783> 362 111<248 248 248 561> 1740 20<318 470 318 318>
AnchorPoint: "ogonek" 720 -1 basechar 0
LayerCount: 2
Fore
SplineSet
35 0 m 1
 176 0 l 1
 229 362 l 1
 581 362 l 1
 639 0 l 1
 783 0 l 1
 470 1760 l 1
 318 1760 l 1
 35 0 l 1
248 473 m 1
 397 1476 l 1
 399 1476 l 1
 561 473 l 1
 248 473 l 1
EndSplineSet
EndChar

StartChar: AE
Encoding: 198 198 2
Width: 1074
VWidth: 0
GlyphClass: 2
Flags: W
PickledData: "(dp1
S'com.fontlab.hintData'
p2
(dp3
S'vhints'
p4
((dp5
S'position'
p6
I551
sS'width'
p7
I133
stp8
sS'hhints'
p9
((dp10
g6
I0
sg7
I118
s(dp11
g6
I370
sg7
I113
s(dp12
g6
I836
sg7
I120
s(dp13
g6
I1644
sg7
I116
stp14
ss."
HStem: 0 118<684 986 684 986 684 986> 370 113<288 288 288 551> 836 120<684 970 684 970> 1644 116<684 989 433 989>
VStem: 551 133<118 370 0 836 483 483 483 836 956 1644>
LayerCount: 2
Fore
SplineSet
43 0 m 1
 183 0 l 1
 259 370 l 1
 551 370 l 1
 551 0 l 1
 986 0 l 1
 986 118 l 1
 684 118 l 1
 684 836 l 1
 970 836 l 1
 970 956 l 1
 684 956 l 1
 684 1644 l 1
 989 1644 l 1
 989 1760 l 1
 433 1760 l 1
 43 0 l 1
288 483 m 1
 533 1645 l 1
 551 1646 l 1
 551 483 l 1
 288 483 l 1
EndSplineSet
EndChar

StartChar: B
Encoding: 66 66 12
Width: 868
VWidth: 0
GlyphClass: 2
Flags: W
PickledData: "(dp1
S'com.fontlab.hintData'
p2
(dp3
S'vhints'
p4
((dp5
S'position'
p6
I166
sS'width'
p7
I149
s(dp8
g6
I602
sg7
I149
s(dp9
g6
I626
sg7
I149
stp10
sS'hhints'
p11
((dp12
g6
I0
sg7
I128
s(dp13
g6
I884
sg7
I120
s(dp14
g6
I1629
sg7
I131
stp15
ss."
HStem: 0 128<315 315 315 468 468 473> 884 120<315 449> 1629 131<315 423 166 427 166 490>
VStem: 166 149<0 884 128 884 1004 1629> 602 149<1346.63 1349> 626 149<533.357 536>
LayerCount: 2
Fore
SplineSet
166 0 m 1
 468 0 l 2
 712 0 770 152 775 487 c 1
 775 518 l 2
 775 712 751 892 638 947 c 1
 736 1011 751 1136 751 1343 c 2
 751 1366 l 1
 748 1647 697 1760 423 1760 c 2
 166 1760 l 1
 166 0 l 1
315 128 m 1
 315 884 l 1
 476 884 l 2
 599 884 625 785 626 536 c 0
 626 530.714068927 625.992723961 525.491735823 625.977853369 520.332337117 c 0
 625.0868607 211.19963471 596.931592189 128 473 128 c 2
 315 128 l 1
315 1004 m 1
 315 1629 l 1
 427 1629 l 2
 553 1629 600 1597 602 1349 c 0
 602 1344.26175111 601.994867169 1339.58830421 601.984348167 1334.9787773 c 0
 601.275581066 1024.39027378 576.113474978 1004 449 1004 c 2
 315 1004 l 1
EndSplineSet
EndChar

StartChar: C
Encoding: 67 67 13
Width: 868
VWidth: 0
GlyphClass: 2
Flags: W
PickledData: "(dp1
S'com.fontlab.hintData'
p2
(dp3
S'vhints'
p4
((dp5
S'position'
p6
I136
sS'width'
p7
I149
s(dp8
g6
I600
sg7
I151
stp9
sS'hhints'
p10
((dp11
g6
I-20
sg7
I122
s(dp12
g6
I1658
sg7
I124
stp13
ss."
HStem: -20 122<348.264 543.687> 1658 125<355.726 542.738>
VStem: 136 149<174.74 552 1251 1571.53> 600 151<166.106 552 1239 1597.27>
AnchorPoint: "cedilla" 407 0 basechar 0
LayerCount: 2
UndoRedoHistory
Layer: 1
Undoes
EndUndoes
Redoes
EndRedoes
EndUndoRedoHistory
Fore
SplineSet
448 -20 m 0
 704 -20 750 183 750 552 c 2
 750 692 l 1
 600 692 l 1
 600 551 l 2
 600 228 577 102 447 102 c 0
 311 102 285 227 285 552 c 2
 285 1258 l 2
 285 1520 320 1658 453 1658 c 0
 582 1658 600 1518 600 1257 c 2
 600 1087 l 1
 751 1087 l 1
 751 1239 l 2
 751 1545 739 1783 454 1783 c 0
 174 1783 136 1550 136 1251 c 2
 136 550 l 2
 136 180 190 -20 448 -20 c 0
EndSplineSet
EndChar

StartChar: D
Encoding: 68 68 19
Width: 914
VWidth: 0
GlyphClass: 2
Flags: W
PickledData: "(dp1
S'com.fontlab.hintData'
p2
(dp3
S'vhints'
p4
((dp5
S'position'
p6
I166
sS'width'
p7
I148
s(dp8
g6
I629
sg7
I149
stp9
sS'hhints'
p10
((dp11
g6
I0
sg7
I128
s(dp12
g6
I1636
sg7
I124
stp13
ss."
HStem: 0 128<314 314 314 431 431 437 314 558.5> 1636 124<314 437 166 446 166 508>
VStem: 166 148<0 1636 128 1636 128 1760> 629 149<504 519 519 1258 1258 1274>
LayerCount: 2
Fore
SplineSet
314 128 m 1
 314 1636 l 1
 446 1636 l 2
 570 1636 629 1534 629 1274 c 2
 629 519 l 2
 629 194 566 128 437 128 c 2
 314 128 l 1
166 0 m 1
 431 0 l 2
 686 0 778 138 778 504 c 2
 778 1258 l 2
 778 1564 722 1760 437 1760 c 2
 166 1760 l 1
 166 0 l 1
EndSplineSet
EndChar

StartChar: Delta
Encoding: 916 916 22
Width: 868
VWidth: 0
GlyphClass: 2
Flags: W
PickledData: "(dp1
S'com.fontlab.hintData'
p2
(dp3
S'hhints'
p4
((dp5
S'position'
p6
I0
sS'width'
p7
I123
s(dp8
g6
I1740
sg7
I20
stp9
ss."
HStem: 0 123<219 219 219 644> 1740 20<343 495 343 343>
LayerCount: 2
Fore
SplineSet
219 123 m 1
 422 1476 l 1
 424 1476 l 1
 644 123 l 1
 219 123 l 1
60 0 m 1
 808 0 l 1
 495 1760 l 1
 343 1760 l 1
 60 0 l 1
EndSplineSet
EndChar

StartChar: E
Encoding: 69 69 23
Width: 716
VWidth: 0
GlyphClass: 2
Flags: W
PickledData: "(dp1
S'com.fontlab.hintData'
p2
(dp3
S'vhints'
p4
((dp5
S'position'
p6
I166
sS'width'
p7
I149
stp8
sS'hhints'
p9
((dp10
g6
I0
sg7
I118
s(dp11
g6
I835
sg7
I121
s(dp12
g6
I1644
sg7
I116
stp13
ss."
HStem: 0 118<315 628 315 628 315 628> 835 121<315 612 315 612> 1644 116<315 631 166 631>
VStem: 166 149<0 835 118 835 956 1644>
AnchorPoint: "ogonek" 461 0 basechar 0
LayerCount: 2
Fore
SplineSet
166 0 m 1
 628 0 l 1
 628 118 l 1
 315 118 l 1
 315 835 l 1
 612 835 l 1
 612 956 l 1
 315 956 l 1
 315 1644 l 1
 631 1644 l 1
 631 1760 l 1
 166 1760 l 1
 166 0 l 1
EndSplineSet
EndChar

StartChar: Euro
Encoding: 8364 8364 34
Width: 830
VWidth: 0
GlyphClass: 2
Flags: W
PickledData: "(dp1
S'com.fontlab.hintData'
p2
(dp3
S'vhints'
p4
((dp5
S'position'
p6
I98
sS'width'
p7
I149
s(dp8
g6
I143
sg7
I70
s(dp9
g6
I562
sg7
I151
stp10
sS'hhints'
p11
((dp12
g6
I-20
sg7
I122
s(dp13
g6
I751
sg7
I98
s(dp14
g6
I986
sg7
I90
s(dp15
g6
I1658
sg7
I124
stp16
ss."
HStem: -20 122 751 98<10 143 213 437> 986 90<10 143 143 143 213 437 10 437> 1658 124
VStem: 98 149 143 70<849 986 849 986> 562 151
LayerCount: 2
Fore
SplineSet
10 751 m 1
 437 751 l 1
 437 849 l 1
 213 849 l 1
 213 986 l 1
 437 986 l 1
 437 1076 l 1
 10 1076 l 1
 10 986 l 1
 143 986 l 1
 143 849 l 1
 10 849 l 1
 10 751 l 1
EndSplineSet
Refer: 13 67 N 1 0 0 1 -38 0 2
EndChar

StartChar: F
Encoding: 70 70 35
Width: 695
VWidth: 0
GlyphClass: 2
Flags: W
PickledData: "(dp1
S'com.fontlab.hintData'
p2
(dp3
S'vhints'
p4
((dp5
S'position'
p6
I166
sS'width'
p7
I148
stp8
sS'hhints'
p9
((dp10
g6
I0
sg7
I21
s(dp11
g6
I886
sg7
I119
s(dp12
g6
I1644
sg7
I116
stp13
ss."
HStem: 0 21<166 314 314 314> 886 119<314 611 314 611> 1644 116<314 628 166 628>
VStem: 166 148<0 886 0 886 1005 1644>
LayerCount: 2
Fore
SplineSet
166 0 m 1
 314 0 l 1
 314 886 l 1
 611 886 l 1
 611 1005 l 1
 314 1005 l 1
 314 1644 l 1
 628 1644 l 1
 628 1760 l 1
 166 1760 l 1
 166 0 l 1
EndSplineSet
EndChar

StartChar: G
Encoding: 71 71 36
Width: 890
VWidth: 0
GlyphClass: 2
Flags: W
PickledData: "(dp1
S'com.fontlab.hintData'
p2
(dp3
S'vhints'
p4
((dp5
S'position'
p6
I136
sS'width'
p7
I149
s(dp8
g6
I601
sg7
I148
s(dp9
g6
I651
sg7
I98
stp10
sS'hhints'
p11
((dp12
g6
I-20
sg7
I122
s(dp13
g6
I0
sg7
I21
s(dp14
g6
I763
sg7
I127
s(dp15
g6
I1658
sg7
I124
stp16
ss."
HStem: -20 122<348.046 540.569> 1658 125<348.638 549.32>
VStem: 136 149<174.099 543 1245 1578.79> 601 148<173.239 763 1247 1599.39> 651 98<0 91.392>
LayerCount: 2
UndoRedoHistory
Layer: 1
Undoes
EndUndoes
Redoes
EndRedoes
EndUndoRedoHistory
Fore
SplineSet
419 -20 m 0xf0
 528 -20 588 23 635 102 c 1
 651 0 l 1
 749 0 l 1
 749 890 l 1xe8
 450 890 l 1
 450 763 l 1
 601 763 l 1
 601 541 l 2xf0
 601 226 572 102 445 102 c 0
 312 102 285 225 285 543 c 2
 285 1261 l 2
 285 1551 325 1658 451 1658 c 0
 573 1658 597 1555 597 1372 c 2
 597 1100 l 1
 749 1100 l 1xe8
 749 1247 l 2
 749 1547 732 1783 456 1783 c 0
 174 1783 136 1546 136 1245 c 2
 136 532 l 2
 136 139 223 -20 419 -20 c 0xf0
EndSplineSet
EndChar

StartChar: H
Encoding: 72 72 41
Width: 952
VWidth: 0
GlyphClass: 2
Flags: W
PickledData: "(dp1
S'com.fontlab.hintData'
p2
(dp3
S'vhints'
p4
((dp5
S'position'
p6
I166
sS'width'
p7
I149
s(dp8
g6
I637
sg7
I149
stp9
sS'hhints'
p10
((dp11
g6
I0
sg7
I21
s(dp12
g6
I886
sg7
I112
s(dp13
g6
I1740
sg7
I20
stp14
ss."
HStem: 0 21<166 315 315 315 637 786 786 786> 886 112<315 637 315 637> 1740 20<166 315 166 166 637 786 637 637>
VStem: 166 149<0 886 0 886 998 1760> 637 149<0 886 0 1760 998 998 998 1760>
LayerCount: 2
Fore
SplineSet
166 0 m 1
 315 0 l 1
 315 886 l 1
 637 886 l 1
 637 0 l 1
 786 0 l 1
 786 1760 l 1
 637 1760 l 1
 637 998 l 1
 315 998 l 1
 315 1760 l 1
 166 1760 l 1
 166 0 l 1
EndSplineSet
EndChar

StartChar: Hbar
Encoding: 294 294 42
Width: 932
VWidth: 0
GlyphClass: 2
Flags: W
PickledData: "(dp1
S'com.fontlab.hintData'
p2
(dp3
S'vhints'
p4
((dp5
S'position'
p6
I166
sS'width'
p7
I149
s(dp8
g6
I637
sg7
I149
stp9
sS'hhints'
p10
((dp11
g6
I0
sg7
I21
s(dp12
g6
I886
sg7
I112
s(dp13
g6
I1416
sg7
I82
s(dp14
g6
I1740
sg7
I20
stp15
ss."
HStem: 0 21<166 315 315 315 637 786 786 786> 886 112<315 637 315 637> 1740 20<166 315 166 166 637 786 637 637>
VStem: 166 149<0 886 0 886 998 1760> 637 149<0 886 0 1760 998 998 998 1760>
LayerCount: 2
UndoRedoHistory
Layer: 1
Undoes
EndUndoes
Redoes
EndRedoes
EndUndoRedoHistory
Fore
SplineSet
55 1416 m 1
 900 1416 l 1
 900 1500 l 1
 55 1500 l 1
 55 1416 l 1
EndSplineSet
Refer: 41 72 N 1 0 0 1 0 0 2
EndChar

StartChar: I
Encoding: 73 73 44
Width: 485
VWidth: 0
GlyphClass: 2
Flags: W
PickledData: "(dp1
S'com.fontlab.hintData'
p2
(dp3
S'vhints'
p4
((dp5
S'position'
p6
I168
sS'width'
p7
I149
stp8
sS'hhints'
p9
((dp10
g6
I0
sg7
I21
s(dp11
g6
I1740
sg7
I20
stp12
ss."
HStem: 0 21<168 317 317 317> 1740 20<168 317 168 168>
VStem: 168 149<0 1760 0 1760>
AnchorPoint: "ogonek" 248 0 basechar 0
LayerCount: 2
Fore
SplineSet
168 0 m 1
 317 0 l 1
 317 1760 l 1
 168 1760 l 1
 168 0 l 1
EndSplineSet
EndChar

StartChar: J
Encoding: 74 74 55
Width: 784
VWidth: 0
GlyphClass: 2
Flags: W
PickledData: "(dp1
S'com.fontlab.hintData'
p2
(dp3
S'vhints'
p4
((dp5
S'position'
p6
I78
sS'width'
p7
I151
s(dp8
g6
I481
sg7
I149
stp9
sS'hhints'
p10
((dp11
g6
I-20
sg7
I122
s(dp12
g6
I1740
sg7
I20
stp13
ss."
HStem: -20 122<290 421 290 458.5> 1740 20<481 630 481 481>
VStem: 78 151<250.5 540 402 540 402 540> 481 149<326 1760 420 1760 420 1760>
AnchorPoint: "circumflexcomb" 556 1800 basechar 0
LayerCount: 2
Fore
SplineSet
361 -20 m 0
 556 -20 630 118 630 420 c 2
 630 1760 l 1
 481 1760 l 1
 481 418 l 2
 481 234 487 102 355 102 c 0
 225 102 229 241 229 402 c 2
 229 540 l 1
 78 540 l 1
 78 389 l 2
 78 112 144 -20 361 -20 c 0
EndSplineSet
EndChar

StartChar: K
Encoding: 75 75 57
Width: 854
VWidth: 0
GlyphClass: 2
Flags: W
PickledData: "(dp1
S'com.fontlab.hintData'
p2
(dp3
S'vhints'
p4
((dp5
S'position'
p6
I166
sS'width'
p7
I149
stp8
sS'hhints'
p9
((dp10
g6
I0
sg7
I21
s(dp11
g6
I1740
sg7
I20
stp12
ss."
HStem: 0 21<166 317 317 317 683 837 837 837> 1740 20<166 315 166 166 670 814 670 670>
VStem: 166 149<893 1760 893 1760>
LayerCount: 2
Fore
SplineSet
166 0 m 1
 317 0 l 1
 317 860 l 1
 683 0 l 1
 837 0 l 1
 452 891 l 1
 814 1760 l 1
 670 1760 l 1
 315 893 l 1
 315 1760 l 1
 166 1760 l 1
 166 0 l 1
EndSplineSet
EndChar

StartChar: L
Encoding: 76 76 59
Width: 643
VWidth: 0
GlyphClass: 2
Flags: W
PickledData: "(dp1
S'com.fontlab.hintData'
p2
(dp3
S'vhints'
p4
((dp5
S'position'
p6
I166
sS'width'
p7
I149
stp8
sS'hhints'
p9
((dp10
g6
I0
sg7
I118
s(dp11
g6
I1740
sg7
I20
stp12
ss."
HStem: 0 118<315 627 315 627 315 627> 1740 20<166 315 166 166>
VStem: 166 149<0 1760 118 1760 118 1760>
LayerCount: 2
Fore
SplineSet
166 0 m 1
 627 0 l 1
 627 118 l 1
 315 118 l 1
 315 1760 l 1
 166 1760 l 1
 166 0 l 1
EndSplineSet
EndChar

StartChar: Lslash
Encoding: 321 321 64
Width: 705
VWidth: 0
GlyphClass: 2
Flags: W
PickledData: "(dp1
S'com.fontlab.hintData'
p2
(dp3
S'vhints'
p4
((dp5
S'position'
p6
I166
sS'width'
p7
I149
stp8
sS'hhints'
p9
((dp10
g6
I0
sg7
I118
s(dp11
g6
I1740
sg7
I20
stp12
ss."
HStem: 0 118 1740 20
VStem: 166 149
LayerCount: 2
Fore
SplineSet
-1 794 m 1
 497 1011 l 1
 497 1133 l 1
 -1 916 l 1
 -1 794 l 1
EndSplineSet
Refer: 59 76 N 1 0 0 1 0 0 2
EndChar

StartChar: M
Encoding: 77 77 65
Width: 1204
VWidth: 0
GlyphClass: 2
Flags: W
PickledData: "(dp1
S'com.fontlab.hintData'
p2
(dp3
S'vhints'
p4
((dp5
S'position'
p6
I166
sS'width'
p7
I136
s(dp8
g6
I166
sg7
I113
s(dp9
g6
I909
sg7
I135
s(dp10
g6
I932
sg7
I112
stp11
sS'hhints'
p12
((dp13
g6
I0
sg7
I21
s(dp14
g6
I1740
sg7
I20
stp15
ss."
HStem: 0 21<166 302 302 302 909 1044 1044 1044> 1740 20<166 333 166 166 877 1044 877 877>
VStem: 166 136<0 754 0 754 0 1760> 166 113<1463 1463 1463 1760> 909 135<0 754 0 1760> 932 112<1463 1463>
LayerCount: 2
Fore
SplineSet
166 0 m 1
 302 0 l 1
 302 754 l 1
 279 1463 l 1
 539 38 l 1
 681 38 l 1
 932 1463 l 1
 909 754 l 1
 909 0 l 1
 1044 0 l 1
 1044 1760 l 1
 877 1760 l 1
 610 282 l 1
 333 1760 l 1
 166 1760 l 1
 166 0 l 1
EndSplineSet
EndChar

StartChar: N
Encoding: 78 78 66
Width: 983
VWidth: 0
GlyphClass: 2
Flags: W
PickledData: "(dp1
S'com.fontlab.hintData'
p2
(dp3
S'vhints'
p4
((dp5
S'position'
p6
I166
sS'width'
p7
I140
s(dp8
g6
I687
sg7
I130
s(dp9
g6
I702
sg7
I115
stp10
sS'hhints'
p11
((dp12
g6
I0
sg7
I21
s(dp13
g6
I1740
sg7
I20
stp14
ss."
HStem: 0 21<166 306 306 306 701 817 817 817> 1740 20<166 270 166 166 687 817 687 687>
VStem: 166 140<0 850 0 850 0 1760> 687 130<1005 1760 1005 1005> 702 115<399 399>
LayerCount: 2
Fore
SplineSet
166 0 m 1
 306 0 l 1
 306 850 l 1
 296 1326 l 1
 701 0 l 1
 817 0 l 1
 817 1760 l 1
 687 1760 l 1
 687 1005 l 1
 702 399 l 1
 270 1760 l 1
 166 1760 l 1
 166 0 l 1
EndSplineSet
EndChar

StartChar: O
Encoding: 79 79 71
Width: 891
VWidth: 0
GlyphClass: 2
Flags: W
PickledData: "(dp1
S'com.fontlab.hintData'
p2
(dp3
S'vhints'
p4
((dp5
S'position'
p6
I136
sS'width'
p7
I149
s(dp8
g6
I606
sg7
I149
stp9
sS'hhints'
p10
((dp11
g6
I-20
sg7
I122
s(dp12
g6
I1658
sg7
I124
stp13
ss."
HStem: -20 122<340.961 546.745> 1658 125<348.675 549.918>
VStem: 136 149<166.295 519 1268 1584.11> 606 149<166.295 519 1268 1599.44>
AnchorPoint: "ogonek" 451 0 basechar 0
LayerCount: 2
UndoRedoHistory
Layer: 1
Undoes
EndUndoes
Redoes
EndRedoes
EndUndoRedoHistory
Fore
SplineSet
447 102 m 0
 314 102 285 196 285 519 c 2
 285 1281 l 2
 285 1543 320 1658 454 1658 c 0
 581 1658 606 1545 606 1280 c 2
 606 519 l 2
 606 196 575 102 447 102 c 0
447 -20 m 0
 702 -20 755 151 755 519 c 2
 755 1268 l 2
 755 1571 736 1783 454 1783 c 0
 172 1783 136 1571 136 1268 c 2
 136 519 l 2
 136 151 192 -20 447 -20 c 0
EndSplineSet
EndChar

StartChar: OE
Encoding: 338 338 72
Width: 1168
VWidth: 0
GlyphClass: 2
Flags: W
PickledData: "(dp1
S'com.fontlab.hintData'
p2
(dp3
S'vhints'
p4
((dp5
S'position'
p6
I134
sS'width'
p7
I149
s(dp8
g6
I606
sg7
I149
stp9
sS'hhints'
p10
((dp11
g6
I0
sg7
I118
s(dp12
g6
I836
sg7
I120
s(dp13
g6
I1644
sg7
I116
stp14
ss."
HStem: 0 118<755 1080 755 1080 755 1080> 836 120<755 1063 755 1063> 1644 116<755 1082>
VStem: 134 149<518 519 519 1269> 606 149<126 836 956 1634 126 126>
LayerCount: 2
Fore
SplineSet
446 0 m 2
 1080 0 l 1
 1080 118 l 1
 755 118 l 1
 755 836 l 1
 1063 836 l 1
 1063 956 l 1
 755 956 l 1
 755 1644 l 1
 1082 1644 l 1
 1082 1760 l 1
 453 1760 l 2
 171 1760 134 1572 134 1269 c 2
 134 519 l 2
 134 151 191 0 446 0 c 2
446 126 m 1
 312 127 283 195 283 518 c 2
 283 1282 l 2
 283 1544 319 1634 453 1634 c 2
 606 1634 l 1
 606 126 l 1
 446 126 l 1
EndSplineSet
EndChar

StartChar: Oslash
Encoding: 216 216 80
Width: 891
VWidth: 0
GlyphClass: 2
Flags: W
PickledData: "(dp1
S'com.fontlab.hintData'
p2
(dp3
S'vhints'
p4
((dp5
S'position'
p6
I136
sS'width'
p7
I149
s(dp8
g6
I606
sg7
I149
stp9
sS'hhints'
p10
((dp11
g6
I-20
sg7
I122
s(dp12
g6
I1658
sg7
I124
stp13
ss."
HStem: -20 122 1658 124
VStem: 136 149 606 149
LayerCount: 2
Fore
SplineSet
256 -225 m 1
 733 1941 l 1
 666 1956 l 1
 197 -206 l 1
 256 -225 l 1
EndSplineSet
Refer: 71 79 N 1 0 0 1 0 0 2
EndChar

StartChar: P
Encoding: 80 80 82
Width: 847
VWidth: 0
GlyphClass: 2
Flags: W
PickledData: "(dp1
S'com.fontlab.hintData'
p2
(dp3
S'vhints'
p4
((dp5
S'position'
p6
I166
sS'width'
p7
I149
s(dp8
g6
I628
sg7
I149
stp9
sS'hhints'
p10
((dp11
g6
I0
sg7
I21
s(dp12
g6
I689
sg7
I126
s(dp13
g6
I1636
sg7
I124
stp14
ss."
HStem: 0 21<166 315 315 315> 689 126<315 463 463 473> 1636 124<315 472 166 480 166 542>
VStem: 166 149<0 689 0 689 815 1636> 628 149<1072 1249 1231 1249 1231 1263>
LayerCount: 2
Fore
SplineSet
166 0 m 1
 315 0 l 1
 315 689 l 1
 463 689 l 2
 718 689 777 863 777 1231 c 2
 777 1249 l 1
 778 1548 755 1760 472 1760 c 2
 166 1760 l 1
 166 0 l 1
315 815 m 1
 315 1636 l 1
 480 1636 l 2
 604 1636 629 1520 628 1263 c 1
 628 1229 l 2
 628 915 597 815 473 815 c 2
 315 815 l 1
EndSplineSet
EndChar

StartChar: Q
Encoding: 81 81 83
Width: 891
VWidth: 0
GlyphClass: 2
Flags: W
PickledData: "(dp1
S'com.fontlab.hintData'
p2
(dp3
S'vhints'
p4
((dp5
S'position'
p6
I136
sS'width'
p7
I149
s(dp8
g6
I606
sg7
I149
stp9
sS'hhints'
p10
((dp11
g6
I-20
sg7
I122
s(dp12
g6
I1658
sg7
I124
stp13
ss."
HStem: -20 122 1658 124
VStem: 136 149 606 149
LayerCount: 2
Fore
SplineSet
622 -389 m 1
 720 -337 l 1
 518 27 l 1
 409 -17 l 1
 622 -389 l 1
EndSplineSet
Refer: 71 79 N 1 0 0 1 0 0 2
EndChar

StartChar: R
Encoding: 82 82 84
Width: 899
VWidth: 0
GlyphClass: 2
Flags: W
PickledData: "(dp1
S'com.fontlab.hintData'
p2
(dp3
S'vhints'
p4
((dp5
S'position'
p6
I166
sS'width'
p7
I149
s(dp8
g6
I629
sg7
I149
stp9
sS'hhints'
p10
((dp11
g6
I0
sg7
I21
s(dp12
g6
I868
sg7
I100
s(dp13
g6
I1636
sg7
I124
stp14
ss."
HStem: 0 21<166 315 315 315 651 799 799 799> 868 100<315 315> 1636 124<314 465 166 481 166 542>
VStem: 166 149<0 868 0 868 0 1760> 629 149<1213 1322 1322 1335>
LayerCount: 2
Fore
SplineSet
166 0 m 1
 315 0 l 1
 315 868 l 1
 473 858 l 1
 633 858 629 798 629 557 c 0
 629 82 630 41 651 0 c 1
 799 0 l 1
 777 58 777 84 777 164 c 0
 777 764 752 903 616 925 c 1
 739 959 778 1100 778 1326 c 0
 778 1630 748 1760 465 1760 c 2
 166 1760 l 1
 166 0 l 1
314 968 m 1
 314 1636 l 1
 481 1636 l 2
 603 1636 629 1594 629 1335 c 2
 629 1322 l 2
 629 1006 598 968 470 968 c 2
 314 968 l 1
EndSplineSet
EndChar

StartChar: S
Encoding: 83 83 88
Width: 794
VWidth: 0
GlyphClass: 2
Flags: W
PickledData: "(dp1
S'com.fontlab.hintData'
p2
(dp3
S'vhints'
p4
((dp5
S'position'
p6
I105
sS'width'
p7
I146
s(dp8
g6
I562
sg7
I133
s(dp9
g6
I572
sg7
I152
stp10
sS'hhints'
p11
((dp12
g6
I-20
sg7
I122
s(dp13
g6
I1658
sg7
I124
stp14
ss."
HStem: -20 122<316.524 529.104> 1658 125<289.379 507.481>
VStem: 105 146<177.971 526 1169.67 1622.1> 562 133<1242 1597.6> 572 152<145.388 691.453>
AnchorPoint: "cedilla" 401 0 basechar 0
LayerCount: 2
UndoRedoHistory
Layer: 1
Undoes
EndUndoes
Redoes
EndRedoes
EndUndoRedoHistory
Fore
SplineSet
411 -20 m 0xe8
 676 -20 724 167 724 436 c 0xe8
 724 668 644 815 511 946 c 2
 414 1042 l 2
 297 1157 240 1202 240 1371 c 0
 240 1606 287 1658 404 1658 c 0
 525 1658 562 1576 562 1253 c 2
 562 1143 l 1
 695 1143 l 1
 695 1242 l 2xf0
 695 1545 691 1783 402 1783 c 0
 136 1783 91 1599 91 1346 c 0
 91 1144 219 1018 315 930 c 2
 419 834 l 2
 533 729 572 633 572 452 c 0
 572 204 565 102 420 102 c 0
 281 102 251 224 251 526 c 2
 251 705 l 1
 105 705 l 1
 105 523 l 2
 105 224 131 -20 411 -20 c 0xe8
EndSplineSet
EndChar

StartChar: T
Encoding: 84 84 94
Width: 542
VWidth: 0
GlyphClass: 2
Flags: W
PickledData: "(dp1
S'com.fontlab.hintData'
p2
(dp3
S'vhints'
p4
((dp5
S'position'
p6
I207
sS'width'
p7
I148
stp8
sS'hhints'
p9
((dp10
g6
I0
sg7
I21
s(dp11
g6
I1644
sg7
I116
stp12
ss."
HStem: 0 21<207 355 355 355> 1644 116<23 207 207 207 355 520 23 520>
VStem: 207 148<0 1644 0 1644>
AnchorPoint: "cedilla" 264 0 basechar 0
LayerCount: 2
Fore
SplineSet
207 0 m 1
 355 0 l 1
 355 1644 l 1
 520 1644 l 1
 520 1760 l 1
 23 1760 l 1
 23 1644 l 1
 207 1644 l 1
 207 0 l 1
EndSplineSet
EndChar

StartChar: Thorn
Encoding: 222 222 96
Width: 865
VWidth: 0
GlyphClass: 2
Flags: W
PickledData: "(dp1
S'com.fontlab.hintData'
p2
(dp3
S'vhints'
p4
((dp5
S'position'
p6
I166
sS'width'
p7
I149
s(dp8
g6
I629
sg7
I148
stp9
sS'hhints'
p10
((dp11
g6
I0
sg7
I21
s(dp12
g6
I468
sg7
I126
s(dp13
g6
I1411
sg7
I124
s(dp14
g6
I1740
sg7
I20
stp15
ss."
HStem: 0 21<166 315 315 315> 468 126<315 463 463 474> 1411 124<315 472 315 480 315 542> 1740 20<166 315 166 166>
VStem: 166 149<0 468 0 468 594 1411 1535 1760> 629 148<848.5 1027 1007 1027 1007 1042>
LayerCount: 2
Fore
SplineSet
166 0 m 1
 315 0 l 1
 315 468 l 1
 463 468 l 2
 718 468 777 640 777 1007 c 2
 777 1027 l 1
 778 1325 754 1535 472 1535 c 2
 315 1535 l 1
 315 1760 l 1
 166 1760 l 1
 166 0 l 1
315 594 m 1
 315 1411 l 1
 480 1411 l 2
 604 1411 629 1298 629 1042 c 2
 629 1006 l 2
 629 691 598 594 474 594 c 2
 315 594 l 1
EndSplineSet
EndChar

StartChar: U
Encoding: 85 85 97
Width: 915
VWidth: 0
GlyphClass: 2
Flags: W
PickledData: "(dp1
S'com.fontlab.hintData'
p2
(dp3
S'vhints'
p4
((dp5
S'position'
p6
I148
sS'width'
p7
I149
s(dp8
g6
I618
sg7
I149
stp9
sS'hhints'
p10
((dp11
g6
I-20
sg7
I122
s(dp12
g6
I1740
sg7
I20
stp13
ss."
HStem: -20 122<381.5 539 381.5 583.5> 1740 20<148 297 148 148 618 767 618 618>
VStem: 148 149<292 1760 457 1760 457 1760> 618 149<452 456 456 1760>
AnchorPoint: "ogonek" 471 0 basechar 0
LayerCount: 2
Fore
SplineSet
459 -20 m 0
 708 -20 767 132 767 452 c 2
 767 1760 l 1
 618 1760 l 1
 618 456 l 2
 618 227 618 102 460 102 c 0
 303 102 297 228 297 457 c 2
 297 1760 l 1
 148 1760 l 1
 148 452 l 2
 148 132 210 -20 459 -20 c 0
EndSplineSet
EndChar

StartChar: V
Encoding: 86 86 108
Width: 846
VWidth: 0
GlyphClass: 2
Flags: W
PickledData: "(dp1
S'com.fontlab.hintData'
p2
(dp3
S'hhints'
p4
((dp5
S'position'
p6
I0
sS'width'
p7
I21
s(dp8
g6
I1740
sg7
I20
stp9
ss."
HStem: 0 21<360 515 515 515> 1740 20<47 190 47 47 656 799 656 656>
LayerCount: 2
Fore
SplineSet
360 0 m 1
 515 0 l 1
 799 1760 l 1
 656 1760 l 1
 549 1062 l 1
 437 318 l 1
 436 318 l 1
 310 1062 l 1
 190 1760 l 1
 47 1760 l 1
 360 0 l 1
EndSplineSet
EndChar

StartChar: W
Encoding: 87 87 109
Width: 1312
VWidth: 0
GlyphClass: 2
Flags: W
PickledData: "(dp1
S'com.fontlab.hintData'
p2
(dp3
S'vhints'
p4
((dp5
S'position'
p6
I1114
sS'width'
p7
I141
stp8
sS'hhints'
p9
((dp10
g6
I0
sg7
I21
s(dp11
g6
I1740
sg7
I20
stp12
ss."
HStem: 0 21<306 443 443 443 895 1042 1042 1042> 1740 20<57 203 57 57 607 731 607 607 1114 1255 1114 1114>
VStem: 1114 141<1760 1760>
LayerCount: 2
Fore
SplineSet
306 0 m 1
 443 0 l 1
 677 1448 l 1
 895 0 l 1
 1042 0 l 1
 1255 1760 l 1
 1114 1760 l 1
 966 322 l 1
 731 1760 l 1
 607 1760 l 1
 387 322 l 1
 203 1760 l 1
 57 1760 l 1
 306 0 l 1
EndSplineSet
EndChar

StartChar: X
Encoding: 88 88 114
Width: 710
VWidth: 0
GlyphClass: 2
Flags: W
PickledData: "(dp1
S'com.fontlab.hintData'
p2
(dp3
S'vhints'
p4
((dp5
S'position'
p6
I52
sS'width'
p7
I604
stp8
sS'hhints'
p9
((dp10
g6
I0
sg7
I21
s(dp11
g6
I1740
sg7
I20
stp12
ss."
HStem: 0 21<52 176 176 176 523 656 656 656> 1740 20<67 204 67 67 535 659 535 535>
VStem: 52 604<0 0>
LayerCount: 2
Fore
SplineSet
52 0 m 1
 176 0 l 1
 347 680 l 1
 523 0 l 1
 656 0 l 1
 437 853 l 1
 659 1760 l 1
 535 1760 l 1
 373 1101 l 1
 204 1760 l 1
 67 1760 l 1
 285 919 l 1
 52 0 l 1
EndSplineSet
EndChar

StartChar: Y
Encoding: 89 89 115
Width: 786
VWidth: 0
GlyphClass: 2
Flags: W
PickledData: "(dp1
S'com.fontlab.hintData'
p2
(dp3
S'vhints'
p4
((dp5
S'position'
p6
I334
sS'width'
p7
I149
s(dp8
g6
I616
sg7
I154
stp9
sS'hhints'
p10
((dp11
g6
I0
sg7
I21
s(dp12
g6
I1740
sg7
I20
stp13
ss."
HStem: 0 21<334 483 483 483> 1740 20<16 166 16 16 616 770 616 616>
VStem: 334 149<0 773 0 772> 616 154<1760 1760>
LayerCount: 2
Fore
SplineSet
334 0 m 1
 483 0 l 1
 483 773 l 1
 770 1760 l 1
 616 1760 l 1
 410 982 l 1
 407 982 l 1
 166 1760 l 1
 16 1760 l 1
 334 772 l 1
 334 0 l 1
EndSplineSet
EndChar

StartChar: Z
Encoding: 90 90 120
Width: 638
VWidth: 0
GlyphClass: 2
Flags: W
PickledData: "(dp1
S'com.fontlab.hintData'
p2
(dp3
S'vhints'
p4
((dp5
S'position'
p6
I85
sS'width'
p7
I491
stp8
sS'hhints'
p9
((dp10
g6
I0
sg7
I118
s(dp11
g6
I1644
sg7
I116
stp12
ss."
HStem: 0 118<235 570 235 570 235 570> 1644 116<94 424 424 424>
VStem: 85 491
LayerCount: 2
Fore
SplineSet
85 0 m 1
 570 0 l 1
 570 118 l 1
 235 118 l 1
 576 1658 l 1
 576 1760 l 1
 94 1760 l 1
 94 1644 l 1
 424 1644 l 1
 85 125 l 1
 85 0 l 1
EndSplineSet
EndChar

StartChar: a
Encoding: 97 97 124
Width: 844
VWidth: 0
GlyphClass: 2
Flags: W
PickledData: "(dp1
S'com.fontlab.hintData'
p2
(dp3
S'vhints'
p4
((dp5
S'position'
p6
I127
sS'width'
p7
I148
s(dp8
g6
I145
sg7
I150
s(dp9
g6
I563
sg7
I149
stp10
sS'hhints'
p11
((dp12
g6
I-11
sg7
I124
s(dp13
g6
I1387
sg7
I131
stp14
ss."
HStem: -11 124<345 427.5> 1387 131<370.5 497>
VStem: 127 148<252 509 390 509 509 569> 145 150<1011 1048 1048 1051 1011 1048> 563 149<0 112 0 976 211 211 211 837 956 956 956 976 976 1058>
AnchorPoint: "ogonek" 621 0 basechar 0
LayerCount: 2
Fore
SplineSet
366 -11 m 0
 489 -11 551 75 563 112 c 1
 563 0 l 1
 712 0 l 1
 712 976 l 2
 712 1327 716 1518 433 1518 c 0
 154 1518 145 1292 145 1051 c 2
 145 1011 l 1
 295 1011 l 1
 295 1048 l 2
 295 1293 308 1387 433 1387 c 0
 561 1387 563 1288 563 1058 c 2
 563 956 l 1
 319 851 127 782 127 569 c 2
 127 377 l 2
 127 127 207 -11 366 -11 c 0
393 113 m 0
 297 113 275 190 275 390 c 2
 275 509 l 2
 275 702 314 725 563 837 c 1
 563 211 l 1
 540 170 471 113 393 113 c 0
EndSplineSet
EndChar

StartChar: acute
Encoding: 180 180 128
Width: 650
VWidth: 0
GlyphClass: 2
Flags: W
PickledData: "(dp1
S'com.fontlab.hintData'
p2
(dp3
S'vhints'
p4
((dp5
S'position'
p6
I186
sS'width'
p7
I226
stp8
sS'hhints'
p9
((dp10
g6
I1834
sg7
I398
stp11
ss."
HStem: 1834 398<186 412 254 412>
VStem: 186 226
LayerCount: 2
Fore
SplineSet
186 1834 m 1
 254 1834 l 1
 412 2232 l 1
 268 2232 l 1
 186 1834 l 1
EndSplineSet
EndChar

StartChar: ae
Encoding: 230 230 130
Width: 1236
VWidth: 0
GlyphClass: 2
Flags: W
PickledData: "(dp1
S'com.fontlab.hintData'
p2
(dp3
S'vhints'
p4
((dp5
S'position'
p6
I127
sS'width'
p7
I148
s(dp8
g6
I145
sg7
I150
s(dp9
g6
I566
sg7
I146
s(dp10
g6
I983
sg7
I149
stp11
sS'hhints'
p12
((dp13
g6
I-11
sg7
I123
s(dp14
g6
I754
sg7
I120
s(dp15
g6
I1388
sg7
I130
stp16
ss."
HStem: -11 123<345 401.5> 754 120<712 983> 1388 130<370 491 293.5 496.5>
VStem: 127 148<251.5 511 390 511 511 566> 145 150<1011 1047 1047 1051 1011 1047> 566 146<443 754 443 840 956 1063 1063 1065 956 956> 983 149<874 874 874 1002 1002 1068>
LayerCount: 2
Fore
SplineSet
851 -18 m 0
 1128 -18 1128 201 1128 505 c 2
 1128 556 l 1
 983 556 l 1
 983 439 l 2
 983 231 976 113 854 113 c 0
 721 113 712 220 712 443 c 2
 712 754 l 1
 1132 754 l 1
 1132 1002 l 2
 1132 1292 1129 1518 860 1518 c 0
 754 1518 684 1485 638 1427 c 1
 608 1487 549 1518 433 1518 c 0
 154 1518 145 1292 145 1051 c 2
 145 1011 l 1
 295 1011 l 1
 295 1047 l 2
 295 1291 307 1388 433 1388 c 0
 560 1388 566 1296 566 1065 c 2
 566 956 l 1
 323 849 126 781 127 566 c 1
 127 375 l 2
 127 128 198 -11 355 -11 c 0
 448 -11 562 58 609 103 c 1
 653 24 724 -18 851 -18 c 0
393 112 m 0
 297 112 275 189 275 390 c 2
 275 511 l 2
 275 702 318 727 566 840 c 1
 566 211 l 1
 543 170 471 112 393 112 c 0
712 874 m 1
 712 1063 l 2
 712 1257 730 1387 860 1387 c 0
 986 1387 983 1273 983 1068 c 2
 983 874 l 1
 712 874 l 1
EndSplineSet
EndChar

StartChar: ampersand
Encoding: 38 38 133
Width: 830
VWidth: 0
GlyphClass: 2
Flags: W
PickledData: "(dp1
S'com.fontlab.hintData'
p2
(dp3
S'vhints'
p4
((dp5
S'position'
p6
I72
sS'width'
p7
I128
s(dp8
g6
I166
sg7
I129
s(dp9
g6
I539
sg7
I123
stp10
sS'hhints'
p11
((dp12
g6
I-20
sg7
I125
s(dp13
g6
I0
sg7
I21
s(dp14
g6
I1667
sg7
I115
stp15
ss."
HStem: -20 125<251.53 445.036> 1667 116<330.171 514.03>
VStem: 72 128<160.359 584.318> 166 129<1238.02 1636.77> 539 123<1231.64 1643.48>
LayerCount: 2
UndoRedoHistory
Layer: 1
Undoes
EndUndoes
Redoes
EndRedoes
EndUndoRedoHistory
Fore
SplineSet
338 -20 m 0xe8
 502 -20 571 110 607 253 c 1
 710 0 l 1
 837 0 l 1
 682 368 l 1
 719 473 758 585 832 690 c 1
 771 797 l 1
 702 704 659 608 620 516 c 1
 448 925 l 1
 558 1080 662 1232 662 1434 c 0
 662 1654 624 1783 424 1783 c 0
 258 1783 166 1670 166 1443 c 0xd8
 166 1350 228 1172 311 959 c 1
 180 772 72 612 72 333 c 0
 72 76 188 -20 338 -20 c 0xe8
354 105 m 0
 245 105 200 204 200 334 c 0xe8
 200 493 267 700 365 826 c 1
 552 376 l 1
 493 220 456 105 354 105 c 0
399 1057 m 1
 341 1222 295 1365 295 1445 c 0xd8
 295 1519 287 1667 425 1667 c 0
 525 1667 539 1594 539 1456 c 0
 539 1291 477 1168 399 1057 c 1
EndSplineSet
EndChar

StartChar: approxequal
Encoding: 8776 8776 135
Width: 1117
VWidth: 0
GlyphClass: 2
Flags: W
PickledData: "(dp1
S'com.fontlab.hintData'
p2
(dp3
S'vhints'
p4
((dp5
S'position'
p6
I846
sS'width'
p7
I143
stp8
sS'hhints'
p9
((dp10
g6
I513
sg7
I129
s(dp11
g6
I593
sg7
I128
s(dp12
g6
I915
sg7
I129
s(dp13
g6
I995
sg7
I128
stp14
ss."
HStem: 513 129<716 746 714 822> 593 128<337.5 398 302 408> 915 129<716 746 714 822> 995 128<337.5 398 302 408>
VStem: 846 143<718 760>
LayerCount: 2
Fore
SplineSet
260 500 m 1
 286 560 320 593 355 593 c 0
 461 593 659 513 773 513 c 0
 871 513 942 531 989 718 c 1
 846 760 l 1
 825 689 792 647 746 642 c 1
 682 642 450 721 346 721 c 0
 258 721 184 658 132 535 c 1
 260 500 l 1
260 902 m 1
 286 962 320 995 355 995 c 0
 461 995 659 915 773 915 c 0
 871 915 942 933 989 1120 c 1
 846 1162 l 1
 825 1092 792 1050 746 1044 c 1
 682 1044 450 1123 346 1123 c 0
 258 1123 184 1061 132 937 c 1
 260 902 l 1
EndSplineSet
EndChar

StartChar: asciicircum
Encoding: 94 94 137
Width: 972
VWidth: 0
GlyphClass: 2
Flags: W
PickledData: "(dp1
S'com.fontlab.hintData'
p2
(dp3
S'hhints'
p4
((dp5
S'position'
p6
I1740
sS'width'
p7
I20
stp8
ss."
HStem: 1740 20<383 589 383 383>
LayerCount: 2
Fore
SplineSet
142 837 m 1
 293 837 l 1
 487 1648 l 1
 681 837 l 1
 830 837 l 1
 589 1760 l 1
 383 1760 l 1
 142 837 l 1
EndSplineSet
EndChar

StartChar: asciitilde
Encoding: 126 126 138
Width: 1049
VWidth: 0
GlyphClass: 2
Flags: W
PickledData: "(dp1
S'com.fontlab.hintData'
p2
(dp3
S'vhints'
p4
((dp5
S'position'
p6
I111
sS'width'
p7
I118
s(dp8
g6
I815
sg7
I123
stp9
sS'hhints'
p10
((dp11
g6
I853
sg7
I133
stp12
ss."
HStem: 853 133<708 763 708 811>
VStem: 111 118<840 875> 815 123<1123 1140>
LayerCount: 2
Fore
SplineSet
229 840 m 1
 245 921 264 974 317 970 c 0
 383 965 648 853 762 853 c 0
 860 853 921 926 938 1123 c 1
 815 1140 l 1
 804 1019 786 986 740 986 c 0
 676 986 399 1101 295 1101 c 0
 207 1101 142 1041 111 875 c 1
 229 840 l 1
EndSplineSet
EndChar

StartChar: asterisk
Encoding: 42 42 139
Width: 960
VWidth: 0
GlyphClass: 2
Flags: W
PickledData: "(dp1
S'com.fontlab.hintData'
p2
(dp3
S'vhints'
p4
((dp5
S'position'
p6
I141
sS'width'
p7
I678
stp8
sS'hhints'
p9
((dp10
g6
I1762
sg7
I20
stp11
ss."
HStem: 1513 22G<409.902 436.222 528.487 553.047>
LayerCount: 2
UndoRedoHistory
Layer: 1
Undoes
EndUndoes
Redoes
EndRedoes
EndUndoRedoHistory
Fore
SplineSet
414 1086 m 1
 547 1086 l 1
 527 1358 l 1
 751 1181 l 1
 819 1298 l 1
 569 1438 l 1
 819 1570 l 1
 751 1686 l 1
 527 1514 l 1
 547 1783 l 1
 414 1783 l 1
 438 1513 l 1
 209 1676 l 1
 141 1560 l 1
 391 1438 l 1
 149 1308 l 1
 216 1190 l 1
 438 1362 l 1
 414 1086 l 1
EndSplineSet
EndChar

StartChar: at
Encoding: 64 64 140
Width: 1340
VWidth: 0
GlyphClass: 2
Flags: W
PickledData: "(dp1
S'com.fontlab.hintData'
p2
(dp3
S'vhints'
p4
((dp5
S'position'
p6
I60
sS'width'
p7
I128
s(dp8
g6
I357
sg7
I120
s(dp9
g6
I856
sg7
I119
s(dp10
g6
I1171
sg7
I109
stp11
sS'hhints'
p12
((dp13
g6
I121
sg7
I100
s(dp14
g6
I382
sg7
I86
s(dp15
g6
I1514
sg7
I102
stp16
ss."
HStem: 121 100<1143 1161> 382 86<1022.5 1090 1022.5 1134> 1514 102<527 940>
VStem: 60 128<484.5 1001 483 1033.5> 357 120<682.25 915.548> 856 119<641 1188 628 1237> 1171 109<736.5 1016.5>
LayerCount: 2
Fore
SplineSet
1161 121 m 1
 1143 221 l 1
 655 44 188 179 188 787 c 0
 188 1215 322 1514 732 1514 c 0
 1148 1514 1171 1169 1171 864 c 0
 1171 591 1128 468 1052 468 c 0
 993 468 975 529 975 641 c 2
 975 1237 l 1
 874.663235575 1269.86560684 790.024125391 1284.34253301 718.763228952 1284.26038429 c 0
 421.421395738 1283.91761214 357 1030.09510386 357 801 c 0
 357 497.632657886 506.164271398 375.416673814 647.480032393 373.747351723 c 0
 753.516766776 372.494770539 855.134554863 439.113568544 886 548 c 1
 902 445 965 382 1051 382 c 0
 1217 382 1280 606 1280 867 c 0
 1280 1321 1155 1616 739 1616 c 0
 224 1616 60 1277 60 790 c 0
 60 179 530 -81 1161 121 c 1
648.875 467.25 m 0
 560 471.25 477 558.5 477 806 c 0
 477 1216 697 1216 856 1188 c 1
 856 628 l 1
 832.5 542.5 737.75 463.25 648.875 467.25 c 0
EndSplineSet
EndChar

StartChar: b
Encoding: 98 98 142
Width: 874
VWidth: 0
GlyphClass: 2
Flags: W
PickledData: "(dp1
S'com.fontlab.hintData'
p2
(dp3
S'vhints'
p4
((dp5
S'position'
p6
I160
sS'width'
p7
I149
s(dp8
g6
I597
sg7
I149
stp9
sS'hhints'
p10
((dp11
g6
I-11
sg7
I126
s(dp12
g6
I1386
sg7
I132
s(dp13
g6
I1763
sg7
I20
stp14
ss."
HStem: -11 126<397.5 613.5> 1386 132 1763 20<160 309 160 160>
VStem: 160 149<0 114 460 1059 1059 1205.5 1372 1783 0 114> 597 149<340 1012 490 1012 1012 1061>
LayerCount: 2
Fore
SplineSet
510 -11 m 0
 717 -11 746 204 746 490 c 2
 746 1012 l 2
 746 1297 708 1528 480 1518 c 0
 407 1515 324 1455 309 1372 c 1
 309 1783 l 1
 160 1783 l 1
 160 0 l 1
 309 0 l 1
 309 114 l 1
 350 19 433 -11 510 -11 c 0
460 115 m 1
 335 115 309 221 309 460 c 2
 309 1059 l 2
 309 1352 371 1386 467 1386 c 0
 585 1386 597 1258 597 1061 c 2
 597 466 l 2
 597 214 569 116 460 115 c 1
EndSplineSet
EndChar

StartChar: backslash
Encoding: 92 92 143
Width: 726
VWidth: 0
GlyphClass: 2
Flags: W
PickledData: "(dp1
S'com.fontlab.hintData'
p2
(dp3
S'vhints'
p4
((dp5
S'position'
p6
I94
sS'width'
p7
I538
stp8
sS'hhints'
p9
((dp10
g6
I0
sg7
I21
s(dp11
g6
I1741
sg7
I20
stp12
ss."
LayerCount: 2
UndoRedoHistory
Layer: 1
Undoes
EndUndoes
Redoes
EndRedoes
EndUndoRedoHistory
Fore
SplineSet
505 0 m 1
 632 0 l 1
 222 1760 l 1
 94 1760 l 1
 505 0 l 1
EndSplineSet
EndChar

StartChar: bar
Encoding: 124 124 144
Width: 481
VWidth: 0
GlyphClass: 2
Flags: W
PickledData: "(dp1
S'com.fontlab.hintData'
p2
(dp3
S'vhints'
p4
((dp5
S'position'
p6
I166
sS'width'
p7
I149
stp8
sS'hhints'
p9
((dp10
g6
I1762
sg7
I20
stp11
ss."
VStem: 166 149
LayerCount: 2
UndoRedoHistory
Layer: 1
Undoes
EndUndoes
Redoes
EndRedoes
EndUndoRedoHistory
Fore
SplineSet
166 -134 m 1
 315 -134 l 1
 315 1783 l 1
 166 1783 l 1
 166 -134 l 1
EndSplineSet
EndChar

StartChar: braceleft
Encoding: 123 123 145
Width: 628
VWidth: 0
GlyphClass: 2
Flags: W
PickledData: "(dp1
S'com.fontlab.hintData'
p2
(dp3
S'vhints'
p4
((dp5
S'position'
p6
I222
sS'width'
p7
I148
stp8
sS'hhints'
p9
((dp10
g6
I-81
sg7
I124
s(dp11
g6
I810
sg7
I81
s(dp12
g6
I1658
sg7
I124
stp13
ss."
HStem: -81 124<395.825 510> 810 81<84 192.925> 1658 125<395.825 510>
VStem: 222 148<63.7214 271 537 787.399 913.601 1164 1430 1637.51>
LayerCount: 2
UndoRedoHistory
Layer: 1
Undoes
EndUndoes
Redoes
EndRedoes
EndUndoRedoHistory
Fore
SplineSet
450 -81 m 2
 510 -81 l 1
 510 43 l 1
 386 43 370 79 370 271 c 2
 370 537 l 2
 370 727 349 803 251 850 c 1
 349 898 370 974 370 1164 c 2
 370 1430 l 2
 370 1622 386 1658 510 1658 c 1
 510 1783 l 1
 450 1783 l 2
 271 1783 222 1704 222 1443 c 2
 222 1148 l 2
 222 934 206 891 84 891 c 1
 84 810 l 1
 206 810 222 767 222 553 c 2
 222 258 l 2
 222 -3 271 -81 450 -81 c 2
EndSplineSet
EndChar

StartChar: braceright
Encoding: 125 125 146
Width: 628
VWidth: 0
GlyphClass: 2
Flags: W
PickledData: "(dp1
S'com.fontlab.hintData'
p2
(dp3
S'vhints'
p4
((dp5
S'position'
p6
I258
sS'width'
p7
I148
stp8
sS'hhints'
p9
((dp10
g6
I-81
sg7
I124
s(dp11
g6
I810
sg7
I81
s(dp12
g6
I1658
sg7
I124
stp13
ss."
HStem: -81 124<118 232.175> 810 81<435.075 544> 1658 125<118 232.175>
VStem: 258 148<63.7214 271 537 787.399 913.601 1164 1430 1637.51>
LayerCount: 2
UndoRedoHistory
Layer: 1
Undoes
EndUndoes
Redoes
EndRedoes
EndUndoRedoHistory
Fore
SplineSet
118 -81 m 1
 178 -81 l 2
 357 -81 406 -3 406 258 c 2
 406 553 l 2
 406 767 422 810 544 810 c 1
 544 891 l 1
 422 891 406 934 406 1148 c 2
 406 1443 l 2
 406 1704 357 1783 178 1783 c 2
 118 1783 l 1
 118 1658 l 1
 242 1658 258 1622 258 1430 c 2
 258 1164 l 2
 258 974 279 898 377 850 c 1
 279 803 258 727 258 537 c 2
 258 271 l 2
 258 79 242 43 118 43 c 1
 118 -81 l 1
EndSplineSet
EndChar

StartChar: bracketleft
Encoding: 91 91 147
Width: 589
VWidth: 0
GlyphClass: 2
Flags: W
PickledData: "(dp1
S'com.fontlab.hintData'
p2
(dp3
S'vhints'
p4
((dp5
S'position'
p6
I166
sS'width'
p7
I363
s(dp8
g6
I166
sg7
I149
stp9
sS'hhints'
p10
((dp11
g6
I-80
sg7
I115
s(dp12
g6
I1646
sg7
I115
stp13
ss."
VStem: 166 363
LayerCount: 2
UndoRedoHistory
Layer: 1
Undoes
EndUndoes
Redoes
EndRedoes
EndUndoRedoHistory
Fore
SplineSet
166 -80 m 1
 529 -80 l 1
 529 35 l 1
 315 35 l 1
 315 1646 l 1
 529 1646 l 1
 529 1760 l 1
 166 1760 l 1
 166 -80 l 1
EndSplineSet
EndChar

StartChar: bracketright
Encoding: 93 93 148
Width: 589
VWidth: 0
GlyphClass: 2
Flags: W
PickledData: "(dp1
S'com.fontlab.hintData'
p2
(dp3
S'vhints'
p4
((dp5
S'position'
p6
I60
sS'width'
p7
I363
s(dp8
g6
I274
sg7
I149
stp9
sS'hhints'
p10
((dp11
g6
I-80
sg7
I115
s(dp12
g6
I1646
sg7
I115
stp13
ss."
VStem: 60 363
LayerCount: 2
UndoRedoHistory
Layer: 1
Undoes
EndUndoes
Redoes
EndRedoes
EndUndoRedoHistory
Fore
SplineSet
60 -80 m 1
 423 -80 l 1
 423 1760 l 1
 60 1760 l 1
 60 1646 l 1
 274 1646 l 1
 274 35 l 1
 60 35 l 1
 60 -80 l 1
EndSplineSet
EndChar

StartChar: breve
Encoding: 728 728 149
Width: 1016
VWidth: 0
GlyphClass: 2
Flags: W
PickledData: "(dp1
S'com.fontlab.hintData'
p2
(dp3
S'vhints'
p4
((dp5
S'position'
p6
I315
sS'width'
p7
I64
s(dp8
g6
I632
sg7
I64
stp9
sS'hhints'
p10
((dp11
g6
I1619
sg7
I91
stp12
ss."
HStem: 1619 91<476.5 536 476.5 570>
VStem: 315 64<1777.5 1808 1808 1823> 632 64<1810 1823 1810 1823>
LayerCount: 2
Fore
SplineSet
505 1619 m 0
 635 1619 696 1697 696 1810 c 2
 696 1823 l 1
 632 1823 l 1
 632 1728 565 1710 507 1710 c 0
 446 1710 379 1732 379 1823 c 1
 315 1823 l 1
 315 1808 l 2
 315 1692 381 1619 505 1619 c 0
EndSplineSet
EndChar

StartChar: brokenbar
Encoding: 166 166 150
Width: 480
VWidth: 0
GlyphClass: 2
Flags: W
PickledData: "(dp1
S'com.fontlab.hintData'
p2
(dp3
S'vhints'
p4
((dp5
S'position'
p6
I166
sS'width'
p7
I148
stp8
sS'hhints'
p9
((dp10
g6
I1741
sg7
I20
stp11
ss."
VStem: 166 148
LayerCount: 2
UndoRedoHistory
Layer: 1
Undoes
EndUndoes
Redoes
EndRedoes
EndUndoRedoHistory
Fore
SplineSet
166 -84 m 1
 314 -84 l 1
 314 724 l 1
 166 724 l 1
 166 -84 l 1
166 931 m 1
 314 931 l 1
 314 1760 l 1
 166 1760 l 1
 166 931 l 1
EndSplineSet
EndChar

StartChar: bullet
Encoding: 8226 8226 151
Width: 861
VWidth: 0
GlyphClass: 2
Flags: W
PickledData: "(dp1
S'com.fontlab.hintData'
p2
(dp3
S'vhints'
p4
((dp5
S'position'
p6
I227
sS'width'
p7
I407
stp8
sS'hhints'
p9
((dp10
g6
I633
sg7
I456
stp11
ss."
HStem: 633 456<363 497.5>
VStem: 227 407<785.5 936.5>
LayerCount: 2
Fore
SplineSet
430 633 m 0
 565 633 634 710 634 861 c 0
 634 1012 565 1089 430 1089 c 0
 296 1089 227 1012 227 861 c 0
 227 710 296 633 430 633 c 0
EndSplineSet
EndChar

StartChar: c
Encoding: 99 99 152
Width: 803
VWidth: 0
GlyphClass: 2
Flags: W
PickledData: "(dp1
S'com.fontlab.hintData'
p2
(dp3
S'vhints'
p4
((dp5
S'position'
p6
I128
sS'width'
p7
I149
s(dp8
g6
I549
sg7
I151
stp9
sS'hhints'
p10
((dp11
g6
I-18
sg7
I137
s(dp12
g6
I1381
sg7
I137
stp13
ss."
HStem: -18 137<353 481.5 353 560> 1381 137<359 488>
VStem: 128 149<455 511 511 1028> 549 151<344 562 517 562 517 562 973 1020 1020 1065>
AnchorPoint: "cedilla" 386 0 basechar 0
LayerCount: 2
Fore
SplineSet
418 -18 m 0
 702 -18 700 205 700 517 c 2
 700 562 l 1
 549 562 l 1
 549 449 l 2
 549 239 544 119 419 119 c 0
 287 119 277 222 277 455 c 2
 277 1057 l 2
 277 1254 292 1381 426 1381 c 0
 550 1381 549 1274 549 1065 c 2
 549 973 l 1
 700 973 l 1
 700 1020 l 2
 700 1314 698 1518 425 1518 c 0
 163 1518 128 1300 128 1028 c 2
 128 511 l 2
 128 202 145 -18 418 -18 c 0
EndSplineSet
EndChar

StartChar: caron
Encoding: 711 711 154
Width: 970
VWidth: 0
GlyphClass: 2
Flags: W
PickledData: "(dp1
S'com.fontlab.hintData'
p2
(dp3
S'vhints'
p4
((dp5
S'position'
p6
I281
sS'width'
p7
I407
stp8
sS'hhints'
p9
((dp10
g6
I1577
sg7
I253
stp11
ss."
HStem: 1577 253<281 568 281 568>
VStem: 281 407<1830 1830>
LayerCount: 2
Fore
SplineSet
402 1577 m 1
 568 1577 l 1
 688 1830 l 1
 571 1830 l 1
 485 1655 l 1
 399 1830 l 1
 281 1830 l 1
 402 1577 l 1
EndSplineSet
EndChar

StartChar: cedilla
Encoding: 184 184 159
Width: 1015
VWidth: 0
GlyphClass: 2
Flags: W
PickledData: "(dp1
S'com.fontlab.hintData'
p2
(dp3
S'vhints'
p4
((dp5
S'position'
p6
I614
sS'width'
p7
I125
stp8
sS'hhints'
p9
((dp10
g6
I-596
sg7
I95
s(dp11
g6
I-20
sg7
I20
stp12
ss."
HStem: -596 95<456 477.5 383 548> -20 20<494 551 494 494>
VStem: 614 125<-396.5 -336.5 -434 -314>
AnchorPoint: "cedilla" 505 0 mark 0
LayerCount: 2
Fore
SplineSet
470 -596 m 0
 626 -596 739 -492 739 -376 c 0
 739 -297 688 -211 560 -147 c 1
 551 0 l 1
 494 0 l 1
 454 -196 l 1
 536 -214 614 -269 614 -359 c 0
 614 -434 572 -501 383 -501 c 1
 383 -587 l 1
 414 -593 442 -596 470 -596 c 0
EndSplineSet
EndChar

StartChar: cent
Encoding: 162 162 160
Width: 803
VWidth: 0
GlyphClass: 2
Flags: W
PickledData: "(dp1
S'com.fontlab.hintData'
p2
(dp3
S'vhints'
p4
((dp5
S'position'
p6
I128
sS'width'
p7
I149
s(dp8
g6
I380
sg7
I93
s(dp9
g6
I549
sg7
I151
stp10
sS'hhints'
p11
((dp12
g6
I-249
sg7
I21
s(dp13
g6
I-18
sg7
I137
s(dp14
g6
I1381
sg7
I137
s(dp15
g6
I1503
sg7
I21
s(dp16
g6
I1740
sg7
I20
stp17
ss."
HStem: -249 21<380 473 473 473> -18 137 1381 137 1503 21<380 473 473 473> 1740 20<380 473 380 380>
VStem: 128 149 380 93<-249 6 -249 6 1503 1760> 549 151
LayerCount: 2
Fore
SplineSet
380 -249 m 1
 473 -249 l 1
 473 6 l 1
 380 6 l 1
 380 -249 l 1
380 1503 m 1
 473 1503 l 1
 473 1760 l 1
 380 1760 l 1
 380 1503 l 1
EndSplineSet
Refer: 152 99 N 1 0 0 1 0 0 2
EndChar

StartChar: circumflex
Encoding: 710 710 161
Width: 970
VWidth: 0
GlyphClass: 2
Flags: W
PickledData: "(dp1
S'com.fontlab.hintData'
p2
(dp3
S'vhints'
p4
((dp5
S'position'
p6
I281
sS'width'
p7
I407
stp8
sS'hhints'
p9
((dp10
g6
I1577
sg7
I254
stp11
ss."
HStem: 1577 254<281 568 399 568 402 688 402 688>
VStem: 281 407<1577 1577>
LayerCount: 2
Fore
SplineSet
281 1577 m 1
 399 1577 l 1
 485 1752 l 1
 571 1577 l 1
 688 1577 l 1
 568 1831 l 1
 402 1831 l 1
 281 1577 l 1
EndSplineSet
EndChar

StartChar: colon
Encoding: 58 58 162
Width: 555
VWidth: 0
GlyphClass: 2
Flags: W
PickledData: "(dp1
S'com.fontlab.hintData'
p2
(dp3
S'vhints'
p4
((dp5
S'position'
p6
I179
sS'width'
p7
I183
stp8
sS'hhints'
p9
((dp10
g6
I312
sg7
I231
s(dp11
g6
I1048
sg7
I231
stp12
ss."
HStem: 312 231<179 362 179 362> 1048 231<179 362 179 362>
VStem: 179 183<312 543 312 543 1048 1279>
LayerCount: 2
Fore
SplineSet
179 312 m 1
 362 312 l 1
 362 543 l 1
 179 543 l 1
 179 312 l 1
179 1048 m 1
 362 1048 l 1
 362 1279 l 1
 179 1279 l 1
 179 1048 l 1
EndSplineSet
EndChar

StartChar: comma
Encoding: 44 44 163
Width: 437
VWidth: 0
GlyphClass: 2
Flags: W
PickledData: "(dp1
S'com.fontlab.hintData'
p2
(dp3
S'vhints'
p4
((dp5
S'position'
p6
I143
sS'width'
p7
I200
s(dp8
g6
I162
sg7
I77
stp9
sS'hhints'
p10
((dp11
g6
I0
sg7
I173
stp12
ss."
HStem: 0 173<143 258 258 258>
VStem: 143 200<9 173 9 173 0 173> 162 77<-350 -350>
LayerCount: 2
Fore
SplineSet
162 -350 m 1
 239 -350 l 1
 343 9 l 1
 343 173 l 1
 143 173 l 1
 143 0 l 1
 258 0 l 1
 162 -350 l 1
EndSplineSet
EndChar

StartChar: commaaccentcomb
Encoding: 806 806 164
Width: 528
VWidth: 0
GlyphClass: 2
Flags: W
PickledData: "(dp1
S'com.fontlab.hintData'
p2
(dp3
S'vhints'
p4
((dp5
S'position'
p6
I168
sS'width'
p7
I197
s(dp8
g6
I225
sg7
I62
stp9
sS'hhints'
p10
((dp11
g6
I50
sg7
I192
stp12
ss."
HStem: 50 192<168 268 268 268>
VStem: 168 197<59 242 59 242 50 242> 225 62<-223 -223>
LayerCount: 2
Fore
SplineSet
225 -223 m 1
 287 -223 l 1
 365 59 l 1
 365 242 l 1
 168 242 l 1
 168 50 l 1
 268 50 l 1
 225 -223 l 1
EndSplineSet
EndChar

StartChar: copyright
Encoding: 169 169 165
Width: 1466
VWidth: 0
GlyphClass: 2
Flags: W
PickledData: "(dp1
S'com.fontlab.hintData'
p2
(dp3
S'vhints'
p4
((dp5
S'position'
p6
I104
sS'width'
p7
I73
s(dp8
g6
I509
sg7
I107
s(dp9
g6
I850
sg7
I101
s(dp10
g6
I1289
sg7
I73
stp11
sS'hhints'
p12
((dp13
g6
I168
sg7
I68
s(dp14
g6
I393
sg7
I87
s(dp15
g6
I1205
sg7
I94
s(dp16
g6
I1451
sg7
I68
stp17
ss."
HStem: 168 68<570 896 570 919.5> 393 87<690 779.5 690 817> 1205 94<685.5 779.5> 1451 68<570 896>
VStem: 104 73<674.5 1013 674.5 1035.5> 509 107<543.5 1057 629 1036> 850 101<627 629 629 741> 1289 73<674.5 1013>
LayerCount: 2
Fore
SplineSet
736 393 m 0
 898 393 951 477 951 627 c 2
 951 741 l 1
 850 741 l 1
 850 629 l 2
 850 523 825 480 734 480 c 0
 646 480 616 536 616 629 c 2
 616 1057 l 2
 616 1148 637 1205 734 1205 c 0
 825 1205 850 1158 850 1044 c 2
 850 961 l 1
 947 961 l 1
 947 1097 l 2
 947 1225 874 1299 740 1299 c 0
 575 1299 509 1209 509 1036 c 2
 509 624 l 2
 509 463 597 393 736 393 c 0
733 236 m 0
 407 236 177 505 177 844 c 0
 177 1182 407 1451 733 1451 c 0
 1059 1451 1289 1182 1289 844 c 0
 1289 505 1059 236 733 236 c 0
733 168 m 0
 1106 168 1362 460 1362 844 c 0
 1362 1227 1106 1519 733 1519 c 0
 360 1519 104 1227 104 844 c 0
 104 460 360 168 733 168 c 0
EndSplineSet
EndChar

StartChar: currency
Encoding: 164 164 166
Width: 1159
VWidth: 0
GlyphClass: 2
Flags: W
PickledData: "(dp1
S'com.fontlab.hintData'
p2
(dp3
S'vhints'
p4
((dp5
S'position'
p6
I163
sS'width'
p7
I120
s(dp8
g6
I876
sg7
I122
stp9
sS'hhints'
p10
((dp11
g6
I848
sg7
I103
s(dp12
g6
I1582
sg7
I106
stp13
ss."
HStem: 848 103<537.5 620> 1582 106<538.5 619 538.5 670.5>
VStem: 163 120<1228.5 1306> 876 122<1227.5 1306.5 1227.5 1359>
LayerCount: 2
Fore
SplineSet
274 812 m 1
 363 901 l 1
 424 866 496 848 579 848 c 0
 661 848 733 865 795 900 c 1
 884 812 l 1
 1034 961 l 1
 944 1051 l 1
 980 1116 998 1188 998 1267 c 0
 998 1346 980 1417 944 1482 c 1
 1034 1572 l 1
 884 1721 l 1
 797 1634 l 1
 732 1670 659 1688 579 1688 c 0
 498 1688 426 1670 361 1633 c 1
 274 1721 l 1
 125 1571 l 1
 215 1481 l 1
 180 1416 163 1345 163 1267 c 0
 163 1190 181 1118 216 1053 c 1
 125 962 l 1
 274 812 l 1
579 951 m 0
 398 951 283 1092 283 1267 c 0
 283 1441 399 1582 579 1582 c 0
 762 1582 876 1449 876 1269 c 0
 876 1094 760 951 579 951 c 0
EndSplineSet
EndChar

StartChar: d
Encoding: 100 100 167
Width: 855
VWidth: 0
GlyphClass: 2
Flags: W
PickledData: "(dp1
S'com.fontlab.hintData'
p2
(dp3
S'vhints'
p4
((dp5
S'position'
p6
I128
sS'width'
p7
I150
s(dp8
g6
I564
sg7
I150
stp9
sS'hhints'
p10
((dp11
g6
I-11
sg7
I125
s(dp12
g6
I1385
sg7
I133
s(dp13
g6
I1763
sg7
I20
stp14
ss."
HStem: -11 125<349.5 402> 1385 133<416 440.5 288.5 479> 1763 20<564 714 564 564>
VStem: 128 150<436 481 481 1008> 564 150<0 114 0 1783 1393 1393 1393 1783>
LayerCount: 2
Fore
SplineSet
365 -11 m 0
 439 -11 523 18 564 114 c 1
 564 0 l 1
 714 0 l 1
 714 1783 l 1
 564 1783 l 1
 564 1393 l 1
 538 1459 476 1518 405 1518 c 0
 172 1518 128 1298 128 1008 c 2
 128 481 l 2
 128 200 163 -11 365 -11 c 0
409 114 m 0
 290 114 278 243 278 436 c 2
 278 1030 l 2
 278 1285 307 1384 416 1385 c 1
 542 1385 565 1279 565 1037 c 2
 565 434 l 2
 565 142 503 114 409 114 c 0
EndSplineSet
EndChar

StartChar: dagger
Encoding: 8224 8224 168
Width: 909
VWidth: 0
GlyphClass: 2
Flags: W
PickledData: "(dp1
S'com.fontlab.hintData'
p2
(dp3
S'vhints'
p4
((dp5
S'position'
p6
I382
sS'width'
p7
I148
stp8
sS'hhints'
p9
((dp10
g6
I0
sg7
I21
s(dp11
g6
I1066
sg7
I116
stp12
ss."
HStem: 0 21<382 530 530 530> 1066 116<91 382 91 382 530 818>
VStem: 382 148<0 1066 0 1066 0 1182 1182 1592>
LayerCount: 2
Fore
SplineSet
382 0 m 1
 530 0 l 1
 530 1066 l 1
 818 1066 l 1
 818 1182 l 1
 530 1182 l 1
 530 1592 l 1
 382 1592 l 1
 382 1182 l 1
 91 1182 l 1
 91 1066 l 1
 382 1066 l 1
 382 0 l 1
EndSplineSet
EndChar

StartChar: daggerdbl
Encoding: 8225 8225 169
Width: 830
VWidth: 0
GlyphClass: 2
Flags: W
PickledData: "(dp1
S'com.fontlab.hintData'
p2
(dp3
S'vhints'
p4
((dp5
S'position'
p6
I358
sS'width'
p7
I117
stp8
sS'hhints'
p9
((dp10
g6
I0
sg7
I21
s(dp11
g6
I506
sg7
I106
s(dp12
g6
I1066
sg7
I106
stp13
ss."
HStem: 0 21<358 475 475 475> 506 106<73 358 73 358 475 757> 1066 106<73 358 73 358 475 757>
VStem: 358 117<0 506 0 506 0 612 612 1066 1172 1592>
LayerCount: 2
Fore
SplineSet
358 0 m 1
 475 0 l 1
 475 506 l 1
 757 506 l 1
 757 612 l 1
 475 612 l 1
 475 1066 l 1
 757 1066 l 1
 757 1172 l 1
 475 1172 l 1
 475 1592 l 1
 358 1592 l 1
 358 1172 l 1
 73 1172 l 1
 73 1066 l 1
 358 1066 l 1
 358 612 l 1
 73 612 l 1
 73 506 l 1
 358 506 l 1
 358 0 l 1
EndSplineSet
EndChar

StartChar: dblgravecmb
Encoding: 783 783 170
Width: 626
VWidth: 0
GlyphClass: 2
Flags: W
PickledData: "(dp1
S'com.fontlab.hintData'
p2
(dp3
S'vhints'
p4
((dp5
S'position'
p6
I89
sS'width'
p7
I415
stp8
sS'hhints'
p9
((dp10
g6
I1411
sg7
I372
stp11
ss."
HStem: 1411 372<194 245 194 455>
VStem: 89 415<1435 1726>
LayerCount: 2
Fore
SplineSet
245 1411 m 1
 294 1435 l 1
 194 1783 l 1
 89 1726 l 1
 245 1411 l 1
455 1411 m 1
 504 1435 l 1
 441 1783 l 1
 340 1726 l 1
 455 1411 l 1
EndSplineSet
EndChar

StartChar: dcroat
Encoding: 273 273 172
Width: 872
VWidth: 0
GlyphClass: 2
Flags: W
PickledData: "(dp1
S'com.fontlab.hintData'
p2
(dp3
S'vhints'
p4
((dp5
S'position'
p6
I128
sS'width'
p7
I150
s(dp8
g6
I372
sg7
I495
s(dp9
g6
I564
sg7
I150
stp10
sS'hhints'
p11
((dp12
g6
I-11
sg7
I125
s(dp13
g6
I1385
sg7
I133
s(dp14
g6
I1572
sg7
I113
s(dp15
g6
I1763
sg7
I20
stp16
ss."
HStem: -11 125 1385 133 1572 113 1763 20
VStem: 128 150 372 495 564 150
LayerCount: 2
Fore
SplineSet
211 1601 m 1
 834 1601 l 1
 834 1682 l 1
 211 1682 l 1
 211 1601 l 1
EndSplineSet
Refer: 167 100 N 1 0 0 1 0 0 2
EndChar

StartChar: degree
Encoding: 176 176 173
Width: 863
VWidth: 0
GlyphClass: 2
Flags: W
PickledData: "(dp1
S'com.fontlab.hintData'
p2
(dp3
S'vhints'
p4
((dp5
S'position'
p6
I88
sS'width'
p7
I113
s(dp8
g6
I663
sg7
I112
stp9
sS'hhints'
p10
((dp11
g6
I1114
sg7
I87
s(dp12
g6
I1695
sg7
I87
stp13
ss."
HStem: 1114 87<296.02 567.279> 1695 88<296.023 567.067>
VStem: 88 113<1295.22 1600.87> 663 112<1295.44 1600.87>
LayerCount: 2
UndoRedoHistory
Layer: 1
Undoes
EndUndoes
Redoes
EndRedoes
EndUndoRedoHistory
Fore
SplineSet
432 1201 m 0
 317 1201 201 1281 201 1448 c 0
 201 1615 316 1695 432 1695 c 0
 547 1695 663 1615 663 1448 c 0
 663 1281 548 1201 432 1201 c 0
431 1114 m 0
 603 1114 775 1226 775 1448 c 0
 775 1671 603 1783 431 1783 c 0
 260 1783 88 1671 88 1448 c 0
 88 1225 259 1114 431 1114 c 0
EndSplineSet
EndChar

StartChar: dieresis
Encoding: 168 168 174
Width: 976
VWidth: 0
GlyphClass: 2
Flags: W
PickledData: "(dp1
S'com.fontlab.hintData'
p2
(dp3
S'vhints'
p4
((dp5
S'position'
p6
I155
sS'width'
p7
I182
s(dp8
g6
I585
sg7
I182
stp9
sS'hhints'
p10
((dp11
g6
I1367
sg7
I133
stp12
ss."
HStem: 1367 133<155 337 155 337 585 767>
VStem: 155 182<1367 1500 1367 1500> 585 182<1367 1500 1367 1500>
LayerCount: 2
Fore
SplineSet
155 1367 m 1
 337 1367 l 1
 337 1500 l 1
 155 1500 l 1
 155 1367 l 1
585 1367 m 1
 767 1367 l 1
 767 1500 l 1
 585 1500 l 1
 585 1367 l 1
EndSplineSet
EndChar

StartChar: divide
Encoding: 247 247 175
Width: 804
VWidth: 0
GlyphClass: 2
Flags: W
PickledData: "(dp1
S'com.fontlab.hintData'
p2
(dp3
S'vhints'
p4
((dp5
S'position'
p6
I343
sS'width'
p7
I128
stp8
sS'hhints'
p9
((dp10
g6
I327
sg7
I208
s(dp11
g6
I708
sg7
I115
s(dp12
g6
I976
sg7
I198
stp13
ss."
HStem: 327 208<343 471 343 471> 708 115<94 710 94 710> 976 198<343 471 343 471>
VStem: 343 128<327 535 327 535 976 1174>
LayerCount: 2
Fore
SplineSet
343 327 m 1
 471 327 l 1
 471 535 l 1
 343 535 l 1
 343 327 l 1
94 708 m 1
 710 708 l 1
 710 823 l 1
 94 823 l 1
 94 708 l 1
343 976 m 1
 471 976 l 1
 471 1174 l 1
 343 1174 l 1
 343 976 l 1
EndSplineSet
EndChar

StartChar: dollar
Encoding: 36 36 176
Width: 830
VWidth: 0
GlyphClass: 2
Flags: W
PickledData: "(dp1
S'com.fontlab.hintData'
p2
(dp3
S'vhints'
p4
((dp5
S'position'
p6
I150
sS'width'
p7
I149
s(dp8
g6
I354
sg7
I107
s(dp9
g6
I396
sg7
I107
s(dp10
g6
I561
sg7
I140
s(dp11
g6
I577
sg7
I154
stp12
sS'hhints'
p13
((dp14
g6
I28
sg7
I136
s(dp15
g6
I1429
sg7
I137
s(dp16
g6
I1762
sg7
I20
stp17
ss."
HStem: 28 136<393.5 489.5 393.5 550> 1429 137<375 472.5>
VStem: 150 149<305.5 584 481 584 481 584> 561 140<1005 1099 1099 1126 1005 1099> 577 154<299 438>
LayerCount: 2
UndoRedoHistory
Layer: 1
Undoes
EndUndoes
Redoes
EndRedoes
EndUndoRedoHistory
Fore
SplineSet
396 -221 m 1xe0
 503 -221 l 1
 503 67 l 1
 396 67 l 1
 396 -221 l 1xe0
354 1490 m 1
 461 1490 l 1
 461 1783 l 1
 354 1783 l 1
 354 1490 l 1
EndSplineSet
Refer: 306 115 N 1 0 0 1 48 48 2
EndChar

StartChar: dotaccent
Encoding: 729 729 177
Width: 572
VWidth: 0
GlyphClass: 2
Flags: W
PickledData: "(dp1
S'com.fontlab.hintData'
p2
(dp3
S'vhints'
p4
((dp5
S'position'
p6
I213
sS'width'
p7
I159
stp8
sS'hhints'
p9
((dp10
g6
I-55
sg7
I133
stp11
ss."
HStem: -55 133<213 372 213 372>
VStem: 213 159<-55 78 -55 78>
LayerCount: 2
Fore
SplineSet
213 -55 m 1
 372 -55 l 1
 372 78 l 1
 213 78 l 1
 213 -55 l 1
EndSplineSet
EndChar

StartChar: dotlessi
Encoding: 305 305 178
Width: 474
VWidth: 0
GlyphClass: 2
Flags: W
PickledData: "(dp1
S'com.fontlab.hintData'
p2
(dp3
S'vhints'
p4
((dp5
S'position'
p6
I162
sS'width'
p7
I150
stp8
sS'hhints'
p9
((dp10
g6
I0
sg7
I21
s(dp11
g6
I1480
sg7
I20
stp12
ss."
HStem: 0 21<162 312 312 312> 1480 20<162 312 162 162>
VStem: 162 150<0 1500 0 1500>
LayerCount: 2
Fore
SplineSet
162 0 m 1
 312 0 l 1
 312 1500 l 1
 162 1500 l 1
 162 0 l 1
EndSplineSet
EndChar

StartChar: e
Encoding: 101 101 179
Width: 802
VWidth: 0
GlyphClass: 2
Flags: W
PickledData: "(dp1
S'com.fontlab.hintData'
p2
(dp3
S'vhints'
p4
((dp5
S'position'
p6
I128
sS'width'
p7
I149
s(dp8
g6
I549
sg7
I149
stp9
sS'hhints'
p10
((dp11
g6
I-18
sg7
I131
s(dp12
g6
I752
sg7
I125
s(dp13
g6
I1387
sg7
I131
stp14
ss."
HStem: -18 131<354 480.5 354 558.5> 752 125<277 549> 1387 131<360.5 488.5>
VStem: 128 149<450 511 511 752 877 1014> 549 149<877 877 877 1002 1002 1068>
AnchorPoint: "ogonek" 478 0 basechar 0
LayerCount: 2
Fore
SplineSet
421 -18 m 0
 696 -18 694 204 694 507 c 2
 694 556 l 1
 549 556 l 1
 549 444 l 2
 549 236 542 113 419 113 c 0
 289 113 277 220 277 450 c 2
 277 752 l 1
 698 752 l 1
 698 1002 l 2
 698 1292 695 1518 425 1518 c 0
 156 1518 128 1296 128 1014 c 2
 128 511 l 2
 128 201 146 -18 421 -18 c 0
277 877 m 1
 277 1060 l 2
 277 1257 295 1387 426 1387 c 0
 551 1387 549 1273 549 1068 c 2
 549 877 l 1
 277 877 l 1
EndSplineSet
EndChar

StartChar: eight
Encoding: 56 56 187
Width: 830
VWidth: 0
GlyphClass: 2
Flags: W
PickledData: "(dp1
S'com.fontlab.hintData'
p2
(dp3
S'vhints'
p4
((dp5
S'position'
p6
I110
sS'width'
p7
I149
s(dp8
g6
I128
sg7
I149
s(dp9
g6
I568
sg7
I149
stp10
sS'hhints'
p11
((dp12
g6
I-20
sg7
I123
s(dp13
g6
I869
sg7
I113
s(dp14
g6
I1653
sg7
I129
stp15
ss."
HStem: -20 123<322.881 515.855> 869 113<333.904 506.607> 1653 130<327.936 513.612>
VStem: 110 149<175.138 428 434 774.068> 128 149<1047.68 1594.86> 568 149<160.112 792.081 1058.49 1595.24>
LayerCount: 2
UndoRedoHistory
Layer: 1
Undoes
EndUndoes
Redoes
EndRedoes
EndUndoRedoHistory
Fore
SplineSet
421 -20 m 0xf4
 624 -20 714 110 721 413 c 1
 721 434 l 2
 721 706 676 855 571 931 c 1
 673 1001 717 1126 717 1347 c 0
 717 1650 629 1783 424 1783 c 0
 217 1783 128 1650 128 1347 c 0xec
 128 1121 169 995 265 927 c 1
 156 853 110 705 110 434 c 0
 110 417 111 420 111 403 c 0
 120 107 213 -20 421 -20 c 0xf4
423 103 m 0
 310 103 261 200 259 428 c 0xf4
 259 442.294841662 259.104866753 456.210878932 259.316283364 469.752567091 c 0
 263.674888199 748.930570414 313.320086703 869 423 869 c 0
 521.910121918 869 567.453978964 752.317827654 572.535247226 481.962944846 c 0
 572.796727401 468.05058314 572.951058865 453.731281757 573 439 c 0
 572 204 527 103 423 103 c 0
421 982 m 0
 320 982 277 1092 277 1348 c 0xec
 277 1562 320 1653 421 1653 c 0
 524 1653 568 1563 568 1353 c 0
 568 1093 524 982 421 982 c 0
EndSplineSet
EndChar

StartChar: emdash
Encoding: 8212 8212 189
Width: 1153
VWidth: 0
GlyphClass: 2
Flags: W
PickledData: "(dp1
S'com.fontlab.hintData'
p2
(dp3
S'hhints'
p4
((dp5
S'position'
p6
I626
sS'width'
p7
I115
stp8
ss."
HStem: 626 115<100 1052 100 1052>
LayerCount: 2
Fore
SplineSet
100 626 m 1
 1052 626 l 1
 1052 741 l 1
 100 741 l 1
 100 626 l 1
EndSplineSet
EndChar

StartChar: endash
Encoding: 8211 8211 190
Width: 756
VWidth: 0
GlyphClass: 2
Flags: W
PickledData: "(dp1
S'com.fontlab.hintData'
p2
(dp3
S'vhints'
p4
((dp5
S'position'
p6
I120
sS'width'
p7
I516
stp8
sS'hhints'
p9
((dp10
g6
I626
sg7
I115
stp11
ss."
HStem: 626 115<120 636 120 636>
VStem: 120 516<626 741 626 741>
LayerCount: 2
Fore
SplineSet
120 626 m 1
 636 626 l 1
 636 741 l 1
 120 741 l 1
 120 626 l 1
EndSplineSet
EndChar

StartChar: equal
Encoding: 61 61 192
Width: 722
VWidth: 0
GlyphClass: 2
Flags: W
PickledData: "(dp1
S'com.fontlab.hintData'
p2
(dp3
S'vhints'
p4
((dp5
S'position'
p6
I94
sS'width'
p7
I534
stp8
sS'hhints'
p9
((dp10
g6
I601
sg7
I128
s(dp11
g6
I896
sg7
I129
stp12
ss."
HStem: 601 128<94 628 94 628> 896 129<94 628 94 628>
VStem: 94 534<601 729 601 729 896 1025 601 896>
LayerCount: 2
Fore
SplineSet
94 601 m 1
 628 601 l 1
 628 729 l 1
 94 729 l 1
 94 601 l 1
94 896 m 1
 628 896 l 1
 628 1025 l 1
 94 1025 l 1
 94 896 l 1
EndSplineSet
EndChar

StartChar: eth
Encoding: 240 240 193
Width: 910
VWidth: 0
GlyphClass: 2
Flags: W
PickledData: "(dp1
S'com.fontlab.hintData'
p2
(dp3
S'vhints'
p4
((dp5
S'position'
p6
I111
sS'width'
p7
I149
s(dp8
g6
I614
sg7
I149
stp9
sS'hhints'
p10
((dp11
g6
I-20
sg7
I127
s(dp12
g6
I978
sg7
I125
s(dp13
g6
I1640
sg7
I140
stp14
ss."
HStem: -20 127<364 506 364 567.5> 978 125 1640 140<293 293>
VStem: 111 149<293.5 545 446 545 545 557> 614 149<366 958 506 926>
LayerCount: 2
Fore
SplineSet
431 -20 m 0
 704 -20 763 212 763 506 c 2
 763 958 l 2
 763 926 753 1456 732 1516 c 1
 931 1635 l 1
 878 1735 l 1
 678 1616 l 1
 589 1732 450 1783 293 1780 c 1
 293 1640 l 1
 369 1644 471 1619 543 1534 c 1
 318 1399 l 1
 371 1299 l 1
 596 1434 l 1
 608 1392 616 1009 616 1009 c 1
 573 1070 492 1101 433 1103 c 0
 181 1114 111 959 111 557 c 2
 111 442 l 2
 111 145 177 -20 431 -20 c 0
431 107 m 0
 297 107 260 170 260 446 c 2
 260 545 l 2
 260 869 289 978 425 978 c 0
 519 978 595 930 614 926 c 1
 614 505 l 2
 614 227 581 107 431 107 c 0
EndSplineSet
EndChar

StartChar: exclam
Encoding: 33 33 194
Width: 501
VWidth: 0
GlyphClass: 2
Flags: W
PickledData: "(dp1
S'com.fontlab.hintData'
p2
(dp3
S'vhints'
p4
((dp5
S'position'
p6
I156
sS'width'
p7
I186
s(dp8
g6
I220
sg7
I60
stp9
sS'hhints'
p10
((dp11
g6
I0
sg7
I202
s(dp12
g6
I1740
sg7
I20
stp13
ss."
HStem: 0 202<156 342 156 342> 1740 20<157 345 157 157>
VStem: 156 186<0 202 0 202> 220 60<368 368>
LayerCount: 2
Fore
SplineSet
156 0 m 1
 342 0 l 1
 342 202 l 1
 156 202 l 1
 156 0 l 1
220 368 m 1
 280 368 l 1
 345 1760 l 1
 157 1760 l 1
 220 368 l 1
EndSplineSet
EndChar

StartChar: f
Encoding: 102 102 196
Width: 608
VWidth: 0
GlyphClass: 2
Flags: W
PickledData: "(dp1
S'com.fontlab.hintData'
p2
(dp3
S'vhints'
p4
((dp5
S'position'
p6
I219
sS'width'
p7
I150
stp8
sS'hhints'
p9
((dp10
g6
I0
sg7
I21
s(dp11
g6
I1329
sg7
I113
s(dp12
g6
I1657
sg7
I132
stp13
ss."
HStem: 0 21<219 369 369 369> 1329 113<79 219 79 219 369 568> 1657 132<431.5 469 352.5 498>
VStem: 219 150<0 1329 0 1329 0 1442 1442 1512>
LayerCount: 2
Fore
SplineSet
219 0 m 1
 369 0 l 1
 369 1329 l 1
 568 1329 l 1
 568 1442 l 1
 369 1442 l 1
 369 1534 l 2
 369 1606 376 1657 487 1657 c 0
 509 1657 536 1655 568 1650 c 1
 568 1771 l 1
 565 1772 505 1789 433 1789 c 0
 272 1789 219 1688 219 1512 c 2
 219 1442 l 1
 79 1442 l 1
 79 1329 l 1
 219 1329 l 1
 219 0 l 1
EndSplineSet
EndChar

StartChar: five
Encoding: 53 53 197
Width: 830
VWidth: 0
GlyphClass: 2
Flags: W
PickledData: "(dp1
S'com.fontlab.hintData'
p2
(dp3
S'vhints'
p4
((dp5
S'position'
p6
I164
sS'width'
p7
I143
s(dp8
g6
I188
sg7
I135
s(dp9
g6
I545
sg7
I141
stp10
sS'hhints'
p11
((dp12
g6
I-20
sg7
I122
s(dp13
g6
I1624
sg7
I136
stp14
ss."
HStem: -20 122<383.5 464 383.5 528.5> 1624 136<323 648 188 648>
VStem: 164 143<263 291 291 459> 188 135<1126 1624 1126 1760> 545 141<209.5 828 321 828 828 869>
LayerCount: 2
Fore
SplineSet
430 -20 m 0
 627 -20 686 115 686 321 c 2
 686 828 l 2
 686 1179 592 1229 459 1221 c 0
 406 1218 342 1186 323 1126 c 1
 323 1624 l 1
 648 1624 l 1
 648 1760 l 1
 188 1760 l 1
 188 910 l 1
 312 888 l 1
 312 1028 366 1091 433 1091 c 0
 516 1091 545 1021 545 869 c 2
 545 274 l 2
 545 145 502 102 426 102 c 0
 341 102 307 151 307 263 c 2
 307 459 l 1
 164 459 l 1
 164 291 l 2
 164 131 209 -20 430 -20 c 0
EndSplineSet
EndChar

StartChar: florin
Encoding: 402 402 198
Width: 687
VWidth: 0
GlyphClass: 2
Flags: W
PickledData: "(dp1
S'com.fontlab.hintData'
p2
(dp3
S'vhints'
p4
((dp5
S'position'
p6
I282
sS'width'
p7
I137
stp8
sS'hhints'
p9
((dp10
g6
I-150
sg7
I98
s(dp11
g6
I940
sg7
I104
s(dp12
g6
I1673
sg7
I103
stp13
ss."
HStem: -150 98<81 81> 940 104<77 282 77 282 419 635> 1673 103<618 618>
VStem: 282 137<63 123 123 940 1044 1560 1560 1563 63 1044>
LayerCount: 2
Fore
SplineSet
81 -150 m 1
 301 -171 419 -131 419 63 c 2
 419 940 l 1
 635 940 l 1
 635 1044 l 1
 419 1044 l 1
 419 1560 l 2
 419 1694 482 1682 618 1673 c 1
 618 1776 l 1
 418 1795 282 1784 282 1563 c 2
 282 1044 l 1
 77 1044 l 1
 77 940 l 1
 282 940 l 1
 282 123 l 2
 282 -40 260 -61 81 -52 c 1
 81 -150 l 1
EndSplineSet
EndChar

StartChar: four
Encoding: 52 52 199
Width: 830
VWidth: 0
GlyphClass: 2
Flags: W
PickledData: "(dp1
S'com.fontlab.hintData'
p2
(dp3
S'vhints'
p4
((dp5
S'position'
p6
I485
sS'width'
p7
I135
stp8
sS'hhints'
p9
((dp10
g6
I-1
sg7
I21
s(dp11
g6
I352
sg7
I116
s(dp12
g6
I1740
sg7
I20
stp13
ss."
VStem: 485 135<1711.81 1760>
LayerCount: 2
UndoRedoHistory
Layer: 1
Undoes
EndUndoes
Redoes
EndRedoes
EndUndoRedoHistory
Fore
SplineSet
485 0 m 1
 620 0 l 1
 620 352 l 1
 774 352 l 1
 774 468 l 1
 620 468 l 1
 620 1760 l 1
 476 1760 l 1
 95 449 l 1
 95 352 l 1
 485 352 l 1
 485 0 l 1
217 468 m 1
 485 1468 l 1
 485 468 l 1
 217 468 l 1
EndSplineSet
EndChar

StartChar: fraction
Encoding: 8260 8260 200
Width: 829
VWidth: 0
GlyphClass: 2
Flags: W
PickledData: "(dp1
S'com.fontlab.hintData'
p2
(dp3
S'vhints'
p4
((dp5
S'position'
p6
I94
sS'width'
p7
I579
stp8
sS'hhints'
p9
((dp10
g6
I0
sg7
I21
s(dp11
g6
I1748
sg7
I20
stp12
ss."
HStem: 0 21<94 231 231 231> 1748 20<536 673 536 536>
VStem: 94 579
LayerCount: 2
Fore
SplineSet
94 0 m 1
 231 0 l 1
 673 1768 l 1
 536 1768 l 1
 94 0 l 1
EndSplineSet
EndChar

StartChar: g
Encoding: 103 103 201
Width: 858
VWidth: 0
GlyphClass: 2
Flags: W
PickledData: "(dp1
S'com.fontlab.hintData'
p2
(dp3
S'vhints'
p4
((dp5
S'position'
p6
I128
sS'width'
p7
I149
s(dp8
g6
I565
sg7
I149
stp9
sS'hhints'
p10
((dp11
g6
I-232
sg7
I127
s(dp12
g6
I127
sg7
I128
s(dp13
g6
I1387
sg7
I131
s(dp14
g6
I1480
sg7
I20
stp15
ss."
HStem: -232 127 127 128<372.5 418> 1387 131 1480 20<565 714 565 565>
VStem: 128 149<611 632 632 1013> 565 149<23.5 1500 97 245 464 614 614 1050 1412 1500 1412 1412>
LayerCount: 2
Fore
SplineSet
423 -232 m 0
 673 -220 714 -11 714 97 c 2
 714 1500 l 1
 565 1500 l 1
 565 1412 l 1
 536 1489 473 1517 406 1518 c 0
 203 1522 128 1299 128 1013 c 2
 128 632 l 2
 128 345 172 127 381 127 c 0
 455 127 522 148 565 245 c 1
 565 80 l 2
 565 -33 511 -101 427 -105 c 1
 314 -109 239 -68 191 -32 c 1
 134 -147 l 1
 199 -197 313 -238 423 -232 c 0
436 255 m 0
 309 255 277 364 277 611 c 2
 277 1052 l 2
 277 1251 291 1387 424 1387 c 0
 546 1387 565 1280 565 1050 c 2
 565 614 l 2
 565 314 525 255 436 255 c 0
EndSplineSet
EndChar

StartChar: germandbls
Encoding: 223 223 206
Width: 933
VWidth: 0
GlyphClass: 2
Flags: W
PickledData: "(dp1
S'com.fontlab.hintData'
p2
(dp3
S'vhints'
p4
((dp5
S'position'
p6
I157
sS'width'
p7
I147
s(dp8
g6
I632
sg7
I143
s(dp9
g6
I687
sg7
I148
stp10
sS'hhints'
p11
((dp12
g6
I0
sg7
I100
s(dp13
g6
I889
sg7
I108
s(dp14
g6
I1687
sg7
I94
stp15
ss."
HStem: 0 100<418 621.582> 889 108<427 591.975> 1687 96<336.906 600.4>
VStem: 157 147<1417 1653.54> 632 143<1038.1 1220 1417 1650.05> 687 148<158.223 476 553 821.511>
LayerCount: 2
UndoRedoHistory
Layer: 1
Undoes
EndUndoes
Redoes
EndRedoes
EndUndoRedoHistory
Fore
SplineSet
157 0 m 1xf8
 304 0 l 1
 304 1500 l 2
 304 1646 343 1687 457 1687 c 0
 593 1687 632 1646 632 1500 c 2
 632 1170 l 2xf8
 632 1042 578 997 427 997 c 1
 427 889 l 1
 628 889 687 821 687 656 c 2
 687 395 l 2
 687 155 660 100 418 100 c 1
 418 0 l 1
 522 0 l 2
 822 0 835 177 835 476 c 2
 835 553 l 2xf4
 835 819 782 903 606 945 c 1
 737 988 775 1047 775 1220 c 2
 775 1417 l 2
 775 1700 712 1783 444 1783 c 0
 161 1783 157 1660 157 1417 c 2
 157 0 l 1xf8
EndSplineSet
EndChar

StartChar: grave
Encoding: 96 96 207
Width: 650
VWidth: 0
GlyphClass: 2
Flags: W
PickledData: "(dp1
S'com.fontlab.hintData'
p2
(dp3
S'vhints'
p4
((dp5
S'position'
p6
I175
sS'width'
p7
I254
stp8
sS'hhints'
p9
((dp10
g6
I-119
sg7
I332
stp11
ss."
HStem: -119 332<175 429 175 429>
VStem: 175 254
LayerCount: 2
Fore
SplineSet
360 -119 m 1
 429 -119 l 1
 335 213 l 1
 175 213 l 1
 360 -119 l 1
EndSplineSet
EndChar

StartChar: greater
Encoding: 62 62 208
Width: 730
VWidth: 0
GlyphClass: 2
Flags: W
PickledData: "(dp1
S'com.fontlab.hintData'
p2
(dp3
S'vhints'
p4
((dp5
S'position'
p6
I84
sS'width'
p7
I579
stp8
ss."
VStem: 84 579<288 818 288 818 684 1059 684 1219>
LayerCount: 2
Fore
SplineSet
84 288 m 1
 663 684 l 1
 663 818 l 1
 84 1219 l 1
 84 1059 l 1
 552 749 l 1
 84 456 l 1
 84 288 l 1
EndSplineSet
EndChar

StartChar: greaterequal
Encoding: 8805 8805 209
Width: 781
VWidth: 0
GlyphClass: 2
Flags: W
PickledData: "(dp1
S'com.fontlab.hintData'
p2
(dp3
S'vhints'
p4
((dp5
S'position'
p6
I92
sS'width'
p7
I587
stp8
sS'hhints'
p9
((dp10
g6
I0
sg7
I111
stp11
ss."
HStem: 0 111<92 641 92 641>
VStem: 92 587<0 813>
LayerCount: 2
Fore
SplineSet
100 279 m 1
 679 679 l 1
 679 813 l 1
 100 1209 l 1
 100 1042 l 1
 567 749 l 1
 100 439 l 1
 100 279 l 1
92 0 m 1
 641 0 l 1
 641 111 l 1
 92 111 l 1
 92 0 l 1
EndSplineSet
EndChar

StartChar: guillemotleft
Encoding: 171 171 210
Width: 1304
VWidth: 0
GlyphClass: 2
Flags: W
PickledData: "(dp1
S'com.fontlab.hintData'
p2
(dp3
S'hhints'
p4
((dp5
S'position'
p6
I414
sS'width'
p7
I651
stp8
ss."
HStem: 414 651<542 542 542 1065>
LayerCount: 2
Fore
SplineSet
542 414 m 1
 542 574 l 1
 230 749 l 1
 542 915 l 1
 542 1065 l 1
 76 794 l 1
 76 699 l 1
 542 414 l 1
1065 414 m 1
 1065 574 l 1
 753 749 l 1
 1065 915 l 1
 1065 1065 l 1
 599 794 l 1
 599 699 l 1
 1065 414 l 1
EndSplineSet
EndChar

StartChar: guillemotright
Encoding: 187 187 211
Width: 1304
VWidth: 0
GlyphClass: 2
Flags: W
PickledData: "(dp1
S'com.fontlab.hintData'
p2
(dp3
S'hhints'
p4
((dp5
S'position'
p6
I414
sS'width'
p7
I651
stp8
ss."
HStem: 414 651<193 193 193 716>
LayerCount: 2
Fore
SplineSet
193 414 m 1
 659 699 l 1
 659 794 l 1
 193 1065 l 1
 193 915 l 1
 505 749 l 1
 193 574 l 1
 193 414 l 1
716 414 m 1
 1182 699 l 1
 1182 794 l 1
 716 1065 l 1
 716 915 l 1
 1028 749 l 1
 716 574 l 1
 716 414 l 1
EndSplineSet
EndChar

StartChar: guilsinglleft
Encoding: 8249 8249 212
Width: 606
VWidth: 0
GlyphClass: 2
Flags: W
PickledData: "(dp1
S'com.fontlab.hintData'
p2
(dp3
S'vhints'
p4
((dp5
S'position'
p6
I82
sS'width'
p7
I466
stp8
sS'hhints'
p9
((dp10
g6
I414
sg7
I651
stp11
ss."
HStem: 414 651<548 548>
VStem: 82 466<414 794 414 699>
LayerCount: 2
Fore
SplineSet
548 414 m 1
 548 574 l 1
 236 749 l 1
 548 915 l 1
 548 1065 l 1
 82 794 l 1
 82 699 l 1
 548 414 l 1
EndSplineSet
EndChar

StartChar: guilsinglright
Encoding: 8250 8250 213
Width: 727
VWidth: 0
GlyphClass: 2
Flags: W
PickledData: "(dp1
S'com.fontlab.hintData'
p2
(dp3
S'vhints'
p4
((dp5
S'position'
p6
I166
sS'width'
p7
I466
stp8
sS'hhints'
p9
((dp10
g6
I414
sg7
I651
stp11
ss."
HStem: 414 651<166 166>
VStem: 166 466<414 794 414 794 699 915 699 1065>
LayerCount: 2
Fore
SplineSet
166 414 m 1
 632 699 l 1
 632 794 l 1
 166 1065 l 1
 166 915 l 1
 478 749 l 1
 166 574 l 1
 166 414 l 1
EndSplineSet
EndChar

StartChar: h
Encoding: 104 104 214
Width: 921
VWidth: 0
GlyphClass: 2
Flags: W
PickledData: "(dp1
S'com.fontlab.hintData'
p2
(dp3
S'vhints'
p4
((dp5
S'position'
p6
I160
sS'width'
p7
I149
s(dp8
g6
I623
sg7
I150
stp9
sS'hhints'
p10
((dp11
g6
I0
sg7
I21
s(dp12
g6
I1381
sg7
I138
s(dp13
g6
I1763
sg7
I20
stp14
ss."
HStem: 0 21<160 309 309 309 623 773 773 773> 1381 138<494.5 525> 1763 20<160 309 160 160>
VStem: 160 149<0 1191 0 1191 1191 1265.5 1353 1783> 623 150<0 1201 0 1211>
LayerCount: 2
Fore
SplineSet
160 0 m 1
 309 0 l 1
 309 1191 l 2
 309 1340 402 1381 485 1381 c 0
 565 1381 623 1346 623 1201 c 2
 623 0 l 1
 773 0 l 1
 773 1211 l 2
 773 1425 681 1519 553 1519 c 0
 436 1519 335 1438 309 1353 c 1
 309 1783 l 1
 160 1783 l 1
 160 0 l 1
EndSplineSet
EndChar

StartChar: hbar
Encoding: 295 295 215
Width: 924
VWidth: 0
GlyphClass: 2
Flags: W
PickledData: "(dp1
S'com.fontlab.hintData'
p2
(dp3
S'vhints'
p4
((dp5
S'position'
p6
I160
sS'width'
p7
I149
s(dp8
g6
I623
sg7
I150
stp9
sS'hhints'
p10
((dp11
g6
I0
sg7
I21
s(dp12
g6
I1381
sg7
I138
s(dp13
g6
I1561
sg7
I121
s(dp14
g6
I1763
sg7
I20
stp15
ss."
HStem: 0 21 1381 138 1561 121 1763 20
VStem: 160 149 623 150
LayerCount: 2
Fore
SplineSet
0 1601 m 1
 623 1601 l 1
 623 1682 l 1
 0 1682 l 1
 0 1601 l 1
EndSplineSet
Refer: 214 104 N 1 0 0 1 0 0 2
EndChar

StartChar: hungarumlaut
Encoding: 733 733 217
Width: 882
VWidth: 0
GlyphClass: 2
Flags: W
PickledData: "(dp1
S'com.fontlab.hintData'
p2
(dp3
S'vhints'
p4
((dp5
S'position'
p6
I198
sS'width'
p7
I592
stp8
sS'hhints'
p9
((dp10
g6
I1241
sg7
I541
stp11
ss."
LayerCount: 2
UndoRedoHistory
Layer: 1
Undoes
EndUndoes
Redoes
EndRedoes
EndUndoRedoHistory
Fore
SplineSet
267 1252 m 1
 479 1744 l 1
 375 1783 l 1
 198 1281 l 1
 267 1252 l 1
517 1241 m 1
 790 1733 l 1
 683 1783 l 1
 449 1273 l 1
 517 1241 l 1
EndSplineSet
EndChar

StartChar: hyphen
Encoding: 45 45 218
Width: 696
VWidth: 0
GlyphClass: 2
Flags: W
PickledData: "(dp1
S'com.fontlab.hintData'
p2
(dp3
S'vhints'
p4
((dp5
S'position'
p6
I109
sS'width'
p7
I478
stp8
sS'hhints'
p9
((dp10
g6
I842
sg7
I116
stp11
ss."
HStem: 842 116<109 587 109 587>
VStem: 109 478<842 958 842 958>
LayerCount: 2
Fore
SplineSet
109 842 m 1
 587 842 l 1
 587 958 l 1
 109 958 l 1
 109 842 l 1
EndSplineSet
EndChar

StartChar: i
Encoding: 105 105 219
Width: 460
VWidth: 0
GlyphClass: 2
Flags: W
PickledData: "(dp1
S'com.fontlab.hintData'
p2
(dp3
S'vhints'
p4
((dp5
S'position'
p6
I159
sS'width'
p7
I150
stp8
sS'hhints'
p9
((dp10
g6
I0
sg7
I21
s(dp11
g6
I1480
sg7
I20
s(dp12
g6
I1638
sg7
I144
stp13
ss."
VStem: 159 150
AnchorPoint: "ogonek" 228 0 basechar 0
LayerCount: 2
UndoRedoHistory
Layer: 1
Undoes
EndUndoes
Redoes
EndRedoes
EndUndoRedoHistory
Fore
SplineSet
159 0 m 1
 309 0 l 1
 309 1500 l 1
 159 1500 l 1
 159 0 l 1
159 1638 m 1
 308 1638 l 1
 308 1783 l 1
 159 1783 l 1
 159 1638 l 1
EndSplineSet
EndChar

StartChar: infinity
Encoding: 8734 8734 227
Width: 1300
VWidth: 0
GlyphClass: 2
Flags: W
PickledData: "(dp1
S'com.fontlab.hintData'
p2
(dp3
S'vhints'
p4
((dp5
S'position'
p6
I88
sS'width'
p7
I130
s(dp8
g6
I1074
sg7
I128
stp9
sS'hhints'
p10
((dp11
g6
I452
sg7
I126
s(dp12
g6
I901
sg7
I127
stp13
ss."
HStem: 452 126<327 407 327 407.5> 901 127<327 404.5 285.5 408>
VStem: 88 130<691.5 788.5 691.5 829> 1074 128<691.5 788.5>
LayerCount: 2
Fore
SplineSet
912 439 m 0
 1086 439 1202 561 1202 744 c 0
 1202 922 1086 1041 912 1041 c 0
 838 1041 729 967 639 855 c 1
 546 959 439 1028 370 1028 c 0
 201 1028 88 914 88 744 c 0
 88 569 201 452 370 452 c 0
 445 452 552 517 639 615 c 1
 722 509 831 439 912 439 c 0
374 578 m 0
 280 578 218 643 218 740 c 0
 218 837 280 901 374 901 c 0
 442 901 527 837 588 740 c 1
 526 643 440 578 374 578 c 0
910 578 m 0
 835 578 744 643 683 740 c 1
 750 837 841 902 910 902 c 0
 1008 902 1074 837 1074 740 c 0
 1074 643 1008 578 910 578 c 0
EndSplineSet
EndChar

StartChar: integral
Encoding: 8747 8747 228
Width: 767
VWidth: 0
GlyphClass: 2
Flags: W
PickledData: "(dp1
S'com.fontlab.hintData'
p2
(dp3
S'vhints'
p4
((dp5
S'position'
p6
I316
sS'width'
p7
I137
stp8
sS'hhints'
p9
((dp10
g6
I-12
sg7
I140
s(dp11
g6
I1654
sg7
I133
stp12
ss."
HStem: -12 140<162 321> 1654 133<506.5 516.5 437 552>
VStem: 316 137<232.5 305 305 1521 1521 1539>
LayerCount: 2
Fore
SplineSet
252 -12 m 0
 390 -12 453 68 453 221 c 2
 453 1521 l 2
 453 1614 475 1654 538 1654 c 0
 566 1654 604 1645 652 1630 c 1
 652 1752 l 1
 590 1775 537 1787 496 1787 c 0
 378 1787 316 1703 316 1539 c 2
 316 305 l 2
 316 160 297 128 170 128 c 0
 154 128 135 129 115 130 c 1
 115 8 l 1
 170 -6 215 -12 252 -12 c 0
EndSplineSet
EndChar

StartChar: j
Encoding: 106 106 231
Width: 479
VWidth: 0
GlyphClass: 2
Flags: W
PickledData: "(dp1
S'com.fontlab.hintData'
p2
(dp3
S'vhints'
p4
((dp5
S'position'
p6
I176
sS'width'
p7
I149
stp8
sS'hhints'
p9
((dp10
g6
I-218
sg7
I108
s(dp11
g6
I1480
sg7
I20
s(dp12
g6
I1638
sg7
I144
stp13
ss."
HStem: -218 108<68 174.901>
VStem: 176 149<-108.758 -34>
LayerCount: 2
UndoRedoHistory
Layer: 1
Undoes
EndUndoes
Redoes
EndRedoes
EndUndoRedoHistory
Fore
SplineSet
202 -221 m 0
 234 -216 325 -190 325 -34 c 2
 325 1500 l 1
 176 1500 l 1
 176 -44 l 2
 176 -81 168 -106 139 -111 c 1
 109 -115 68 -110 68 -110 c 1
 68 -218 l 1
 70 -218 133 -230 202 -221 c 0
177 1638 m 1
 326 1638 l 1
 326 1783 l 1
 177 1783 l 1
 177 1638 l 1
EndSplineSet
EndChar

StartChar: k
Encoding: 107 107 233
Width: 835
VWidth: 0
GlyphClass: 2
Flags: W
PickledData: "(dp1
S'com.fontlab.hintData'
p2
(dp3
S'vhints'
p4
((dp5
S'position'
p6
I160
sS'width'
p7
I149
stp8
sS'hhints'
p9
((dp10
g6
I0
sg7
I21
s(dp11
g6
I1480
sg7
I20
s(dp12
g6
I1763
sg7
I20
stp13
ss."
HStem: 0 21<160 309 309 309 651 807 807 807> 1480 20<640 789 640 640> 1763 20<160 309 160 160>
VStem: 160 149<0 742 0 742 760 1783>
LayerCount: 2
Fore
SplineSet
160 0 m 1
 309 0 l 1
 309 742 l 1
 651 0 l 1
 807 0 l 1
 448 756 l 1
 789 1500 l 1
 640 1500 l 1
 309 760 l 1
 309 1783 l 1
 160 1783 l 1
 160 0 l 1
EndSplineSet
EndChar

StartChar: kgreenlandic
Encoding: 312 312 235
Width: 835
VWidth: 0
GlyphClass: 2
Flags: W
PickledData: "(dp1
S'com.fontlab.hintData'
p2
(dp3
S'vhints'
p4
((dp5
S'position'
p6
I160
sS'width'
p7
I149
stp8
sS'hhints'
p9
((dp10
g6
I0
sg7
I21
s(dp11
g6
I1480
sg7
I20
stp12
ss."
HStem: 0 21<160 309 309 309 651 807 807 807> 1480 20<160 309 160 160 640 789 640 640>
VStem: 160 149<0 742 0 742 760 1500>
LayerCount: 2
Fore
SplineSet
160 0 m 1
 309 0 l 1
 309 742 l 1
 651 0 l 1
 807 0 l 1
 448 756 l 1
 789 1500 l 1
 640 1500 l 1
 309 760 l 1
 309 1500 l 1
 160 1500 l 1
 160 0 l 1
EndSplineSet
EndChar

StartChar: l
Encoding: 108 108 236
Width: 465
VWidth: 0
GlyphClass: 2
Flags: W
PickledData: "(dp1
S'com.fontlab.hintData'
p2
(dp3
S'vhints'
p4
((dp5
S'position'
p6
I162
sS'width'
p7
I150
stp8
sS'hhints'
p9
((dp10
g6
I0
sg7
I21
s(dp11
g6
I1763
sg7
I20
stp12
ss."
HStem: 0 21<162 312 312 312> 1763 20<162 312 162 162>
VStem: 162 150<0 1783 0 1783>
LayerCount: 2
Fore
SplineSet
162 0 m 1
 312 0 l 1
 312 1783 l 1
 162 1783 l 1
 162 0 l 1
EndSplineSet
EndChar

StartChar: less
Encoding: 60 60 241
Width: 730
VWidth: 0
GlyphClass: 2
Flags: W
PickledData: "(dp1
S'com.fontlab.hintData'
p2
(dp3
S'vhints'
p4
((dp5
S'position'
p6
I63
sS'width'
p7
I579
stp8
ss."
VStem: 63 579<288 823 288 688>
LayerCount: 2
Fore
SplineSet
642 288 m 1
 642 448 l 1
 174 758 l 1
 642 1051 l 1
 642 1219 l 1
 63 823 l 1
 63 688 l 1
 642 288 l 1
EndSplineSet
EndChar

StartChar: lessequal
Encoding: 8804 8804 242
Width: 781
VWidth: 0
GlyphClass: 2
Flags: W
PickledData: "(dp1
S'com.fontlab.hintData'
p2
(dp3
S'vhints'
p4
((dp5
S'position'
p6
I59
sS'width'
p7
I583
stp8
sS'hhints'
p9
((dp10
g6
I0
sg7
I111
stp11
ss."
HStem: 0 111<93 642 93 642>
VStem: 59 583<0 813 0 679>
LayerCount: 2
Fore
SplineSet
638 279 m 1
 638 439 l 1
 171 749 l 1
 638 1042 l 1
 638 1209 l 1
 59 813 l 1
 59 679 l 1
 638 279 l 1
93 0 m 1
 642 0 l 1
 642 111 l 1
 93 111 l 1
 93 0 l 1
EndSplineSet
EndChar

StartChar: logicalnot
Encoding: 172 172 243
Width: 947
VWidth: 0
GlyphClass: 2
Flags: W
PickledData: "(dp1
S'com.fontlab.hintData'
p2
(dp3
S'vhints'
p4
((dp5
S'position'
p6
I701
sS'width'
p7
I125
stp8
sS'hhints'
p9
((dp10
g6
I743
sg7
I115
stp11
ss."
HStem: 743 115<97 701 701 701>
VStem: 701 125<439 858 439 743>
LayerCount: 2
Fore
SplineSet
701 439 m 1
 826 439 l 1
 826 858 l 1
 97 858 l 1
 97 743 l 1
 701 743 l 1
 701 439 l 1
EndSplineSet
EndChar

StartChar: lozenge
Encoding: 9674 9674 244
Width: 921
VWidth: 0
GlyphClass: 2
Flags: W
PickledData: "(dp1
S'com.fontlab.hintData'
p2
(dp3
S'hhints'
p4
((dp5
S'position'
p6
I0
sS'width'
p7
I21
s(dp8
g6
I1742
sg7
I20
stp9
ss."
LayerCount: 2
UndoRedoHistory
Layer: 1
Undoes
EndUndoes
Redoes
EndRedoes
EndUndoRedoHistory
Fore
SplineSet
453 129 m 1
 259 883 l 1
 453 1623 l 1
 465 1623 l 1
 659 883 l 1
 465 129 l 1
 453 129 l 1
367 0 m 1
 558 0 l 1
 807 883 l 1
 558 1760 l 1
 367 1760 l 1
 114 883 l 1
 367 0 l 1
EndSplineSet
EndChar

StartChar: lslash
Encoding: 322 322 245
Width: 731
VWidth: 0
GlyphClass: 2
Flags: W
PickledData: "(dp1
S'com.fontlab.hintData'
p2
(dp3
S'vhints'
p4
((dp5
S'position'
p6
I99
sS'width'
p7
I511
s(dp8
g6
I256
sg7
I150
stp9
sS'hhints'
p10
((dp11
g6
I0
sg7
I21
s(dp12
g6
I1763
sg7
I20
stp13
ss."
HStem: 0 21 1763 20
VStem: 99 511<778 1153 778 1153> 256 150
LayerCount: 2
Fore
SplineSet
99 778 m 1
 610 1010 l 1
 610 1153 l 1
 99 921 l 1
 99 778 l 1
EndSplineSet
Refer: 236 108 N 1 0 0 1 94 0 2
EndChar

StartChar: m
Encoding: 109 109 246
Width: 1360
VWidth: 0
GlyphClass: 2
Flags: W
PickledData: "(dp1
S'com.fontlab.hintData'
p2
(dp3
S'vhints'
p4
((dp5
S'position'
p6
I160
sS'width'
p7
I149
s(dp8
g6
I611
sg7
I149
s(dp9
g6
I1062
sg7
I150
stp10
sS'hhints'
p11
((dp12
g6
I0
sg7
I21
s(dp13
g6
I1381
sg7
I138
s(dp14
g6
I1480
sg7
I20
stp15
ss."
HStem: 0 21<160 309 309 309 611 760 760 760 1062 1212 1212 1212> 1381 138<481 514.5 938 965.5> 1480 20<160 309 160 160>
VStem: 160 149<0 1209 0 1209 1209 1266.5 1351 1500> 611 149<0 1217 1217 1226 0 1217> 1062 150<0 1217 1217 1226 0 1217>
LayerCount: 2
Fore
SplineSet
160 0 m 1
 309 0 l 1
 309 1209 l 2
 309 1324 370 1381 475 1381 c 0
 554 1381 611 1348 611 1226 c 2
 611 0 l 1
 760 0 l 1
 760 1217 l 1
 760 1239 l 1
 768 1365 846 1381 925 1381 c 0
 1006 1381 1062 1345 1062 1226 c 2
 1062 0 l 1
 1212 0 l 1
 1212 1217 l 2
 1212 1429 1117 1519 993 1519 c 0
 883 1519 787 1456 739 1367 c 1
 705 1469 633 1519 538 1519 c 0
 424 1519 334 1436 309 1351 c 1
 309 1500 l 1
 160 1500 l 1
 160 0 l 1
EndSplineSet
EndChar

StartChar: macron
Encoding: 175 175 247
Width: 696
VWidth: 0
GlyphClass: 2
Flags: W
PickledData: "(dp1
S'com.fontlab.hintData'
p2
(dp3
S'vhints'
p4
((dp5
S'position'
p6
I90
sS'width'
p7
I495
stp8
sS'hhints'
p9
((dp10
g6
I-70
sg7
I113
stp11
ss."
HStem: -70 113<90 585 90 585>
VStem: 90 495<-70 43 -70 43>
LayerCount: 2
Fore
SplineSet
90 -70 m 1
 585 -70 l 1
 585 43 l 1
 90 43 l 1
 90 -70 l 1
EndSplineSet
EndChar

StartChar: minus
Encoding: 8722 8722 248
Width: 637
VWidth: 0
GlyphClass: 2
Flags: W
PickledData: "(dp1
S'com.fontlab.hintData'
p2
(dp3
S'vhints'
p4
((dp5
S'position'
p6
I20
sS'width'
p7
I596
stp8
sS'hhints'
p9
((dp10
g6
I626
sg7
I115
stp11
ss."
HStem: 626 115<20 616 20 616>
VStem: 20 596<626 741 626 741>
LayerCount: 2
Fore
SplineSet
20 626 m 1
 616 626 l 1
 616 741 l 1
 20 741 l 1
 20 626 l 1
EndSplineSet
EndChar

StartChar: mu
Encoding: 956 956 249
Width: 915
VWidth: 0
GlyphClass: 2
Flags: W
PickledData: "(dp1
S'com.fontlab.hintData'
p2
(dp3
S'vhints'
p4
((dp5
S'position'
p6
I148
sS'width'
p7
I150
s(dp8
g6
I612
sg7
I150
stp9
sS'hhints'
p10
((dp11
g6
I-20
sg7
I102
s(dp12
g6
I0
sg7
I21
s(dp13
g6
I1480
sg7
I20
stp14
ss."
HStem: -20 102<396.5 451 382 465.5> 0 21<613 762 762 762> 1480 20<148 298 148 148 612 762 612 612>
VStem: 148 150<-186 7 -186 7 125 1500> 612 150<228 300 300 1500>
LayerCount: 2
Fore
SplineSet
148 -186 m 1
 298 -186 l 1
 298 7 l 1
 325 -11 378 -20 415 -20 c 0
 516 -20 591 72 613 150 c 1
 613 0 l 1
 762 0 l 1
 762 1500 l 1
 612 1500 l 1
 612 300 l 2
 612 156 499 82 403 82 c 0
 361 82 322 96 298 125 c 1
 298 1500 l 1
 148 1500 l 1
 148 -186 l 1
EndSplineSet
EndChar

StartChar: multiply
Encoding: 215 215 250
Width: 710
VWidth: 0
GlyphClass: 2
Flags: W
PickledData: "(dp1
S'com.fontlab.hintData'
p2
(dp3
S'vhints'
p4
((dp5
S'position'
p6
I84
sS'width'
p7
I542
stp8
sS'hhints'
p9
((dp10
g6
I394
sg7
I542
stp11
ss."
HStem: 394 542<168 168 168 542>
VStem: 84 542<478 478 478 852>
LayerCount: 2
Fore
SplineSet
168 394 m 1
 355 582 l 1
 542 394 l 1
 626 478 l 1
 438 665 l 1
 626 852 l 1
 542 936 l 1
 355 748 l 1
 168 936 l 1
 84 852 l 1
 272 665 l 1
 84 478 l 1
 168 394 l 1
EndSplineSet
EndChar

StartChar: n
Encoding: 110 110 251
Width: 920
VWidth: 0
GlyphClass: 2
Flags: W
PickledData: "(dp1
S'com.fontlab.hintData'
p2
(dp3
S'vhints'
p4
((dp5
S'position'
p6
I160
sS'width'
p7
I149
s(dp8
g6
I623
sg7
I149
stp9
sS'hhints'
p10
((dp11
g6
I0
sg7
I21
s(dp12
g6
I1387
sg7
I132
s(dp13
g6
I1480
sg7
I20
stp14
ss."
HStem: 0 21<160 309 309 309 623 772 772 772> 1387 132<492.5 518> 1480 20<160 309 160 160>
VStem: 160 149<0 1220 0 1220 1220 1287 1353 1500> 623 149<0 1211 1211 1223 0 1211>
LayerCount: 2
Fore
SplineSet
160 0 m 1
 309 0 l 1
 309 1220 l 2
 309 1354 395 1387 478 1387 c 0
 558 1387 623 1346 623 1223 c 2
 623 0 l 1
 772 0 l 1
 772 1211 l 2
 772 1425 680 1519 551 1519 c 0
 434 1519 335 1438 309 1353 c 1
 309 1500 l 1
 160 1500 l 1
 160 0 l 1
EndSplineSet
EndChar

StartChar: nine
Encoding: 57 57 255
Width: 830
VWidth: 0
GlyphClass: 2
Flags: W
PickledData: "(dp1
S'com.fontlab.hintData'
p2
(dp3
S'vhints'
p4
((dp5
S'position'
p6
I109
sS'width'
p7
I150
s(dp8
g6
I150
sg7
I142
s(dp9
g6
I544
sg7
I150
stp10
sS'hhints'
p11
((dp12
g6
I-20
sg7
I123
s(dp13
g6
I662
sg7
I114
s(dp14
g6
I1653
sg7
I129
stp15
ss."
HStem: -20 123<328.911 514.274> 662 114<309.435 537.503> 1653 130<308.421 494.193>
VStem: 109 150<823.954 1226 1252 1601.02> 150 142<142.942 483> 544 150<127.5 542 787.192 803 1254 1600.94>
LayerCount: 2
UndoRedoHistory
Layer: 1
Undoes
EndUndoes
Redoes
EndRedoes
EndUndoRedoHistory
Fore
SplineSet
418 -20 m 0xec
 674 -20 694 186 694 542 c 2
 694 1254 l 2
 694 1548 675 1783 402 1783 c 0
 126 1783 109 1549 109 1252 c 2
 109 1226 l 2xf4
 109 857 151 662 394 662 c 0
 453 662 509 678 544 712 c 1
 544 523 l 2
 544 226 558 103 431 103 c 0
 311 103 294 157 292 483 c 1
 292 508 l 1
 149 508 l 1
 149 491 149 489 150 473 c 0
 155 140 200 -20 418 -20 c 0xec
408 776 m 0
 272 776 259 885 259 1208 c 2
 259 1257 l 2
 259 1518 268 1653 403 1653 c 0
 531 1653 544 1518 544 1255 c 2
 544 803 l 1
 524 794 483 776 408 776 c 0
EndSplineSet
EndChar

StartChar: numbersign
Encoding: 35 35 258
Width: 829
VWidth: 0
GlyphClass: 2
Flags: W
PickledData: "(dp1
S'com.fontlab.hintData'
p2
(dp3
S'hhints'
p4
((dp5
S'position'
p6
I0
sS'width'
p7
I21
s(dp8
g6
I670
sg7
I97
s(dp9
g6
I1041
sg7
I97
s(dp10
g6
I1740
sg7
I20
stp11
ss."
HStem: 0 21<22 133 133 133 350 452 452 452> 670 97<-12 154 154 154 -12 480 604 798> 1041 97<31 228 228 228 678 841> 1740 20<370 482 370 370 698 801 698 698>
LayerCount: 2
Fore
SplineSet
22 0 m 1
 133 0 l 1
 264 670 l 1
 480 670 l 1
 350 0 l 1
 452 0 l 1
 585 670 l 1
 798 670 l 1
 798 767 l 1
 604 767 l 1
 658 1041 l 1
 841 1041 l 1
 841 1138 l 1
 678 1138 l 1
 801 1760 l 1
 698 1760 l 1
 573 1138 l 1
 357 1138 l 1
 482 1760 l 1
 370 1760 l 1
 247 1138 l 1
 31 1138 l 1
 31 1041 l 1
 228 1041 l 1
 174 767 l 1
 -12 767 l 1
 -12 670 l 1
 154 670 l 1
 22 0 l 1
282 765 m 1
 336 1035 l 1
 555 1035 l 1
 502 765 l 1
 282 765 l 1
EndSplineSet
EndChar

StartChar: o
Encoding: 111 111 259
Width: 845
VWidth: 0
GlyphClass: 2
Flags: W
PickledData: "(dp1
S'com.fontlab.hintData'
p2
(dp3
S'vhints'
p4
((dp5
S'position'
p6
I128
sS'width'
p7
I149
s(dp8
g6
I568
sg7
I149
stp9
sS'hhints'
p10
((dp11
g6
I-18
sg7
I131
s(dp12
g6
I1387
sg7
I131
stp13
ss."
HStem: -18 131<359.5 488 359.5 565.5> 1387 131<358.5 488.5>
VStem: 128 149<463 515 515 1018> 568 149<358 1018 515 1018 1018 1053>
AnchorPoint: "ogonek" 421 0 basechar 0
LayerCount: 2
Fore
SplineSet
426 113 m 0
 293 113 277 253 277 463 c 2
 277 1053 l 2
 277 1250 291 1387 426 1387 c 0
 551 1387 568 1250 568 1053 c 2
 568 463 l 2
 568 253 550 113 426 113 c 0
426 -18 m 0
 705 -18 717 209 717 515 c 2
 717 1018 l 2
 717 1301 696 1518 426 1518 c 0
 157 1518 128 1300 128 1018 c 2
 128 515 l 2
 128 204 149 -18 426 -18 c 0
EndSplineSet
EndChar

StartChar: oe
Encoding: 339 339 264
Width: 1241
VWidth: 0
GlyphClass: 2
Flags: W
PickledData: "(dp1
S'com.fontlab.hintData'
p2
(dp3
S'vhints'
p4
((dp5
S'position'
p6
I128
sS'width'
p7
I149
s(dp8
g6
I567
sg7
I149
s(dp9
g6
I988
sg7
I149
stp10
sS'hhints'
p11
((dp12
g6
I-18
sg7
I131
s(dp13
g6
I754
sg7
I120
s(dp14
g6
I1388
sg7
I130
stp15
ss."
HStem: -18 131<358.5 476 803.5 919> 754 120<717 717 717 988> 1388 130<358 478.5 290.5 487.5>
VStem: 128 149<463 515 515 1018> 567 149<450 463 463 754 450 1053> 988 149<874 1002 1002 1068 874 874>
LayerCount: 2
Fore
SplineSet
425 -18 m 0
 527 -18 593 34 636 106 c 1
 680 33 748 -18 859 -18 c 0
 1134 -18 1132 202 1132 505 c 2
 1132 556 l 1
 987 556 l 1
 987 439 l 2
 987 231 980 113 858 113 c 0
 727 113 716 220 716 450 c 2
 716 754 l 1
 1137 754 l 1
 1137 1002 l 2
 1137 1292 1133 1518 864 1518 c 0
 757 1518 688 1467 643 1396 c 1
 601 1467 532 1518 425 1518 c 0
 156 1518 128 1300 128 1018 c 2
 128 515 l 2
 128 204 148 -18 425 -18 c 0
425 113 m 0
 292 113 277 253 277 463 c 2
 277 1053 l 2
 277 1250 291 1388 425 1388 c 0
 550 1388 567 1250 567 1053 c 2
 567 463 l 2
 567 253 550 113 425 113 c 0
717 874 m 1
 717 1063 l 2
 717 1259 735 1387 866 1387 c 0
 991 1387 988 1273 988 1068 c 2
 988 874 l 1
 717 874 l 1
EndSplineSet
EndChar

StartChar: ogonek
Encoding: 731 731 265
Width: 456
VWidth: 0
GlyphClass: 2
Flags: W
PickledData: "(dp1
S'com.fontlab.hintData'
p2
(dp3
S'vhints'
p4
((dp5
S'position'
p6
I69
sS'width'
p7
I94
stp8
sS'hhints'
p9
((dp10
g6
I-431
sg7
I92
s(dp11
g6
I-20
sg7
I20
stp12
ss."
HStem: -431 92<243.5 291> -20 20<245 309 245 245>
VStem: 69 94<-286.5 -242>
AnchorPoint: "ogonek" 271 0 mark 0
LayerCount: 2
Fore
SplineSet
259 -431 m 0
 323 -431 380 -416 390 -411 c 1
 390 -318 l 1
 389 -320 329 -339 271 -339 c 0
 216 -339 163 -321 163 -252 c 0
 163 -184 206 -88 309 0 c 1
 245 0 l 1
 121 -92 69 -199 69 -285 c 0
 69 -403 170 -431 259 -431 c 0
EndSplineSet
EndChar

StartChar: one
Encoding: 49 49 269
Width: 830
VWidth: 0
GlyphClass: 2
Flags: W
PickledData: "(dp1
S'com.fontlab.hintData'
p2
(dp3
S'vhints'
p4
((dp5
S'position'
p6
I409
sS'width'
p7
I149
s(dp8
g6
I469
sg7
I89
stp9
sS'hhints'
p10
((dp11
g6
I0
sg7
I21
s(dp12
g6
I1428
sg7
I93
s(dp13
g6
I1741
sg7
I20
stp14
ss."
HStem: 1428 93<151 275.828>
VStem: 469 89<1690.21 1760>
LayerCount: 2
UndoRedoHistory
Layer: 1
Undoes
EndUndoes
Redoes
EndRedoes
EndUndoRedoHistory
Fore
SplineSet
409 0 m 1
 558 0 l 1
 558 1760 l 1
 469 1760 l 1
 413 1628 257 1536 151 1521 c 1
 151 1428 l 1
 225 1428 361 1477 409 1534 c 1
 409 0 l 1
EndSplineSet
EndChar

StartChar: onehalf
Encoding: 189 189 270
Width: 1620
VWidth: 0
GlyphClass: 2
Flags: W
PickledData: "(dp1
S'com.fontlab.hintData'
p2
(dp3
S'vhints'
p4
((dp5
S'position'
p6
I267
sS'width'
p7
I116
s(dp8
g6
I312
sg7
I71
s(dp9
g6
I1127
sg7
I117
s(dp10
g6
I1431
sg7
I112
stp11
sS'hhints'
p12
((dp13
g6
I1
sg7
I97
s(dp14
g6
I1273
sg7
I99
s(dp15
g6
I1537
sg7
I75
s(dp16
g6
I1762
sg7
I20
stp17
ss."
HStem: 1273 99<1275.43 1402.18> 1537 75<100 197.388>
VStem: 312 71<1722.23 1783> 1127 117<98 271.784 904 1247.5> 1431 112<746.241 1253.21>
LayerCount: 2
UndoRedoHistory
Layer: 1
Undoes
EndUndoes
Redoes
EndRedoes
EndUndoRedoHistory
Fore
SplineSet
1131 0 m 1
 1523 0 l 1
 1523 98 l 1
 1243 98 l 1
 1243 98 1249 198 1305 315 c 1
 1470 669 l 2
 1520 774 1543 873 1543 997 c 0
 1543 1196 1525 1372 1358 1372 c 0
 1134 1372 1127 1196 1127 904 c 2
 1127 821 l 1
 1244 821 l 1
 1244 1001 l 2
 1244 1238 1290 1273 1341 1273 c 0
 1391 1273 1431 1236 1431 1013 c 0
 1431 920 1419 814 1377 724 c 2
 1210 365 l 2
 1152 240 1131 146 1131 74 c 2
 1131 0 l 1
267 424 m 1
 383 424 l 1
 383 1783 l 1
 312 1783 l 1
 266 1680 182 1625 100 1612 c 1
 100 1537 l 1
 157 1537 232 1560 267 1605 c 1
 267 424 l 1
489 0 m 1
 607 0 l 1
 1068 1783 l 1
 948 1783 l 1
 489 0 l 1
EndSplineSet
EndChar

StartChar: onequarter
Encoding: 188 188 271
Width: 1535
VWidth: 0
GlyphClass: 2
Flags: W
PickledData: "(dp1
S'com.fontlab.hintData'
p2
(dp3
S'vhints'
p4
((dp5
S'position'
p6
I267
sS'width'
p7
I116
s(dp8
g6
I312
sg7
I71
s(dp9
g6
I1190
sg7
I94
stp10
sS'hhints'
p11
((dp12
g6
I0
sg7
I21
s(dp13
g6
I244
sg7
I82
s(dp14
g6
I1537
sg7
I75
s(dp15
g6
I1762
sg7
I20
stp16
ss."
HStem: 1537 75<100 197.388>
VStem: 312 71<1722.23 1783> 1190 94<1177.24 1224>
LayerCount: 2
UndoRedoHistory
Layer: 1
Undoes
EndUndoes
Redoes
EndRedoes
EndUndoRedoHistory
Fore
SplineSet
1190 0 m 1
 1284 0 l 1
 1284 244 l 1
 1393 244 l 1
 1393 326 l 1
 1284 326 l 1
 1284 1224 l 1
 1189 1224 l 1
 911 314 l 1
 916 244 l 1
 1190 244 l 1
 1190 0 l 1
267 424 m 1
 383 424 l 1
 383 1783 l 1
 312 1783 l 1
 266 1680 182 1625 100 1612 c 1
 100 1537 l 1
 157 1537 232 1560 267 1605 c 1
 267 424 l 1
489 0 m 1
 607 0 l 1
 1068 1783 l 1
 948 1783 l 1
 489 0 l 1
1007 326 m 1
 1190 989 l 1
 1190 326 l 1
 1007 326 l 1
EndSplineSet
EndChar

StartChar: ordfeminine
Encoding: 170 170 272
Width: 765
VWidth: 0
GlyphClass: 2
Flags: W
PickledData: "(dp1
S'com.fontlab.hintData'
p2
(dp3
S'vhints'
p4
((dp5
S'position'
p6
I171
sS'width'
p7
I118
s(dp8
g6
I184
sg7
I121
s(dp9
g6
I521
sg7
I120
stp10
sS'hhints'
p11
((dp12
g6
I553
sg7
I100
s(dp13
g6
I1677
sg7
I105
stp14
ss."
HStem: 553 100<311.119 480.679> 1677 106<332.486 499.618>
VStem: 171 118<672.13 876 973 1133.05> 184 121<1404 1654> 521 120<686.579 732 1315.2 1331 1347 1655.72>
LayerCount: 2
UndoRedoHistory
Layer: 1
Undoes
EndUndoes
Redoes
EndRedoes
EndUndoRedoHistory
Fore
SplineSet
362 553 m 0xe8
 461 553 510 622 521 655 c 1
 521 563 l 1
 641 563 l 1
 641 1347 l 2
 641 1627 643 1783 416 1783 c 0
 193 1783 185 1600 185 1407 c 1
 185 1407 184 1375 184 1374 c 1
 305 1374 l 1
 305 1404 l 2xd8
 305 1600 315 1677 417 1677 c 0
 516 1677 521 1608 521 1423 c 2
 521 1331 l 1
 325 1245 171 1190 171 1019 c 2
 171 866 l 2
 171 664 234 553 362 553 c 0xe8
384 653 m 0
 307 653 289 714 289 876 c 2
 289 973 l 2xe8
 289 1128 322 1148 521 1237 c 1
 521 732 l 1
 502 700 447 653 384 653 c 0
EndSplineSet
EndChar

StartChar: ordmasculine
Encoding: 186 186 273
Width: 908
VWidth: 0
GlyphClass: 2
Flags: W
PickledData: "(dp1
S'com.fontlab.hintData'
p2
(dp3
S'vhints'
p4
((dp5
S'position'
p6
I239
sS'width'
p7
I119
s(dp8
g6
I590
sg7
I120
stp9
sS'hhints'
p10
((dp11
g6
I374
sg7
I104
s(dp12
g6
I1502
sg7
I105
stp13
ss."
HStem: 374 104<393.086 554.231> 1500 107<394.552 556.451>
VStem: 239 119<509.366 801 1205 1470.1> 590 120<510.254 801 1205 1470.51>
LayerCount: 2
UndoRedoHistory
Layer: 1
Undoes
EndUndoes
Redoes
EndRedoes
EndUndoRedoHistory
Fore
SplineSet
477 478 m 0
 368 478 358 591 358 760 c 2
 358 1234 l 2
 358 1392 369 1500 477 1500 c 0
 577 1500 590 1392 590 1234 c 2
 590 760 l 2
 590 592 578 478 477 478 c 0
477 374 m 0
 701 374 710 556 710 801 c 2
 710 1205 l 2
 710 1433 691 1607 477 1607 c 0
 262 1607 239 1432 239 1205 c 2
 239 801 l 2
 239 552 254 374 477 374 c 0
EndSplineSet
EndChar

StartChar: oslash
Encoding: 248 248 274
Width: 845
VWidth: 0
GlyphClass: 2
Flags: W
PickledData: "(dp1
S'com.fontlab.hintData'
p2
(dp3
S'vhints'
p4
((dp5
S'position'
p6
I128
sS'width'
p7
I149
s(dp8
g6
I568
sg7
I149
stp9
sS'hhints'
p10
((dp11
g6
I-18
sg7
I131
s(dp12
g6
I1387
sg7
I131
stp13
ss."
HStem: -18 131 1387 131
VStem: 128 149 568 149
LayerCount: 2
Fore
SplineSet
284 -223 m 1
 622 1738 l 1
 561 1746 l 1
 223 -215 l 1
 284 -223 l 1
EndSplineSet
Refer: 259 111 N 1 0 0 1 0 0 2
EndChar

StartChar: p
Encoding: 112 112 276
Width: 876
VWidth: 0
GlyphClass: 2
Flags: W
PickledData: "(dp1
S'com.fontlab.hintData'
p2
(dp3
S'vhints'
p4
((dp5
S'position'
p6
I163
sS'width'
p7
I149
s(dp8
g6
I599
sg7
I149
stp9
sS'hhints'
p10
((dp11
g6
I-265
sg7
I21
s(dp12
g6
I-18
sg7
I133
s(dp13
g6
I1386
sg7
I125
stp14
ss."
HStem: -265 21<163 312 312 312> -18 133<436.5 464 401 584> 1386 125<472 529>
VStem: 163 149<-265 108 -265 108 463 1059 1059 1205 1385 1500> 599 149<341 1013 475 1013 1013 1061>
LayerCount: 2
Fore
SplineSet
163 -265 m 1
 312 -265 l 1
 312 108 l 1
 338 40 401 -18 472 -18 c 0
 696 -18 748 194 748 475 c 2
 748 1013 l 2
 748 1298 716 1511 511 1511 c 0
 433 1511 353 1482 312 1385 c 1
 312 1500 l 1
 163 1500 l 1
 163 -265 l 1
464 115 m 1
 338 115 312 222 312 463 c 2
 312 1059 l 2
 312 1351 373 1386 470 1386 c 0
 588 1386 599 1259 599 1061 c 2
 599 468 l 2
 599 214 573 116 464 115 c 1
EndSplineSet
EndChar

StartChar: paragraph
Encoding: 182 182 277
Width: 989
VWidth: 0
GlyphClass: 2
Flags: W
PickledData: "(dp1
S'com.fontlab.hintData'
p2
(dp3
S'vhints'
p4
((dp5
S'position'
p6
I123
sS'width'
p7
I427
s(dp8
g6
I430
sg7
I120
s(dp9
g6
I703
sg7
I120
stp10
sS'hhints'
p11
((dp12
g6
I0
sg7
I21
s(dp13
g6
I1620
sg7
I140
stp14
ss."
HStem: 0 21<430 550 550 550 703 823 823 823> 1620 140<550 580 580 703 703 703>
VStem: 123 427<1390.5 1533> 430 120<0 1620 0 1180> 703 120<0 1620 0 1760>
LayerCount: 2
Fore
SplineSet
430 0 m 1
 550 0 l 1
 550 1620 l 1
 703 1620 l 1
 703 0 l 1
 823 0 l 1
 823 1760 l 1
 580 1760 l 2
 177 1760 123 1612 123 1454 c 0
 123 1327 225 1203 430 1180 c 1
 430 0 l 1
EndSplineSet
EndChar

StartChar: parenleft
Encoding: 40 40 278
Width: 546
VWidth: 0
GlyphClass: 2
Flags: W
PickledData: "(dp1
S'com.fontlab.hintData'
p2
(dp3
S'vhints'
p4
((dp5
S'position'
p6
I160
sS'width'
p7
I149
stp8
sS'hhints'
p9
((dp10
g6
I-117
sg7
I113
s(dp11
g6
I1669
sg7
I113
stp12
ss."
HStem: -117 113<333.415 448> 1669 114<333.415 448>
VStem: 160 149<13.0007 295 1370 1652.29>
LayerCount: 2
UndoRedoHistory
Layer: 1
Undoes
EndUndoes
Redoes
EndRedoes
EndUndoRedoHistory
Fore
SplineSet
448 -117 m 1
 448 -4 l 1
 328 -4 309 -12 309 291 c 2
 309 1374 l 2
 309 1677 328 1669 448 1669 c 1
 448 1783 l 1
 211 1783 160 1733 160 1370 c 2
 160 295 l 2
 160 -68 211 -117 448 -117 c 1
EndSplineSet
EndChar

StartChar: parenright
Encoding: 41 41 279
Width: 546
VWidth: 0
GlyphClass: 2
Flags: W
PickledData: "(dp1
S'com.fontlab.hintData'
p2
(dp3
S'vhints'
p4
((dp5
S'position'
p6
I237
sS'width'
p7
I149
stp8
sS'hhints'
p9
((dp10
g6
I-119
sg7
I113
s(dp11
g6
I1669
sg7
I113
stp12
ss."
HStem: -119 113<98 212.585> 1669 114<98 212.585>
VStem: 237 149<11.0007 293 1370 1652.29>
LayerCount: 2
UndoRedoHistory
Layer: 1
Undoes
EndUndoes
Redoes
EndRedoes
EndUndoRedoHistory
Fore
SplineSet
98 -119 m 1
 335 -119 386 -70 386 293 c 2
 386 1370 l 2
 386 1733 335 1783 98 1783 c 1
 98 1669 l 1
 218 1669 237 1677 237 1374 c 2
 237 289 l 2
 237 -14 218 -6 98 -6 c 1
 98 -119 l 1
EndSplineSet
EndChar

StartChar: partialdiff
Encoding: 8706 8706 280
Width: 961
VWidth: 0
GlyphClass: 2
Flags: W
PickledData: "(dp1
S'com.fontlab.hintData'
p2
(dp3
S'vhints'
p4
((dp5
S'position'
p6
I82
sS'width'
p7
I165
s(dp8
g6
I721
sg7
I148
stp9
sS'hhints'
p10
((dp11
g6
I-17
sg7
I134
s(dp12
g6
I960
sg7
I133
s(dp13
g6
I1546
sg7
I127
stp14
ss."
HStem: -17 134<356.5 458 356.5 501> 960 133<440.5 549 381.5 556.5> 1546 127<496.5 595.5>
VStem: 82 165<349.5 554.5 349.5 596.5> 721 148<1230.5 1345>
LayerCount: 2
Fore
SplineSet
421 -17 m 0
 581 -17 746 120 783 417 c 2
 847 925 l 2
 861 1039 869 1139 869 1227 c 0
 869 1525 778 1673 542 1673 c 0
 451 1673 339 1651 201 1607 c 1
 225 1485 l 1
 345 1527 437 1546 507 1546 c 0
 684 1546 721 1426 721 1264 c 0
 721 1197 715 1123 709 1047 c 1
 625 1079 581 1093 517 1093 c 0
 246 1093 82 749 82 444 c 0
 82 201 186 -17 421 -17 c 0
413 117 m 0
 300 117 247 264 247 435 c 0
 247 674 350 960 531 960 c 0
 582 960 615 947 687 919 c 1
 626 419 l 2
 601 217 503 117 413 117 c 0
EndSplineSet
EndChar

StartChar: percent
Encoding: 37 37 281
Width: 2078
VWidth: 0
GlyphClass: 2
Flags: W
PickledData: "(dp1
S'com.fontlab.hintData'
p2
(dp3
S'vhints'
p4
((dp5
S'position'
p6
I155
sS'width'
p7
I137
s(dp8
g6
I566
sg7
I138
s(dp9
g6
I1374
sg7
I138
s(dp10
g6
I1786
sg7
I137
stp11
sS'hhints'
p12
((dp13
g6
I-20
sg7
I137
s(dp14
g6
I0
sg7
I21
s(dp15
g6
I581
sg7
I137
s(dp16
g6
I1045
sg7
I136
s(dp17
g6
I1646
sg7
I136
s(dp18
g6
I1740
sg7
I20
stp19
ss."
HStem: -20 137<1544.48 1757.17> 581 137<320.828 537.592> 1045 136<1540.78 1756.8> 1646 137<321.201 537.218>
VStem: 155 137<752.157 1012 1364 1615.04> 566 138<744.104 1012 1364 1615.04> 1374 138<151.157 411 763 1013.79> 1786 137<151.157 411 763 1013.79>
LayerCount: 2
UndoRedoHistory
Layer: 1
Undoes
EndUndoes
Redoes
EndRedoes
EndUndoRedoHistory
Fore
SplineSet
429 718 m 0
 323 718 292 765 292 936 c 2
 292 1436 l 2
 292 1601 324 1646 429 1646 c 0
 535 1646 566 1601 566 1436 c 2
 566 936 l 2
 566 765 536 718 429 718 c 0
429 581 m 0
 653 581 704 672 704 1012 c 2
 704 1364 l 2
 704 1691 652 1783 429 1783 c 0
 207 1783 155 1691 155 1364 c 2
 155 1012 l 2
 155 672 206 581 429 581 c 0
1649 117 m 0
 1543 117 1512 164 1512 335 c 2
 1512 835 l 2
 1512 1000 1543 1045 1649 1045 c 0
 1754 1045 1786 1000 1786 835 c 2
 1786 335 l 2
 1786 164 1755 117 1649 117 c 0
1649 -20 m 0
 1872 -20 1923 71 1923 411 c 2
 1923 763 l 2
 1923 1090 1871 1181 1649 1181 c 0
 1426 1181 1374 1090 1374 763 c 2
 1374 411 l 2
 1374 71 1425 -20 1649 -20 c 0
607 0 m 1
 755 0 l 1
 1477 1760 l 1
 1337 1760 l 1
 607 0 l 1
EndSplineSet
EndChar

StartChar: period
Encoding: 46 46 282
Width: 532
VWidth: 0
GlyphClass: 2
Flags: W
PickledData: "(dp1
S'com.fontlab.hintData'
p2
(dp3
S'vhints'
p4
((dp5
S'position'
p6
I174
sS'width'
p7
I154
stp8
sS'hhints'
p9
((dp10
g6
I0
sg7
I164
stp11
ss."
HStem: 0 164<174 328 174 328>
VStem: 174 154<0 164 0 164>
LayerCount: 2
Fore
SplineSet
174 0 m 1
 328 0 l 1
 328 164 l 1
 174 164 l 1
 174 0 l 1
EndSplineSet
EndChar

StartChar: periodcentered
Encoding: 183 183 283
Width: 480
VWidth: 0
GlyphClass: 2
Flags: W
PickledData: "(dp1
S'com.fontlab.hintData'
p2
(dp3
S'vhints'
p4
((dp5
S'position'
p6
I163
sS'width'
p7
I170
stp8
sS'hhints'
p9
((dp10
g6
I786
sg7
I175
stp11
ss."
HStem: 786 175<163 333 163 333>
VStem: 163 170<786 961 786 961>
LayerCount: 2
Fore
SplineSet
163 786 m 1
 333 786 l 1
 333 961 l 1
 163 961 l 1
 163 786 l 1
EndSplineSet
EndChar

StartChar: perthousand
Encoding: 8240 8240 284
Width: 2930
VWidth: 0
GlyphClass: 2
Flags: W
PickledData: "(dp1
S'com.fontlab.hintData'
p2
(dp3
S'vhints'
p4
((dp5
S'position'
p6
I155
sS'width'
p7
I147
s(dp8
g6
I576
sg7
I148
s(dp9
g6
I1399
sg7
I147
s(dp10
g6
I1820
sg7
I147
s(dp11
g6
I2207
sg7
I147
s(dp12
g6
I2628
sg7
I147
stp13
sS'hhints'
p14
((dp15
g6
I-20
sg7
I137
s(dp16
g6
I0
sg7
I21
s(dp17
g6
I581
sg7
I137
s(dp18
g6
I1045
sg7
I136
s(dp19
g6
I1646
sg7
I136
s(dp20
g6
I1740
sg7
I20
stp21
ss."
HStem: -20 137<1578.13 1787.87 2386.13 2595.87> 581 137<334.305 544.099> 1045 136<1574.55 1791.26 2382.74 2599.45> 1646 137<330.74 547.68>
VStem: 155 147<752.157 1012 1364 1615.04> 576 148<744.104 1012 1364 1615.04> 1399 147<151.157 411 763 1013.79> 1820 147<151.157 411 763 1013.79> 2207 147<151.157 411 763 1013.79> 2628 147<151.157 411 763 1013.79>
LayerCount: 2
UndoRedoHistory
Layer: 1
Undoes
EndUndoes
Redoes
EndRedoes
EndUndoRedoHistory
Fore
SplineSet
439 718 m 0
 333 718 302 765 302 936 c 2
 302 1436 l 2
 302 1601 334 1646 439 1646 c 0
 545 1646 576 1601 576 1436 c 2
 576 936 l 2
 576 765 546 718 439 718 c 0
439 581 m 0
 663 581 724 672 724 1012 c 2
 724 1364 l 2
 724 1691 662 1783 439 1783 c 0
 217 1783 155 1691 155 1364 c 2
 155 1012 l 2
 155 672 216 581 439 581 c 0
1683 117 m 0
 1577 117 1546 164 1546 335 c 2
 1546 835 l 2
 1546 1000 1577 1045 1683 1045 c 0
 1788 1045 1820 1000 1820 835 c 2
 1820 335 l 2
 1820 164 1789 117 1683 117 c 0
1683 -20 m 0
 1907 -20 1967 71 1967 411 c 2
 1967 763 l 2
 1967 1090 1905 1181 1683 1181 c 0
 1461 1181 1399 1090 1399 763 c 2
 1399 411 l 2
 1399 71 1459 -20 1683 -20 c 0
2491 117 m 0
 2385 117 2354 164 2354 335 c 2
 2354 835 l 2
 2354 1000 2386 1045 2491 1045 c 0
 2597 1045 2628 1000 2628 835 c 2
 2628 335 l 2
 2628 164 2597 117 2491 117 c 0
2491 -20 m 0
 2715 -20 2775 71 2775 411 c 2
 2775 763 l 2
 2775 1090 2713 1181 2491 1181 c 0
 2269 1181 2207 1090 2207 763 c 2
 2207 411 l 2
 2207 71 2267 -20 2491 -20 c 0
617 0 m 1
 765 0 l 1
 1487 1760 l 1
 1347 1760 l 1
 617 0 l 1
EndSplineSet
EndChar

StartChar: plus
Encoding: 43 43 285
Width: 766
VWidth: 0
GlyphClass: 2
Flags: W
PickledData: "(dp1
S'com.fontlab.hintData'
p2
(dp3
S'vhints'
p4
((dp5
S'position'
p6
I322
sS'width'
p7
I118
stp8
sS'hhints'
p9
((dp10
g6
I842
sg7
I106
stp11
ss."
HStem: 842 106<92 322 92 322 440 674>
VStem: 322 118<576 842 576 842 576 948 948 1208>
LayerCount: 2
Fore
SplineSet
322 576 m 1
 440 576 l 1
 440 842 l 1
 674 842 l 1
 674 948 l 1
 440 948 l 1
 440 1208 l 1
 322 1208 l 1
 322 948 l 1
 92 948 l 1
 92 842 l 1
 322 842 l 1
 322 576 l 1
EndSplineSet
EndChar

StartChar: plusminus
Encoding: 177 177 286
Width: 854
VWidth: 0
GlyphClass: 2
Flags: W
PickledData: "(dp1
S'com.fontlab.hintData'
p2
(dp3
S'vhints'
p4
((dp5
S'position'
p6
I368
sS'width'
p7
I118
stp8
sS'hhints'
p9
((dp10
g6
I259
sg7
I118
s(dp11
g6
I820
sg7
I106
stp12
ss."
HStem: 259 118<173 689 173 689> 820 106<138 368 138 368 486 720>
VStem: 368 118<554 820 554 820 554 926 926 1185>
LayerCount: 2
Fore
SplineSet
368 554 m 1
 486 554 l 1
 486 820 l 1
 720 820 l 1
 720 926 l 1
 486 926 l 1
 486 1185 l 1
 368 1185 l 1
 368 926 l 1
 138 926 l 1
 138 820 l 1
 368 820 l 1
 368 554 l 1
173 259 m 1
 689 259 l 1
 689 377 l 1
 173 377 l 1
 173 259 l 1
EndSplineSet
EndChar

StartChar: product
Encoding: 8719 8719 287
Width: 955
VWidth: 0
GlyphClass: 2
Flags: W
PickledData: "(dp1
S'com.fontlab.hintData'
p2
(dp3
S'vhints'
p4
((dp5
S'position'
p6
I166
sS'width'
p7
I150
s(dp8
g6
I639
sg7
I150
stp9
sS'hhints'
p10
((dp11
g6
I0
sg7
I21
s(dp12
g6
I1649
sg7
I111
stp13
ss."
HStem: 0 21<166 316 316 316 639 789 789 789> 1649 111<316 639 639 639>
VStem: 166 150<0 1649 0 1649 0 1760> 639 150<0 1649 0 1760>
LayerCount: 2
Fore
SplineSet
166 0 m 1
 316 0 l 1
 316 1649 l 1
 639 1649 l 1
 639 0 l 1
 789 0 l 1
 789 1760 l 1
 166 1760 l 1
 166 0 l 1
EndSplineSet
EndChar

StartChar: q
Encoding: 113 113 288
Width: 853
VWidth: 0
GlyphClass: 2
Flags: W
PickledData: "(dp1
S'com.fontlab.hintData'
p2
(dp3
S'vhints'
p4
((dp5
S'position'
p6
I128
sS'width'
p7
I148
s(dp8
g6
I565
sg7
I150
stp9
sS'hhints'
p10
((dp11
g6
I-265
sg7
I21
s(dp12
g6
I-18
sg7
I132
s(dp13
g6
I1385
sg7
I126
stp14
ss."
HStem: -265 21<565 715 715 715> -18 132<347 439.5> 1385 126<260.5 476>
VStem: 128 148<437 479 479 1013> 565 150<-265 1500 -265 106 1381 1381 1381 1500>
LayerCount: 2
Fore
SplineSet
565 -265 m 1
 715 -265 l 1
 715 1500 l 1
 565 1500 l 1
 565 1381 l 1
 524 1480 442 1511 364 1511 c 0
 157 1511 128 1298 128 1013 c 2
 128 479 l 2
 128 198 178 -18 404 -18 c 0
 475 -18 537 39 565 106 c 1
 565 -265 l 1
406 114 m 0
 288 114 276 241 276 437 c 2
 276 1031 l 2
 276 1286 303 1384 412 1385 c 1
 540 1385 564 1276 564 1037 c 2
 564 441 l 2
 564 147 502 114 406 114 c 0
EndSplineSet
EndChar

StartChar: question
Encoding: 63 63 289
Width: 708
VWidth: 0
GlyphClass: 2
Flags: W
PickledData: "(dp1
S'com.fontlab.hintData'
p2
(dp3
S'vhints'
p4
((dp5
S'position'
p6
I158
sS'width'
p7
I132
s(dp8
g6
I227
sg7
I126
s(dp9
g6
I491
sg7
I132
stp10
sS'hhints'
p11
((dp12
g6
I1
sg7
I21
s(dp13
g6
I1661
sg7
I121
stp14
ss."
HStem: 1661 122<320.187 463.28>
VStem: 158 132<1365 1636.42> 491 132<987.691 1639.35>
LayerCount: 2
UndoRedoHistory
Layer: 1
Undoes
EndUndoes
Redoes
EndRedoes
EndUndoRedoHistory
Fore
SplineSet
228 494 m 1
 353 494 l 1
 353 750 l 1
 562 808 623 968 623 1314 c 0
 623 1590 631 1783 392 1783 c 0
 121 1783 158 1510 158 1365 c 2
 158 1160 l 1
 290 1160 l 1
 290 1375 l 2
 290 1596 309 1661 396 1661 c 0
 476 1661 491 1578 491 1369 c 0
 491 1025 476 901 228 810 c 1
 228 494 l 1
227 0 m 1
 353 0 l 1
 353 299 l 1
 227 299 l 1
 227 0 l 1
EndSplineSet
EndChar

StartChar: quotedbl
Encoding: 34 34 291
Width: 771
VWidth: 0
GlyphClass: 2
Flags: W
PickledData: "(dp1
S'com.fontlab.hintData'
p2
(dp3
S'vhints'
p4
((dp5
S'position'
p6
I196
sS'width'
p7
I156
s(dp8
g6
I196
sg7
I64
s(dp9
g6
I487
sg7
I157
s(dp10
g6
I487
sg7
I64
stp11
sS'hhints'
p12
((dp13
g6
I1125
sg7
I635
stp14
ss."
HStem: 1125 635<196 260 260 260 487 551 551 551>
VStem: 196 156<1125 1760> 196 64<1125 1125 1125 1760> 487 157<1125 1760> 487 64<1125 1125 1125 1760>
LayerCount: 2
Fore
SplineSet
196 1125 m 1
 260 1125 l 1
 352 1760 l 1
 196 1760 l 1
 196 1125 l 1
487 1125 m 1
 551 1125 l 1
 644 1760 l 1
 487 1760 l 1
 487 1125 l 1
EndSplineSet
EndChar

StartChar: quotedblbase
Encoding: 8222 8222 292
Width: 1016
VWidth: 0
GlyphClass: 2
Flags: W
PickledData: "(dp1
S'com.fontlab.hintData'
p2
(dp3
S'vhints'
p4
((dp5
S'position'
p6
I181
sS'width'
p7
I275
s(dp8
g6
I233
sg7
I103
s(dp9
g6
I628
sg7
I275
s(dp10
g6
I680
sg7
I103
stp11
sS'hhints'
p12
((dp13
g6
I0
sg7
I206
stp14
ss."
HStem: 0 206<181 327 327 327 628 774 774 774>
VStem: 181 275<9 206 9 206 0 206> 233 103<-428 -428> 628 275<9 206 9 206 0 206> 680 103<-428 -428>
LayerCount: 2
Fore
SplineSet
233 -428 m 1
 336 -428 l 1
 456 9 l 1
 456 206 l 1
 181 206 l 1
 181 0 l 1
 327 0 l 1
 233 -428 l 1
680 -428 m 1
 783 -428 l 1
 903 9 l 1
 903 206 l 1
 628 206 l 1
 628 0 l 1
 774 0 l 1
 680 -428 l 1
EndSplineSet
EndChar

StartChar: quotedblleft
Encoding: 8220 8220 293
Width: 1030
VWidth: 0
GlyphClass: 2
Flags: W
PickledData: "(dp1
S'com.fontlab.hintData'
p2
(dp3
S'vhints'
p4
((dp5
S'position'
p6
I176
sS'width'
p7
I275
s(dp8
g6
I295
sg7
I104
s(dp9
g6
I623
sg7
I275
s(dp10
g6
I742
sg7
I103
stp11
sS'hhints'
p12
((dp13
g6
I1149
sg7
I206
s(dp14
g6
I1763
sg7
I20
stp15
ss."
HStem: 1149 206<305 451 305 451 305 451 752 898> 1763 20<295 399 295 295 742 742 742 845>
VStem: 176 275<1149 1355 1149 1346> 295 104<1783 1783> 623 275<1149 1355 1149 1346> 742 103<1783 1783>
LayerCount: 2
Fore
SplineSet
176 1149 m 1
 451 1149 l 1
 451 1355 l 1
 305 1355 l 1
 399 1783 l 1
 295 1783 l 1
 176 1346 l 1
 176 1149 l 1
623 1149 m 1
 898 1149 l 1
 898 1355 l 1
 752 1355 l 1
 845 1783 l 1
 742 1783 l 1
 623 1346 l 1
 623 1149 l 1
EndSplineSet
EndChar

StartChar: quotedblright
Encoding: 8221 8221 294
Width: 1077
VWidth: 0
GlyphClass: 2
Flags: W
PickledData: "(dp1
S'com.fontlab.hintData'
p2
(dp3
S'vhints'
p4
((dp5
S'position'
p6
I191
sS'width'
p7
I275
s(dp8
g6
I243
sg7
I103
s(dp9
g6
I638
sg7
I275
s(dp10
g6
I690
sg7
I103
stp11
sS'hhints'
p12
((dp13
g6
I1576
sg7
I206
stp14
ss."
HStem: 1148 635
VStem: 243 103<1148 1200.21> 690 103<1148 1200.21>
LayerCount: 2
UndoRedoHistory
Layer: 1
Undoes
EndUndoes
Redoes
EndRedoes
EndUndoRedoHistory
Fore
SplineSet
243 1148 m 1
 346 1148 l 1
 466 1585 l 1
 466 1783 l 1
 191 1783 l 1
 191 1576 l 1
 337 1576 l 1
 243 1148 l 1
690 1148 m 1
 793 1148 l 1
 913 1585 l 1
 913 1783 l 1
 638 1783 l 1
 638 1576 l 1
 783 1576 l 1
 690 1148 l 1
EndSplineSet
EndChar

StartChar: quoteleft
Encoding: 8216 8216 295
Width: 597
VWidth: 0
GlyphClass: 2
Flags: W
PickledData: "(dp1
S'com.fontlab.hintData'
p2
(dp3
S'vhints'
p4
((dp5
S'position'
p6
I167
sS'width'
p7
I271
s(dp8
g6
I281
sg7
I106
stp9
sS'hhints'
p10
((dp11
g6
I1163
sg7
I202
s(dp12
g6
I1762
sg7
I20
stp13
ss."
HStem: 1163 620
VStem: 281 106<1729.3 1783>
LayerCount: 2
UndoRedoHistory
Layer: 1
Undoes
EndUndoes
Redoes
EndRedoes
EndUndoRedoHistory
Fore
SplineSet
167 1163 m 1
 438 1163 l 1
 438 1365 l 1
 296 1365 l 1
 387 1783 l 1
 281 1783 l 1
 167 1356 l 1
 167 1163 l 1
EndSplineSet
EndChar

StartChar: quoteright
Encoding: 8217 8217 296
Width: 597
VWidth: 0
GlyphClass: 2
Flags: W
PickledData: "(dp1
S'com.fontlab.hintData'
p2
(dp3
S'vhints'
p4
((dp5
S'position'
p6
I189
sS'width'
p7
I271
s(dp8
g6
I240
sg7
I106
stp9
sS'hhints'
p10
((dp11
g6
I1580
sg7
I202
stp12
ss."
HStem: 1163 620
VStem: 240 106<1163 1216.57>
LayerCount: 2
UndoRedoHistory
Layer: 1
Undoes
EndUndoes
Redoes
EndRedoes
EndUndoRedoHistory
Fore
SplineSet
240 1163 m 1
 346 1163 l 1
 460 1589 l 1
 460 1783 l 1
 189 1783 l 1
 189 1580 l 1
 331 1580 l 1
 240 1163 l 1
EndSplineSet
EndChar

StartChar: quotesinglbase
Encoding: 8218 8218 297
Width: 484
VWidth: 0
GlyphClass: 2
Flags: W
PickledData: "(dp1
S'com.fontlab.hintData'
p2
(dp3
S'vhints'
p4
((dp5
S'position'
p6
I113
sS'width'
p7
I275
s(dp8
g6
I166
sg7
I103
stp9
sS'hhints'
p10
((dp11
g6
I0
sg7
I207
stp12
ss."
HStem: 0 207<113 259 259 259>
VStem: 113 275<9 207 9 207 0 207> 166 103<-437 -437>
LayerCount: 2
Fore
SplineSet
166 -437 m 1
 269 -437 l 1
 388 9 l 1
 388 207 l 1
 113 207 l 1
 113 0 l 1
 259 0 l 1
 166 -437 l 1
EndSplineSet
EndChar

StartChar: quotesingle
Encoding: 39 39 298
Width: 404
VWidth: 0
GlyphClass: 2
Flags: W
PickledData: "(dp1
S'com.fontlab.hintData'
p2
(dp3
S'vhints'
p4
((dp5
S'position'
p6
I184
sS'width'
p7
I33
stp8
sS'hhints'
p9
((dp10
g6
I1125
sg7
I636
stp11
ss."
HStem: 1125 635
VStem: 184 33<1125 1265.05>
LayerCount: 2
UndoRedoHistory
Layer: 1
Undoes
EndUndoes
Redoes
EndRedoes
EndUndoRedoHistory
Fore
SplineSet
184 1125 m 1
 217 1125 l 1
 282 1760 l 1
 124 1760 l 1
 184 1125 l 1
EndSplineSet
EndChar

StartChar: r
Encoding: 114 114 299
Width: 605
VWidth: 0
GlyphClass: 2
Flags: W
PickledData: "(dp1
S'com.fontlab.hintData'
p2
(dp3
S'vhints'
p4
((dp5
S'position'
p6
I160
sS'width'
p7
I149
stp8
sS'hhints'
p9
((dp10
g6
I0
sg7
I21
s(dp11
g6
I1391
sg7
I127
s(dp12
g6
I1480
sg7
I20
stp13
ss."
HStem: 0 21<160 309 309 309> 1391 127<517.5 566.5 497.5 567> 1480 20<160 309 160 160>
VStem: 160 149<0 1246 0 1246 1333 1500>
LayerCount: 2
Fore
SplineSet
160 0 m 1
 309 0 l 1
 309 1246 l 1
 390 1361 468 1391 567 1391 c 1
 567 1391 569 1518 564 1518 c 0
 431 1518 343 1449 309 1333 c 1
 309 1500 l 1
 160 1500 l 1
 160 0 l 1
EndSplineSet
EndChar

StartChar: radical
Encoding: 8730 8730 301
Width: 1152
VWidth: 0
GlyphClass: 2
Flags: W
PickledData: "(dp1
S'com.fontlab.hintData'
p2
(dp3
S'hhints'
p4
((dp5
S'position'
p6
I0
sS'width'
p7
I21
s(dp8
g6
I1367
sg7
I133
stp9
ss."
HStem: 0 21<349 503 503 503> 1367 133<777 1091 638 1091>
LayerCount: 2
Fore
SplineSet
349 0 m 1
 503 0 l 1
 777 1367 l 1
 1091 1367 l 1
 1091 1500 l 1
 638 1500 l 1
 411 218 l 1
 197 741 l 1
 58 741 l 1
 349 0 l 1
EndSplineSet
EndChar

StartChar: registered
Encoding: 174 174 304
Width: 1502
VWidth: 0
GlyphClass: 2
Flags: W
PickledData: "(dp1
S'com.fontlab.hintData'
p2
(dp3
S'vhints'
p4
((dp5
S'position'
p6
I76
sS'width'
p7
I81
s(dp8
g6
I527
sg7
I120
s(dp9
g6
I849
sg7
I118
s(dp10
g6
I1309
sg7
I81
stp11
sS'hhints'
p12
((dp13
g6
I205
sg7
I66
s(dp14
g6
I864
sg7
I87
s(dp15
g6
I1210
sg7
I88
s(dp16
g6
I1453
sg7
I66
stp17
ss."
HStem: 205 66<570 896 570 919.5> 864 87<648 648 648 707> 1210 88<648 733> 1453 66<570 896>
VStem: 76 81<697.5 1026.5 697.5 1048.5> 527 120<446 864 446 864 446 1298> 849 118<446 748 446 787> 1309 81<697.5 1026.5>
LayerCount: 2
Fore
SplineSet
527 446 m 1
 647 446 l 1
 647 864 l 1
 767 864 849 888 849 748 c 2
 849 446 l 1
 967 446 l 1
 967 787 l 2
 967 858 911 900 858 910 c 1
 930 933 981 983 981 1075 c 0
 981 1080.85222412 980.882109125 1086.56813692 980.648349981 1092.15010528 c 0
 974.211520954 1245.85607524 879.918727558 1298 740 1298 c 2
 527 1298 l 1
 527 446 l 1
733 271 m 0
 407 271 157 533 157 862 c 0
 157 1191 407 1453 733 1453 c 0
 1059 1453 1309 1191 1309 862 c 0
 1309 533 1059 271 733 271 c 0
733 205 m 0
 1106 205 1390 489 1390 862 c 0
 1390 1235 1106 1519 733 1519 c 0
 360 1519 76 1235 76 862 c 0
 76 489 360 205 733 205 c 0
648 951 m 1
 648 1210 l 1
 818 1210 863 1187 863 1076 c 0
 863 994 811 951 726 951 c 2
 648 951 l 1
EndSplineSet
EndChar

StartChar: ring
Encoding: 730 730 305
Width: 923
VWidth: 0
GlyphClass: 2
Flags: W
PickledData: "(dp1
S'com.fontlab.hintData'
p2
(dp3
S'vhints'
p4
((dp5
S'position'
p6
I294
sS'width'
p7
I72
s(dp8
g6
I563
sg7
I69
stp9
sS'hhints'
p10
((dp11
g6
I1477
sg7
I51
s(dp12
g6
I1732
sg7
I50
stp13
ss."
HStem: 1477 51<396.792 530.641> 1732 51<396.792 530.641>
VStem: 294 72<1549.33 1710.21> 563 69<1551.66 1707.86>
LayerCount: 2
UndoRedoHistory
Layer: 1
Undoes
EndUndoes
Redoes
EndRedoes
EndUndoRedoHistory
Fore
SplineSet
463 1528 m 0
 399 1528 366 1579 366 1630 c 0
 366 1681 399 1732 463 1732 c 0
 530 1732 563 1681 563 1630 c 0
 563 1579 530 1528 463 1528 c 0
463 1477 m 0
 578 1477 632 1556 632 1629 c 0
 632 1703 578 1783 463 1783 c 0
 349 1783 294 1703 294 1629 c 0
 294 1556 349 1477 463 1477 c 0
EndSplineSet
EndChar

StartChar: s
Encoding: 115 115 306
Width: 744
VWidth: 0
GlyphClass: 2
Flags: W
PickledData: "(dp1
S'com.fontlab.hintData'
p2
(dp3
S'vhints'
p4
((dp5
S'position'
p6
I102
sS'width'
p7
I149
s(dp8
g6
I513
sg7
I140
s(dp9
g6
I529
sg7
I154
stp10
sS'hhints'
p11
((dp12
g6
I-20
sg7
I136
s(dp13
g6
I1381
sg7
I137
stp14
ss."
HStem: -20 136<345.5 441.5 345.5 502> 1381 137<327 424.5>
VStem: 102 149<257.5 536 433 536 433 536> 513 140<957 1051 1051 1078 957 1051> 529 154<251 390>
AnchorPoint: "cedilla" 370 0 basechar 0
LayerCount: 2
Fore
SplineSet
406 -20 m 0
 598 -20 683 121 683 325 c 0
 683 485 632 623 491 761 c 2
 386 864 l 2
 263 986 243 1057 243 1150 c 0
 243 1286 276 1381 378 1381 c 0
 471 1381 513 1288 513 1078 c 2
 513 957 l 1
 653 957 l 1
 653 1051 l 2
 653 1407 543 1518 375 1518 c 0
 207 1518 93 1410 93 1186 c 0
 93 1035 140 904 277 775 c 2
 388 670 l 2
 522 543 529 446 529 334 c 0
 529 168 490 116 393 116 c 0
 298 116 251 230 251 433 c 2
 251 536 l 1
 102 536 l 1
 102 407 l 2
 102 108 197 -20 406 -20 c 0
EndSplineSet
EndChar

StartChar: section
Encoding: 167 167 312
Width: 764
VWidth: 0
GlyphClass: 2
Flags: W
PickledData: "(dp1
S'com.fontlab.hintData'
p2
(dp3
S'vhints'
p4
((dp5
S'position'
p6
I126
sS'width'
p7
I115
s(dp8
g6
I129
sg7
I137
s(dp9
g6
I519
sg7
I118
s(dp10
g6
I547
sg7
I133
stp11
sS'hhints'
p12
((dp13
g6
I1658
sg7
I124
stp14
ss."
HStem: 1658 125<295.231 500.463>
VStem: 126 115<925.287 1150.18> 129 137<159.343 409 1317.72 1623.63> 519 118<682.033 900.182> 547 133<1327 1607.05>
LayerCount: 2
UndoRedoHistory
Layer: 1
Undoes
EndUndoes
Redoes
EndRedoes
EndUndoRedoHistory
Fore
SplineSet
419 -20 m 0xa0
 621 -22 716 121 696 325 c 0
 688 409 654 520 591 600 c 1
 616 658 637 713 637 766 c 0xb0
 637 889.698687017 582.295663966 977.09823517 515.657343654 1060.36779792 c 0
 489.097993951 1093.5556908 460.642932713 1126.08753616 433 1160 c 0
 304 1318 261 1357 263 1500 c 0
 265 1639 343 1658 415 1658 c 0
 526 1658 547 1535 547 1327 c 2
 547 1220 l 1
 680 1220 l 1
 680 1360 l 2
 680 1656 611 1783 407 1783 c 0
 233 1783 118 1696 127 1475 c 0
 130 1399 152 1328 208 1236 c 1
 131 1163 126 1077 126 1015 c 0xc8
 126 923.956184685 181.916809741 846.06926578 253.806053239 769.312979548 c 0
 281.013052883 740.264012684 310.507781491 711.376986146 340.125 682 c 0
 448 575 557.5 461.5 564 310 c 0
 571 139 496 94 397 104 c 0
 302 114 266 206 266 409 c 2
 266 526 l 1
 129 526 l 1
 129 397 l 2
 129 98 210 -18 419 -20 c 0xa0
512 681 m 1
 392 811 247 918 241 1040 c 0xd0
 239 1082 243 1113 270 1152 c 1
 453 926 519 888 519 759 c 1
 518 757 517 697 512 681 c 1
EndSplineSet
EndChar

StartChar: semicolon
Encoding: 59 59 313
Width: 561
VWidth: 0
GlyphClass: 2
Flags: W
PickledData: "(dp1
S'com.fontlab.hintData'
p2
(dp3
S'vhints'
p4
((dp5
S'position'
p6
I179
sS'width'
p7
I183
s(dp8
g6
I181
sg7
I200
s(dp9
g6
I200
sg7
I77
stp10
sS'hhints'
p11
((dp12
g6
I0
sg7
I21
s(dp13
g6
I350
sg7
I173
s(dp14
g6
I1048
sg7
I231
stp15
ss."
HStem: 0 21<200 277 277 277> 350 173<181 296 296 296> 1048 231<179 362 179 362>
VStem: 179 183<1048 1279 1048 1279> 181 200<359 523 359 523 350 523> 200 77<0 0>
LayerCount: 2
Fore
SplineSet
200 0 m 1
 277 0 l 1
 381 359 l 1
 381 523 l 1
 181 523 l 1
 181 350 l 1
 296 350 l 1
 200 0 l 1
179 1048 m 1
 362 1048 l 1
 362 1279 l 1
 179 1279 l 1
 179 1048 l 1
EndSplineSet
EndChar

StartChar: seven
Encoding: 55 55 314
Width: 830
VWidth: 0
GlyphClass: 2
Flags: W
PickledData: "(dp1
S'com.fontlab.hintData'
p2
(dp3
S'vhints'
p4
((dp5
S'position'
p6
I236
sS'width'
p7
I155
stp8
sS'hhints'
p9
((dp10
g6
I1
sg7
I21
s(dp11
g6
I1643
sg7
I117
stp12
ss."
VStem: 236 155<0 392.69>
LayerCount: 2
UndoRedoHistory
Layer: 1
Undoes
EndUndoes
Redoes
EndRedoes
EndUndoRedoHistory
Fore
SplineSet
236 0 m 1
 391 0 l 1
 420 453 506 874 582 1175 c 0
 659 1476 726 1662 728 1653 c 1
 728 1760 l 1
 95 1760 l 1
 95 1643 l 1
 598 1643 l 1
 598 1643 522 1472 434 1165 c 1
 358 886 274 476 236 0 c 1
EndSplineSet
EndChar

StartChar: six
Encoding: 54 54 315
Width: 830
VWidth: 0
GlyphClass: 2
Flags: W
PickledData: "(dp1
S'com.fontlab.hintData'
p2
(dp3
S'vhints'
p4
((dp5
S'position'
p6
I136
sS'width'
p7
I148
s(dp8
g6
I559
sg7
I152
s(dp9
g6
I595
sg7
I150
stp10
sS'hhints'
p11
((dp12
g6
I-20
sg7
I127
s(dp13
g6
I978
sg7
I124
s(dp14
g6
I1655
sg7
I127
stp15
ss."
HStem: -20 127<336.349 551.836> 978 124<327.878 539.368> 1655 128<331.403 522.692>
VStem: 136 148<159.537 506 926 948.071 1255 1612.55> 559 152<1283 1624.28> 595 150<156.345 446 547 920.403>
LayerCount: 2
UndoRedoHistory
Layer: 1
Undoes
EndUndoes
Redoes
EndRedoes
EndUndoRedoHistory
Fore
SplineSet
442 -20 m 0xf8
 684 -20 745 145 745 442 c 2
 745 559 l 2xf4
 745 960 676 1113 441 1102 c 0
 383 1099 327 1071 284 1013 c 1
 284 1255 l 2
 284 1574 301 1655 433 1655 c 0
 549 1655 558 1574 559 1283 c 1
 559 1252 l 1
 711 1252 l 1
 711 1284 l 1
 707 1619 677 1783 440 1783 c 0
 185 1783 136 1620 136 1264 c 2
 136 506 l 2
 136 210 169 -20 442 -20 c 0xf8
442 107 m 0
 292 107 284 226 284 504 c 2
 284 926 l 1
 303 931 359 978 453 978 c 0
 571 978 595 870 595 547 c 2
 595 446 l 2
 595 170 564 107 442 107 c 0
EndSplineSet
EndChar

StartChar: slash
Encoding: 47 47 316
Width: 743
VWidth: 0
GlyphClass: 2
Flags: W
PickledData: "(dp1
S'com.fontlab.hintData'
p2
(dp3
S'vhints'
p4
((dp5
S'position'
p6
I88
sS'width'
p7
I585
stp8
sS'hhints'
p9
((dp10
g6
I0
sg7
I21
s(dp11
g6
I1762
sg7
I20
stp12
ss."
LayerCount: 2
UndoRedoHistory
Layer: 1
Undoes
EndUndoes
Redoes
EndRedoes
EndUndoRedoHistory
Fore
SplineSet
88 0 m 1
 222 0 l 1
 673 1783 l 1
 538 1783 l 1
 88 0 l 1
EndSplineSet
EndChar

StartChar: sterling
Encoding: 163 163 318
Width: 830
VWidth: 0
GlyphClass: 2
Flags: W
PickledData: "(dp1
S'com.fontlab.hintData'
p2
(dp3
S'vhints'
p4
((dp5
S'position'
p6
I182
sS'width'
p7
I144
s(dp8
g6
I627
sg7
I129
stp9
sS'hhints'
p10
((dp11
g6
I0
sg7
I110
s(dp12
g6
I817
sg7
I103
s(dp13
g6
I1658
sg7
I124
stp14
ss."
HStem: 1658 125<371.099 589.6>
VStem: 182 144<1066.73 1609.69> 627 129<1392 1619.78>
LayerCount: 2
UndoRedoHistory
Layer: 1
Undoes
EndUndoes
Redoes
EndRedoes
EndUndoRedoHistory
Fore
SplineSet
118 0 m 1
 778 0 l 1
 778 110 l 1
 329 110 l 1
 471 188 505 311 448 643 c 2
 418 817 l 1
 700 817 l 1
 700 920 l 1
 398 920 l 1
 361 1120 l 2
 342 1226 326 1347 326 1409 c 0
 326 1615 388 1658 483 1658 c 0
 575 1658 627 1625 627 1404 c 2
 627 1246 l 1
 756 1246 l 1
 756 1392 l 2
 756 1721 628 1783 475 1783 c 0
 267 1783 182 1643 182 1386 c 0
 182 1317 200 1196 220 1097 c 2
 256 920 l 1
 88 920 l 1
 88 817 l 1
 275 817 l 1
 305 647 l 2
 362 325 337 221 118 86 c 1
 118 0 l 1
EndSplineSet
EndChar

StartChar: summation
Encoding: 8721 8721 319
Width: 681
VWidth: 0
GlyphClass: 2
Flags: W
PickledData: "(dp1
S'com.fontlab.hintData'
p2
(dp3
S'vhints'
p4
((dp5
S'position'
p6
I102
sS'width'
p7
I451
stp8
sS'hhints'
p9
((dp10
g6
I0
sg7
I125
s(dp11
g6
I1649
sg7
I112
stp12
ss."
VStem: 102 451<101 125 1649 1673>
LayerCount: 2
UndoRedoHistory
Layer: 1
Undoes
EndUndoes
Redoes
EndRedoes
EndUndoRedoHistory
Fore
SplineSet
102 0 m 1
 553 0 l 1
 553 125 l 1
 265 125 l 1
 505 880 l 1
 265 1649 l 1
 553 1649 l 1
 553 1760 l 1
 102 1760 l 1
 102 1673 l 1
 347 881 l 1
 102 101 l 1
 102 0 l 1
EndSplineSet
EndChar

StartChar: t
Encoding: 116 116 320
Width: 585
VWidth: 0
GlyphClass: 2
Flags: W
PickledData: "(dp1
S'com.fontlab.hintData'
p2
(dp3
S'vhints'
p4
((dp5
S'position'
p6
I201
sS'width'
p7
I150
stp8
sS'hhints'
p9
((dp10
g6
I-9
sg7
I127
s(dp11
g6
I1384
sg7
I116
s(dp12
g6
I1740
sg7
I20
stp13
ss."
HStem: -9 127<444 527 444 527 444 527> 1384 116<51 201 51 201 351 528> 1740 20<201 351 201 201>
VStem: 201 150<209 217 217 1384 1500 1760 209 1500>
AnchorPoint: "cedilla" 340 0 basechar 0
LayerCount: 2
Fore
SplineSet
423 -9 m 2
 527 -9 l 1
 527 118 l 1
 361 118 351 129 351 209 c 2
 351 1384 l 1
 528 1384 l 1
 528 1500 l 1
 351 1500 l 1
 351 1760 l 1
 201 1760 l 1
 201 1500 l 1
 51 1500 l 1
 51 1384 l 1
 201 1384 l 1
 201 217 l 2
 201 48 230 -9 423 -9 c 2
EndSplineSet
EndChar

StartChar: thorn
Encoding: 254 254 322
Width: 875
VWidth: 0
GlyphClass: 2
Flags: W
PickledData: "(dp1
S'com.fontlab.hintData'
p2
(dp3
S'vhints'
p4
((dp5
S'position'
p6
I160
sS'width'
p7
I150
s(dp8
g6
I597
sg7
I150
stp9
sS'hhints'
p10
((dp11
g6
I-265
sg7
I21
s(dp12
g6
I-16
sg7
I122
s(dp13
g6
I1387
sg7
I124
s(dp14
g6
I1762
sg7
I20
stp15
ss."
HStem: -16 122<364.83 547.977> 1387 124<369.634 554.91>
VStem: 160 150<164.037 463 1059 1336.66> 597 150<158.597 475 1013 1342.95>
LayerCount: 2
UndoRedoHistory
Layer: 1
Undoes
EndUndoes
Redoes
EndRedoes
EndUndoRedoHistory
Fore
SplineSet
160 -265 m 1
 310 -265 l 1
 310 108 l 1
 336 40 399 -16 470 -16 c 0
 694 -16 747 194 747 475 c 2
 747 1013 l 2
 747 1298 715 1511 509 1511 c 0
 431 1511 351 1482 310 1385 c 1
 310 1783 l 1
 160 1783 l 1
 160 -265 l 1
461 106 m 1
 336 106 310 222 310 463 c 2
 310 1059 l 2
 310 1351 370 1387 468 1387 c 0
 586 1387 597 1260 597 1062 c 2
 597 468 l 2
 597 214 571 107 461 106 c 1
EndSplineSet
EndChar

StartChar: three
Encoding: 51 51 323
Width: 830
VWidth: 0
GlyphClass: 2
Flags: W
PickledData: "(dp1
S'com.fontlab.hintData'
p2
(dp3
S'vhints'
p4
((dp5
S'position'
p6
I100
sS'width'
p7
I150
s(dp8
g6
I576
sg7
I150
stp9
sS'hhints'
p10
((dp11
g6
I-20
sg7
I124
s(dp12
g6
I854
sg7
I128
s(dp13
g6
I1655
sg7
I125
stp14
ss."
HStem: -20 124<345 478 345 517> 854 128<323 360 323 362 323 436.5> 1655 125<360 450>
VStem: 100 150<307.5 517 474 517> 576 150<334.5 565 302.5 621.5>
LayerCount: 2
Fore
SplineSet
406 -20 m 0
 628 -20 726 137 726 468 c 0
 726 662 673 858 548 914 c 1
 675 962 723 1118 723 1321 c 0
 723 1623 632 1780 407 1780 c 0
 183 1780 106 1622 106 1321 c 2
 106 1287 l 1
 255 1287 l 1
 255 1318 l 2
 255 1597 316 1655 404 1655 c 0
 496 1655 573 1610 573 1322 c 0
 573 1014 507 982 360 982 c 2
 323 982 l 1
 323 854 l 1
 362 854 l 2
 511 854 576 771 576 472 c 0
 576 197 544 104 412 104 c 0
 278 104 250 184 250 474 c 2
 250 517 l 1
 100 517 l 1
 100 474 l 2
 100 141 182 -20 406 -20 c 0
EndSplineSet
EndChar

StartChar: threequarters
Encoding: 190 190 324
Width: 1555
VWidth: 0
GlyphClass: 2
Flags: W
PickledData: "(dp1
S'com.fontlab.hintData'
p2
(dp3
S'vhints'
p4
((dp5
S'position'
p6
I147
sS'width'
p7
I105
s(dp8
g6
I475
sg7
I105
s(dp9
g6
I1269
sg7
I94
stp10
sS'hhints'
p11
((dp12
g6
I0
sg7
I21
s(dp13
g6
I244
sg7
I82
s(dp14
g6
I551
sg7
I87
s(dp15
g6
I1157
sg7
I87
s(dp16
g6
I1711
sg7
I89
s(dp17
g6
I1762
sg7
I20
stp18
ss."
HStem: 551 87<278.099 442.854> 1157 87<329 431.158> 1711 89<285.57 439.042>
VStem: 147 105<657.965 893 1480 1685.96> 475 105<663.141 1114.11 1274.53 1681.1> 1269 94<1177.24 1224>
LayerCount: 2
UndoRedoHistory
Layer: 1
Undoes
EndUndoes
Redoes
EndRedoes
EndUndoRedoHistory
Fore
SplineSet
358 551 m 0
 513 551 580 660 580 890 c 0
 580 1025 542 1160 456 1199 c 1
 544 1232 578 1341 578 1481 c 0
 578 1691 515 1800 359 1800 c 0
 203 1800 151 1690 151 1481 c 2
 151 1457 l 1
 256 1457 l 1
 256 1480 l 2
 256 1671 296 1711 357 1711 c 0
 421 1711 473 1680 473 1482 c 0
 473 1271 430 1244 329 1244 c 2
 298 1244 l 1
 298 1157 l 1
 329 1157 l 2
 432 1157 475 1100 475 892 c 0
 475 704 450 638 359 638 c 0
 267 638 252 694 252 893 c 2
 252 924 l 1
 147 924 l 1
 147 893 l 2
 147 662 202 551 358 551 c 0
1269 0 m 1
 1363 0 l 1
 1363 244 l 1
 1472 244 l 1
 1472 326 l 1
 1363 326 l 1
 1363 1224 l 1
 1268 1224 l 1
 990 314 l 1
 995 244 l 1
 1269 244 l 1
 1269 0 l 1
568 0 m 1
 686 0 l 1
 1147 1783 l 1
 1027 1783 l 1
 568 0 l 1
1086 326 m 1
 1269 989 l 1
 1269 326 l 1
 1086 326 l 1
EndSplineSet
EndChar

StartChar: tilde
Encoding: 732 732 325
Width: 683
VWidth: 0
GlyphClass: 2
Flags: W
PickledData: "(dp1
S'com.fontlab.hintData'
p2
(dp3
S'vhints'
p4
((dp5
S'position'
p6
I50
sS'width'
p7
I583
stp8
sS'hhints'
p9
((dp10
g6
I1583
sg7
I128
s(dp11
g6
I1665
sg7
I120
s(dp12
g6
I1762
sg7
I20
stp13
ss."
HStem: 1583 128<341.561 516.264> 1665 118<173.536 355.609>
LayerCount: 2
UndoRedoHistory
Layer: 1
Undoes
EndUndoes
Redoes
EndRedoes
EndUndoRedoHistory
Fore
SplineSet
483 1583 m 0x80
 547 1583 583 1599 624 1728 c 1
 633 1754 l 1
 528 1783 l 1x40
 507 1723 491 1714 472 1711 c 1
 468 1711 l 2x80
 418 1711 299 1783 218 1783 c 0
 154 1783 89 1785 50 1650 c 1
 143 1604 l 1
 161 1639 172 1658 194 1663 c 0
 201 1665 209 1665 217 1665 c 0x40
 300 1665 395 1583 483 1583 c 0x80
EndSplineSet
EndChar

StartChar: trademark
Encoding: 8482 8482 326
Width: 1407
VWidth: 0
GlyphClass: 2
Flags: W
PickledData: "(dp1
S'com.fontlab.hintData'
p2
(dp3
S'vhints'
p4
((dp5
S'position'
p6
I260
sS'width'
p7
I109
s(dp8
g6
I631
sg7
I96
s(dp9
g6
I631
sg7
I79
s(dp10
g6
I1179
sg7
I95
s(dp11
g6
I1195
sg7
I79
stp12
sS'hhints'
p13
((dp14
g6
I1674
sg7
I87
stp15
ss."
VStem: 631 96<1005 1443.51> 631 79<1086.49 1525> 1179 95<1005 1470.92> 1195 79<1059.08 1525>
LayerCount: 2
UndoRedoHistory
Layer: 1
Undoes
EndUndoes
Redoes
EndRedoes
EndUndoRedoHistory
Fore
SplineSet
631 447 m 1x50
 727 447 l 1
 727 1005 l 1x80
 710 1525 l 1
 899 447 l 1
 1013 447 l 1
 1195 1525 l 1x50
 1179 1005 l 1
 1179 447 l 1x20
 1274 447 l 1
 1274 1760 l 1
 1143 1760 l 1
 956 562 l 1
 763 1760 l 1
 631 1760 l 1
 631 447 l 1x50
260 447 m 1
 369 447 l 1
 369 1674 l 1
 492 1674 l 1
 492 1760 l 1
 123 1760 l 1
 123 1674 l 1
 260 1674 l 1
 260 447 l 1
EndSplineSet
EndChar

StartChar: two
Encoding: 50 50 327
Width: 830
VWidth: 0
GlyphClass: 2
Flags: W
PickledData: "(dp1
S'com.fontlab.hintData'
p2
(dp3
S'vhints'
p4
((dp5
S'position'
p6
I176
sS'width'
p7
I141
s(dp8
g6
I579
sg7
I139
stp9
sS'hhints'
p10
((dp11
g6
I0
sg7
I121
s(dp12
g6
I1656
sg7
I126
stp13
ss."
HStem: 1656 127<372.029 541.807>
VStem: 176 141<1319 1597.73> 579 139<938.897 1622.42>
LayerCount: 2
UndoRedoHistory
Layer: 1
Undoes
EndUndoes
Redoes
EndRedoes
EndUndoRedoHistory
Fore
SplineSet
179 0 m 1
 694 0 l 1
 694 121 l 1
 321 121 l 1
 446.5 395 l 1
 572 669 l 2
 670 882 718 1041 718 1310 c 0
 718 1639 644 1780 467 1783 c 0
 263 1786 176 1657 176 1323 c 2
 176 1065 l 1
 317 1065 l 1
 317 1319 l 2
 317 1568 361 1654 450 1656 c 0
 550 1658 579 1600 579 1305 c 0
 579 1085 570 978 456 729 c 2
 317.5 425 l 1
 179 121 l 1
 179 0 l 1
EndSplineSet
EndChar

StartChar: u
Encoding: 117 117 328
Width: 914
VWidth: 0
GlyphClass: 2
Flags: W
PickledData: "(dp1
S'com.fontlab.hintData'
p2
(dp3
S'vhints'
p4
((dp5
S'position'
p6
I148
sS'width'
p7
I149
s(dp8
g6
I612
sg7
I149
stp9
sS'hhints'
p10
((dp11
g6
I-20
sg7
I139
s(dp12
g6
I0
sg7
I21
s(dp13
g6
I1480
sg7
I20
stp14
ss."
HStem: -20 139<399 443> 0 21<612 761 761 761> 1480 20<148 297 148 148 610 761 610 610>
VStem: 148 149<166 1500 292 1500 292 1500> 612 149<0 150 0 1500 246.5 303>
AnchorPoint: "ogonek" 666 0 basechar 0
LayerCount: 2
Fore
SplineSet
385 -20 m 0
 501 -20 588 65 612 150 c 1
 612 0 l 1
 761 0 l 1
 761 1500 l 1
 610 1500 l 1
 612 303 l 2
 612 190 549 119 444 119 c 0
 354 119 297 174 297 292 c 2
 297 1500 l 1
 148 1500 l 1
 148 285 l 2
 148 47 290 -20 385 -20 c 0
EndSplineSet
EndChar

StartChar: underscore
Encoding: 95 95 336
Width: 748
VWidth: 0
GlyphClass: 2
Flags: W
PickledData: "(dp1
S'com.fontlab.hintData'
p2
(dp3
S'vhints'
p4
((dp5
S'position'
p6
I48
sS'width'
p7
I651
stp8
sS'hhints'
p9
((dp10
g6
I-185
sg7
I121
stp11
ss."
HStem: -185 121<48 699 48 699>
VStem: 48 651<-185 -64 -185 -64>
LayerCount: 2
Fore
SplineSet
48 -185 m 1
 699 -185 l 1
 699 -64 l 1
 48 -64 l 1
 48 -185 l 1
EndSplineSet
EndChar

StartChar: uni00AD
Encoding: 173 173 338
Width: 696
VWidth: 0
GlyphClass: 2
Flags: W
PickledData: "(dp1
S'com.fontlab.hintData'
p2
(dp3
S'vhints'
p4
((dp5
S'position'
p6
I90
sS'width'
p7
I516
stp8
sS'hhints'
p9
((dp10
g6
I626
sg7
I115
stp11
ss."
HStem: 626 115<90 606 90 606>
VStem: 90 516<626 741 626 741>
LayerCount: 2
Fore
SplineSet
90 626 m 1
 606 626 l 1
 606 741 l 1
 90 741 l 1
 90 626 l 1
EndSplineSet
EndChar

StartChar: uni00B2
Encoding: 178 178 339
Width: 861
VWidth: 0
GlyphClass: 2
Flags: W
PickledData: "(dp1
S'com.fontlab.hintData'
p2
(dp3
S'vhints'
p4
((dp5
S'position'
p6
I264
sS'width'
p7
I111
s(dp8
g6
I560
sg7
I110
stp9
sS'hhints'
p10
((dp11
g6
I420
sg7
I78
s(dp12
g6
I1681
sg7
I97
stp13
ss."
HStem: 420 78<375 651 375 651 375 651> 1681 97<446 495.5>
VStem: 264 111<420 498 420 498> 560 110<1376 1490.5 1226.5 1533.5>
LayerCount: 2
Fore
SplineSet
264 420 m 1
 651 420 l 1
 651 498 l 1
 375 498 l 1
 408 853 670 1047 670 1406 c 0
 670 1575 653 1778 488 1778 c 0
 266 1778 260 1603 260 1314 c 1
 259 1232 l 1
 375 1232 l 1
 375 1410 l 2
 375 1647 421 1681 471 1681 c 0
 520 1681 560 1645 560 1422 c 0
 560 1330 537 1200 507 1135 c 1
 522 1153 264 572 264 492 c 2
 264 420 l 1
EndSplineSet
EndChar

StartChar: uni00B3
Encoding: 179 179 340
Width: 880
VWidth: 0
GlyphClass: 2
Flags: W
PickledData: "(dp1
S'com.fontlab.hintData'
p2
(dp3
S'vhints'
p4
((dp5
S'position'
p6
I233
sS'width'
p7
I100
s(dp8
g6
I553
sg7
I98
stp9
sS'hhints'
p10
((dp11
g6
I542
sg7
I84
s(dp12
g6
I1140
sg7
I87
s(dp13
g6
I1689
sg7
I86
stp14
ss."
HStem: 542 84<392.5 482.5 392.5 512> 1140 87<379 408 379 410 379 460> 1689 86<406.5 467.5>
VStem: 233 100<879 880 880 909> 553 98<784.5 942 762.5 981.5>
LayerCount: 2
Fore
SplineSet
438 542 m 0
 586 542 651 649 651 876 c 0
 651 1008 614 1143 530 1181 c 1
 616 1214 649 1322 649 1460 c 0
 649 1667 589 1775 438 1775 c 0
 287 1775 237 1666 237 1460 c 2
 237 1437 l 1
 337 1437 l 1
 337 1459 l 2
 337 1650 377 1689 436 1689 c 0
 499 1689 550 1659 550 1462 c 0
 550 1251 507 1226 408 1227 c 1
 379 1227 l 1
 379 1140 l 1
 410 1140 l 2
 510 1140 553 1085 553 878 c 0
 553 691 527 626 438 626 c 0
 347 626 333 682 333 879 c 2
 333 909 l 1
 233 909 l 1
 233 880 l 2
 233 652 287 542 438 542 c 0
EndSplineSet
EndChar

StartChar: uni00B9
Encoding: 185 185 341
Width: 626
VWidth: 0
GlyphClass: 2
Flags: W
PickledData: "(dp1
S'com.fontlab.hintData'
p2
(dp3
S'vhints'
p4
((dp5
S'position'
p6
I266
sS'width'
p7
I111
s(dp8
g6
I309
sg7
I68
stp9
sS'hhints'
p10
((dp11
g6
I1517
sg7
I74
s(dp12
g6
I1739
sg7
I20
stp13
ss."
HStem: 1517 74<103 197.791>
VStem: 309 68<1703.63 1760>
LayerCount: 2
UndoRedoHistory
Layer: 1
Undoes
EndUndoes
Redoes
EndRedoes
EndUndoRedoHistory
Fore
SplineSet
266 414 m 1
 377 414 l 1
 377 1760 l 1
 309 1760 l 1
 263 1658 182 1603 103 1591 c 1
 103 1517 l 1
 158 1517 232 1540 266 1585 c 1
 266 414 l 1
EndSplineSet
EndChar

StartChar: uni0237
Encoding: 567 567 382
Width: 479
VWidth: 0
GlyphClass: 2
Flags: W
PickledData: "(dp1
S'com.fontlab.hintData'
p2
(dp3
S'vhints'
p4
((dp5
S'position'
p6
I176
sS'width'
p7
I149
stp8
sS'hhints'
p9
((dp10
g6
I-218
sg7
I108
s(dp11
g6
I1480
sg7
I20
stp12
ss."
HStem: -218 108<68 69> 1480 20<176 325 176 176>
VStem: 176 149<-62.5 1500 -34 1500 -34 1500>
AnchorPoint: "circumflexcomb" 249 1497 basechar 0
LayerCount: 2
Fore
SplineSet
202 -221 m 0
 234 -216 325 -190 325 -34 c 2
 325 1500 l 1
 176 1500 l 1
 176 -44 l 2
 176 -81 168 -106 139 -111 c 1
 109 -115 68 -110 68 -110 c 1
 68 -218 l 1
 70 -218 133 -230 202 -221 c 0
EndSplineSet
EndChar

StartChar: uni02C9
Encoding: 713 713 383
Width: 696
VWidth: 0
GlyphClass: 2
Flags: W
PickledData: "(dp1
S'com.fontlab.hintData'
p2
(dp3
S'vhints'
p4
((dp5
S'position'
p6
I90
sS'width'
p7
I516
stp8
sS'hhints'
p9
((dp10
g6
I626
sg7
I115
stp11
ss."
HStem: 626 115<90 606 90 606>
VStem: 90 516<626 741 626 741>
LayerCount: 2
Fore
SplineSet
90 626 m 1
 606 626 l 1
 606 741 l 1
 90 741 l 1
 90 626 l 1
EndSplineSet
EndChar

StartChar: uni0302
Encoding: 770 770 384
Width: 616
VWidth: 0
GlyphClass: 4
Flags: W
PickledData: "(dp1
S'com.fontlab.hintData'
p2
(dp3
S'vhints'
p4
((dp5
S'position'
p6
I111
sS'width'
p7
I407
stp8
sS'hhints'
p9
((dp10
g6
I1384
sg7
I254
stp11
ss."
HStem: 1384 254<111 398 229 398 232 518 232 518>
VStem: 111 407<1384 1384>
AnchorPoint: "circumflexcomb" 328 1225 mark 0
LayerCount: 2
Fore
SplineSet
111 1384 m 1
 229 1384 l 1
 315 1559 l 1
 401 1384 l 1
 518 1384 l 1
 398 1638 l 1
 232 1638 l 1
 111 1384 l 1
EndSplineSet
EndChar

StartChar: uni0307
Encoding: 775 775 385
Width: 572
VWidth: 0
GlyphClass: 2
Flags: W
PickledData: "(dp1
S'com.fontlab.hintData'
p2
(dp3
S'vhints'
p4
((dp5
S'position'
p6
I215
sS'width'
p7
I168
stp8
sS'hhints'
p9
((dp10
g6
I-8
sg7
I318
stp11
ss."
HStem: -8 318<215 383 215 383>
VStem: 215 168<-8 310 -8 310>
LayerCount: 2
Fore
SplineSet
215 -8 m 1
 383 -8 l 1
 383 310 l 1
 215 310 l 1
 215 -8 l 1
EndSplineSet
EndChar

StartChar: uni0311
Encoding: 785 785 386
Width: 1016
VWidth: 0
GlyphClass: 2
Flags: W
PickledData: "(dp1
S'com.fontlab.hintData'
p2
(dp3
S'vhints'
p4
((dp5
S'position'
p6
I313
sS'width'
p7
I64
s(dp8
g6
I631
sg7
I64
stp9
sS'hhints'
p10
((dp11
g6
I1715
sg7
I91
stp12
ss."
HStem: 1715 91<499 499>
VStem: 313 64<1596 1599 1599 1599 1599 1609> 631 64<1606 1624>
LayerCount: 2
Fore
SplineSet
313 1596 m 1
 377 1599 l 1
 375 1694 443 1714 499 1715 c 0
 560 1717 629 1697 631 1606 c 1
 695 1609 l 1
 695 1624 l 1
 692 1739 623 1811 499 1806 c 1
 369 1803 310 1722 313 1609 c 1
 313 1596 l 1
EndSplineSet
EndChar

StartChar: uni2074
Encoding: 8308 8308 401
Width: 857
VWidth: 0
GlyphClass: 2
Flags: W
PickledData: "(dp1
S'com.fontlab.hintData'
p2
(dp3
S'vhints'
p4
((dp5
S'position'
p6
I489
sS'width'
p7
I91
stp8
sS'hhints'
p9
((dp10
g6
I795
sg7
I78
s(dp11
g6
I1740
sg7
I20
stp12
ss."
HStem: 795 78<310 310 310 489 580 688> 1740 20<495 580 495 495>
VStem: 489 91<554 795 554 795 554 873 873 1533>
LayerCount: 2
Fore
SplineSet
489 554 m 1
 580 554 l 1
 580 795 l 1
 688 795 l 1
 688 873 l 1
 580 873 l 1
 580 1760 l 1
 495 1760 l 1
 224 862 l 1
 224 795 l 1
 489 795 l 1
 489 554 l 1
310 873 m 1
 489 1533 l 1
 489 873 l 1
 310 873 l 1
EndSplineSet
EndChar

StartChar: uni2215
Encoding: 8725 8725 402
Width: 767
VWidth: 0
GlyphClass: 2
Flags: W
PickledData: "(dp1
S'com.fontlab.hintData'
p2
(dp3
S'vhints'
p4
((dp5
S'position'
p6
I94
sS'width'
p7
I579
stp8
sS'hhints'
p9
((dp10
g6
I0
sg7
I21
s(dp11
g6
I1762
sg7
I20
stp12
ss."
LayerCount: 2
UndoRedoHistory
Layer: 1
Undoes
EndUndoes
Redoes
EndRedoes
EndUndoRedoHistory
Fore
SplineSet
94 0 m 1
 231 0 l 1
 673 1783 l 1
 536 1783 l 1
 94 0 l 1
EndSplineSet
EndChar

StartChar: uniFB00
Encoding: 65537 -1 404
Width: 1220
VWidth: 0
GlyphClass: 2
Flags: W
PickledData: "(dp1
S'com.fontlab.hintData'
p2
(dp3
S'vhints'
p4
((dp5
S'position'
p6
I224
sS'width'
p7
I150
s(dp8
g6
I834
sg7
I150
stp9
sS'hhints'
p10
((dp11
g6
I0
sg7
I21
s(dp12
g6
I1329
sg7
I113
s(dp13
g6
I1650
sg7
I121
s(dp14
g6
I1657
sg7
I132
stp15
ss."
HStem: 0 21<224 374 374 374 834 984 984 984> 1329 113<84 224 84 224 374 834 984 1183> 1650 121<573 573> 1657 132<436.5 474 357.5 503 1046.5 1084>
VStem: 224 150<0 1329 0 1329 0 1442 1442 1512> 834 150<0 1329 0 1329 0 1442 1442 1512>
LayerCount: 2
Fore
SplineSet
224 0 m 1
 374 0 l 1
 374 1329 l 1
 834 1329 l 1
 834 0 l 1
 984 0 l 1
 984 1329 l 1
 1183 1329 l 1
 1183 1442 l 1
 984 1442 l 1
 984 1534 l 2
 984 1606 991 1657 1102 1657 c 0
 1124 1657 1151 1655 1183 1650 c 1
 1183 1771 l 1
 1180 1772 1120 1789 1048 1789 c 0
 887 1789 834 1688 834 1512 c 2
 834 1442 l 1
 374 1442 l 1
 374 1534 l 2
 374 1606 381 1657 492 1657 c 0
 514 1657 541 1655 573 1650 c 1
 573 1771 l 1
 570 1772 510 1789 438 1789 c 0
 277 1789 224 1688 224 1512 c 2
 224 1442 l 1
 84 1442 l 1
 84 1329 l 1
 224 1329 l 1
 224 0 l 1
EndSplineSet
EndChar

StartChar: uniFB01
Encoding: 64257 64257 405
Width: 1084
VWidth: 0
GlyphClass: 2
Flags: W
PickledData: "(dp1
S'com.fontlab.hintData'
p2
(dp3
S'vhints'
p4
((dp5
S'position'
p6
I224
sS'width'
p7
I150
s(dp8
g6
I772
sg7
I150
stp9
sS'hhints'
p10
((dp11
g6
I0
sg7
I21
s(dp12
g6
I1388
sg7
I112
s(dp13
g6
I1615
sg7
I185
s(dp14
g6
I1663
sg7
I132
stp15
ss."
HStem: 1663 132<387.559 572.161>
VStem: 224 150<1518 1648.12>
LayerCount: 2
UndoRedoHistory
Layer: 1
Undoes
EndUndoes
Redoes
EndRedoes
EndUndoRedoHistory
Fore
SplineSet
224 0 m 1
 374 0 l 1
 374 1388 l 1
 772 1388 l 1
 772 0 l 1
 922 0 l 1
 922 1500 l 1
 374 1500 l 1
 374 1540 l 2
 374 1612 381 1663 492 1663 c 0
 514 1663 541 1661 573 1656 c 1
 573 1777 l 1
 570 1778 510 1795 438 1795 c 0
 277 1795 224 1694 224 1518 c 2
 224 1500 l 1
 84 1500 l 1
 84 1388 l 1
 224 1388 l 1
 224 0 l 1
772 1615 m 1
 922 1615 l 1
 922 1800 l 1
 772 1800 l 1
 772 1615 l 1
EndSplineSet
EndChar

StartChar: uniFB02
Encoding: 64258 64258 406
Width: 1080
VWidth: 0
GlyphClass: 2
Flags: W
PickledData: "(dp1
S'com.fontlab.hintData'
p2
(dp3
S'vhints'
p4
((dp5
S'position'
p6
I224
sS'width'
p7
I150
s(dp8
g6
I770
sg7
I150
stp9
sS'hhints'
p10
((dp11
g6
I0
sg7
I21
s(dp12
g6
I1329
sg7
I113
s(dp13
g6
I1691
sg7
I120
stp14
ss."
HStem: 0 21<224 374 374 374 770 920 920 920> 1329 113<84 224 84 224 374 573> 1691 120<460.5 555 382 576.5>
VStem: 224 150<0 1329 0 1329 0 1442 1442 1512> 770 150<0 1660 0 1744>
LayerCount: 2
Fore
SplineSet
224 0 m 1
 374 0 l 1
 374 1329 l 1
 573 1329 l 1
 573 1442 l 1
 374 1442 l 1
 374 1541 l 2
 374 1596 372 1691 549 1691 c 0
 604 1691 676 1682 770 1660 c 1
 770 0 l 1
 920 0 l 1
 920 1744 l 1
 739 1790 605 1811 505 1811 c 0
 259 1811 224 1686 224 1512 c 2
 224 1442 l 1
 84 1442 l 1
 84 1329 l 1
 224 1329 l 1
 224 0 l 1
EndSplineSet
EndChar

StartChar: uniFB03
Encoding: 65538 -1 407
Width: 1694
VWidth: 0
GlyphClass: 2
Flags: W
PickledData: "(dp1
S'com.fontlab.hintData'
p2
(dp3
S'vhints'
p4
((dp5
S'position'
p6
I224
sS'width'
p7
I150
s(dp8
g6
I834
sg7
I150
s(dp9
g6
I1382
sg7
I150
stp10
sS'hhints'
p11
((dp12
g6
I0
sg7
I21
s(dp13
g6
I1387
sg7
I113
s(dp14
g6
I1615
sg7
I185
s(dp15
g6
I1657
sg7
I121
s(dp16
g6
I1664
sg7
I132
stp17
ss."
HStem: 0 21<224 374 374 374 834 984 984 984 1382 1532 1532 1532> 1387 113<84 224 84 224 374 834 984 1382 1382 1382> 1615 185<1382 1532 1382 1532> 1657 121<573 573> 1664 132<436.5 474 357.5 503 1046.5 1084>
VStem: 224 150<0 1387 0 1387 0 1500 1500 1519> 834 150<0 1387 0 1387 0 1500 1500 1519> 1382 150<0 1387 0 1500 1615 1800 0 1615>
LayerCount: 2
Fore
SplineSet
224 0 m 1
 374 0 l 1
 374 1387 l 1
 834 1387 l 1
 834 0 l 1
 984 0 l 1
 984 1387 l 1
 1382 1387 l 1
 1382 0 l 1
 1532 0 l 1
 1532 1500 l 1
 984 1500 l 1
 984 1541 l 2
 984 1613 991 1664 1102 1664 c 0
 1124 1664 1151 1662 1183 1657 c 1
 1183 1778 l 1
 1180 1779 1120 1796 1048 1796 c 0
 887 1796 834 1695 834 1519 c 2
 834 1500 l 1
 374 1500 l 1
 374 1541 l 2
 374 1613 381 1664 492 1664 c 0
 514 1664 541 1662 573 1657 c 1
 573 1778 l 1
 570 1779 510 1796 438 1796 c 0
 277 1796 224 1695 224 1519 c 2
 224 1500 l 1
 84 1500 l 1
 84 1387 l 1
 224 1387 l 1
 224 0 l 1
1382 1615 m 1
 1532 1615 l 1
 1532 1800 l 1
 1382 1800 l 1
 1382 1615 l 1
EndSplineSet
EndChar

StartChar: uniFB04
Encoding: 65539 -1 408
Width: 1635
VWidth: 0
GlyphClass: 2
Flags: W
PickledData: "(dp1
S'com.fontlab.hintData'
p2
(dp3
S'vhints'
p4
((dp5
S'position'
p6
I224
sS'width'
p7
I150
s(dp8
g6
I779
sg7
I150
s(dp9
g6
I1325
sg7
I150
stp10
sS'hhints'
p11
((dp12
g6
I0
sg7
I21
s(dp13
g6
I1329
sg7
I113
s(dp14
g6
I1657
sg7
I132
s(dp15
g6
I1691
sg7
I120
stp16
ss."
HStem: 0 21<224 374 374 374 779 929 929 929 1325 1475 1475 1475> 1329 113<84 224 84 224 374 779 929 1128> 1657 132<436.5 474 357.5 503> 1691 120<1015.5 1110 937 1131.5>
VStem: 224 150<0 1329 0 1329 0 1442 1442 1512> 779 150<0 1329 0 1329 0 1442 1442 1512> 1325 150<0 1660 0 1744>
LayerCount: 2
Fore
SplineSet
224 0 m 1
 374 0 l 1
 374 1329 l 1
 779 1329 l 1
 779 0 l 1
 929 0 l 1
 929 1329 l 1
 1128 1329 l 1
 1128 1442 l 1
 929 1442 l 1
 929 1541 l 2
 929 1596 927 1691 1104 1691 c 0
 1159 1691 1231 1682 1325 1660 c 1
 1325 0 l 1
 1475 0 l 1
 1475 1744 l 1
 1294 1790 1160 1811 1060 1811 c 0
 814 1811 779 1686 779 1512 c 2
 779 1442 l 1
 374 1442 l 1
 374 1534 l 2
 374 1606 381 1657 492 1657 c 0
 514 1657 541 1655 573 1650 c 1
 573 1771 l 1
 570 1772 510 1789 438 1789 c 0
 277 1789 224 1688 224 1512 c 2
 224 1442 l 1
 84 1442 l 1
 84 1329 l 1
 224 1329 l 1
 224 0 l 1
EndSplineSet
EndChar

StartChar: v
Encoding: 118 118 412
Width: 718
VWidth: 0
GlyphClass: 2
Flags: W
PickledData: "(dp1
S'com.fontlab.hintData'
p2
(dp3
S'vhints'
p4
((dp5
S'position'
p6
I58
sS'width'
p7
I602
stp8
sS'hhints'
p9
((dp10
g6
I0
sg7
I21
s(dp11
g6
I1480
sg7
I20
stp12
ss."
HStem: 0 21<287 436 436 436> 1480 20<58 194 58 58 524 660 524 524>
VStem: 58 602<1500 1500>
LayerCount: 2
Fore
SplineSet
287 0 m 1
 436 0 l 1
 660 1500 l 1
 524 1500 l 1
 414 691 l 1
 369 241 l 1
 363 241 l 1
 312 690 l 1
 194 1500 l 1
 58 1500 l 1
 287 0 l 1
EndSplineSet
EndChar

StartChar: w
Encoding: 119 119 413
Width: 1080
VWidth: 0
GlyphClass: 2
Flags: W
PickledData: "(dp1
S'com.fontlab.hintData'
p2
(dp3
S'vhints'
p4
((dp5
S'position'
p6
I888
sS'width'
p7
I132
stp8
sS'hhints'
p9
((dp10
g6
I0
sg7
I21
s(dp11
g6
I1480
sg7
I20
stp12
ss."
HStem: 0 21<236 378 378 378 698 846 846 846> 1480 20<60 197 60 60 479 526 479 479 526 580 580 606 888 1020 888 888>
VStem: 888 132<1500 1500>
LayerCount: 2
Fore
SplineSet
236 0 m 1
 378 0 l 1
 551 1283 l 1
 698 0 l 1
 846 0 l 1
 1020 1500 l 1
 888 1500 l 1
 813 648 l 1
 793 302 l 1
 783 302 l 1
 743 646 l 1
 606 1500 l 1
 580 1500 l 1
 526 1500 l 1
 479 1500 l 1
 353 614 l 1
 323 302 l 1
 311 302 l 1
 287 613 l 1
 197 1500 l 1
 60 1500 l 1
 236 0 l 1
EndSplineSet
EndChar

StartChar: x
Encoding: 120 120 418
Width: 668
VWidth: 0
GlyphClass: 2
Flags: W
PickledData: "(dp1
S'com.fontlab.hintData'
p2
(dp3
S'vhints'
p4
((dp5
S'position'
p6
I490
sS'width'
p7
I142
stp8
sS'hhints'
p9
((dp10
g6
I0
sg7
I21
s(dp11
g6
I1480
sg7
I20
stp12
ss."
HStem: 0 21<33 165 165 165 497 636 636 636> 1480 20<51 181 51 51 490 632 490 490>
VStem: 490 142<1500 1500>
LayerCount: 2
Fore
SplineSet
33 0 m 1
 165 0 l 1
 326 574 l 1
 497 0 l 1
 636 0 l 1
 400 779 l 1
 632 1500 l 1
 490 1500 l 1
 341 973 l 1
 181 1500 l 1
 51 1500 l 1
 270 762 l 1
 33 0 l 1
EndSplineSet
EndChar

StartChar: y
Encoding: 121 121 419
Width: 745
VWidth: 0
GlyphClass: 2
Flags: W
PickledData: "(dp1
S'com.fontlab.hintData'
p2
(dp3
S'vhints'
p4
((dp5
S'position'
p6
I64
sS'width'
p7
I150
s(dp8
g6
I544
sg7
I149
stp9
sS'hhints'
p10
((dp11
g6
I-238
sg7
I128
s(dp12
g6
I1480
sg7
I20
stp13
ss."
HStem: -238 128<133 188 133 257 133 334> 1480 20<64 214 64 64 544 693 544 544>
VStem: 64 150<1500 1500> 544 149<1500 1500>
LayerCount: 2
Fore
SplineSet
133 -238 m 1
 257 -238 l 2
 411 -238 426 -178 454 3 c 2
 693 1500 l 1
 544 1500 l 1
 437 707 l 1
 394 299 l 1
 381 299 l 1
 333 707 l 1
 214 1500 l 1
 64 1500 l 1
 314 38 l 2
 324 -26 333 -76 311 -99 c 1
 299 -107 244 -110 188 -110 c 2
 133 -110 l 1
 133 -238 l 1
EndSplineSet
EndChar

StartChar: yen
Encoding: 165 165 423
Width: 786
VWidth: 0
GlyphClass: 2
Flags: W
PickledData: "(dp1
S'com.fontlab.hintData'
p2
(dp3
S'vhints'
p4
((dp5
S'position'
p6
I334
sS'width'
p7
I149
s(dp8
g6
I412
sg7
I53
s(dp9
g6
I616
sg7
I154
stp10
sS'hhints'
p11
((dp12
g6
I0
sg7
I21
s(dp13
g6
I462
sg7
I82
s(dp14
g6
I741
sg7
I83
s(dp15
g6
I1740
sg7
I20
stp16
ss."
HStem: 0 21 462 82<77 412 465 753> 741 83<77 412 412 412 465 753 77 753> 1740 20
VStem: 334 149 412 53<544 741 544 741> 616 154
LayerCount: 2
Fore
SplineSet
77 462 m 1
 753 462 l 1
 753 544 l 1
 465 544 l 1
 465 741 l 1
 753 741 l 1
 753 824 l 1
 77 824 l 1
 77 741 l 1
 412 741 l 1
 412 544 l 1
 77 544 l 1
 77 462 l 1
EndSplineSet
Refer: 115 89 N 1 0 0 1 0 0 2
EndChar

StartChar: z
Encoding: 122 122 425
Width: 621
VWidth: 0
GlyphClass: 2
Flags: W
PickledData: "(dp1
S'com.fontlab.hintData'
p2
(dp3
S'vhints'
p4
((dp5
S'position'
p6
I80
sS'width'
p7
I488
stp8
sS'hhints'
p9
((dp10
g6
I0
sg7
I130
s(dp11
g6
I1371
sg7
I129
stp12
ss."
HStem: 0 130<234 548 234 548 234 548> 1371 129<105 409 409 409>
VStem: 80 488
LayerCount: 2
Fore
SplineSet
80 0 m 1
 548 0 l 1
 548 130 l 1
 234 130 l 1
 568 1407 l 1
 568 1500 l 1
 105 1500 l 1
 105 1371 l 1
 409 1371 l 1
 80 108 l 1
 80 0 l 1
EndSplineSet
EndChar

StartChar: zero
Encoding: 48 48 429
Width: 831
VWidth: 0
GlyphClass: 2
Flags: W
PickledData: "(dp1
S'com.fontlab.hintData'
p2
(dp3
S'vhints'
p4
((dp5
S'position'
p6
I136
sS'width'
p7
I148
s(dp8
g6
I546
sg7
I149
stp9
sS'hhints'
p10
((dp11
g6
I-21
sg7
I123
s(dp12
g6
I1657
sg7
I124
stp13
ss."
HStem: -21 123<325.757 503.55> 1657 126<324.512 508.912>
VStem: 136 148<146.842 475 1316 1615.97> 546 149<146.842 475 1316 1615.97>
LayerCount: 2
UndoRedoHistory
Layer: 1
Undoes
EndUndoes
Redoes
EndRedoes
EndUndoRedoHistory
Fore
SplineSet
414 102 m 0
 301 102 284 212 284 470 c 2
 284 1328 l 2
 284 1558 301 1657 414 1657 c 0
 534 1657 546 1558 546 1327 c 2
 546 470 l 2
 546 212 534 102 414 102 c 0
417 -21 m 0
 639 -21 695 128 695 475 c 2
 695 1316 l 2
 695 1642 639 1783 417 1783 c 0
 199 1783 136 1642 136 1316 c 2
 136 475 l 2
 136 128 199 -21 417 -21 c 0
EndSplineSet
EndChar
